<svg width="618" height="133" viewBox="0 0 618 133" fill="none" xmlns="http://www.w3.org/2000/svg">
<path fill-rule="evenodd" clip-rule="evenodd" d="M-12.6164 132.782C-19.0673 128.983 -24.884 124.848 -30 120.346V3.2121C-29.7678 3.20671 -29.5356 3.201 -29.3033 3.1953C-26.6445 3.12996 -23.9852 3.06461 -21.3373 3.47916C-17.5063 4.07756 -15.673 2.73524 -14.0515 1.54797C-12.8654 0.67952 -11.7926 -0.105972 -10.1341 0.011734C-6.01562 0.300537 4.17078 0.443634 16.3975 0.615341L16.3993 0.615387C42.9677 0.988556 79.1691 1.49704 83.6818 3.92981C87.941 6.22834 96.6562 5.47512 105.331 4.72537C110.433 4.28444 115.521 3.84471 119.68 4.02769C121.538 4.10834 126.605 3.04781 129.24 2.49655C130.089 2.31876 130.686 2.19394 130.84 2.17749C134.112 1.83035 135.7 1.96246 136.764 2.05095C137.895 2.14502 138.433 2.18979 139.772 1.55721C142.521 0.26207 145.27 0.562439 148.082 1.05002C149.51 1.29674 149.053 2.30951 148.663 3.17545C148.351 3.868 148.081 4.46664 148.851 4.50438C149.729 4.54982 150.576 4.76373 151.424 4.97805C152.526 5.25642 153.631 5.53547 154.81 5.44692C156.206 5.34162 157.063 5.80003 158.095 6.35203C159.58 7.14657 161.428 8.135 165.768 7.91538C170.79 7.6607 168.166 4.84187 166.017 4.31944C165.753 4.25453 165.529 3.94962 165.337 3.68748L165.335 3.68489C165.316 3.65782 165.296 3.63124 165.277 3.60542C164.597 2.69537 167.252 2.28156 169.129 1.98897C169.766 1.88965 170.314 1.80429 170.611 1.71823C172.859 1.06657 173.741 1.17482 174.714 1.29411C175.46 1.38562 176.26 1.48363 177.768 1.25026C179.848 0.928696 180.599 1.39828 181.513 1.97063C182.444 2.55281 183.545 3.2413 186.387 3.31154C191.053 3.42439 192.399 3.8748 193.616 4.28209C195.71 4.98249 197.422 5.55538 214.981 4.06479C215.871 3.98895 216.381 3.79396 216.805 3.63193C217.512 3.36145 217.979 3.18282 219.573 3.80354C228.165 7.14176 226.635 7.1843 223.5 7.27151C222.015 7.31281 220.17 7.36413 218.87 7.7804C217.994 8.05901 216.854 7.85653 215.933 7.56486C213.383 6.75512 210.839 6.68987 208.23 7.1361C206.853 7.37014 206.07 7.04263 205.355 6.74323L205.354 6.74294C205.182 6.67072 205.013 6.60013 204.841 6.53948C202.611 5.75393 202.049 9.37067 204.406 9.5479C228.022 11.2916 245.928 10.9635 259.037 10.7233C269.329 10.5348 276.663 10.4004 281.48 11.3654C282.194 11.509 287.884 12.1665 290.253 10.3228C291.735 9.1688 292.174 9.20074 295.57 9.44776C298.048 9.628 302.101 9.92274 309.281 9.95487C312.168 9.96789 314.652 9.41103 317.113 8.85943C320.412 8.12008 323.668 7.39014 327.795 8.0546C328.315 8.13725 339.633 7.84229 343.119 7.75147C343.672 7.73704 344.028 7.72776 344.112 7.72598C345.414 7.69469 345.844 8.3769 346.268 9.04931C346.612 9.59348 346.951 10.1313 347.745 10.2793C350.476 10.7934 352.356 10.4612 354.818 10.0262C355.222 9.95475 355.642 9.88058 356.083 9.80692C356.841 9.68145 356.935 9.4896 357.017 9.3209C357.176 8.99503 357.293 8.75552 362.07 9.24744C366.01 9.65194 367.544 9.38482 368.54 9.21119C369.372 9.0662 369.831 8.98641 371.003 9.41729C373.437 10.3089 374.798 10.2635 377.26 10.1816C379.053 10.1219 381.43 10.0428 385.23 10.2923C387.35 10.4314 389.019 10.5357 390.347 10.616C394.323 10.8564 394.519 12.8678 390.619 13.6771C388.625 14.0894 388.149 13.8587 387.421 13.5065C386.847 13.2285 386.116 12.8748 384.359 12.7019C383.775 12.6447 383.266 12.5931 382.819 12.5478C380.705 12.3332 379.997 12.2614 379.344 12.4187C379.015 12.4979 378.7 12.6353 378.227 12.8418C377.769 13.0414 377.164 13.3056 376.254 13.6444C375.418 13.955 370.875 13.9946 365.833 14.0386C357.553 14.1108 347.927 14.1948 351.162 15.5098C352.533 16.0649 363.036 16.9008 367.981 15.7102C368.747 15.5273 369.658 15.4577 370.387 15.6884C372.905 16.4961 380.021 16.3223 391.674 16.0375C403.134 15.7574 418.982 15.3701 439.161 15.7036C440.307 15.7235 440.419 16.5678 440.543 17.5068C440.717 18.8209 440.916 20.3205 444.006 20.007C446.247 19.7785 446.642 20.644 446.968 21.3606L446.968 21.3607C447.053 21.5453 447.132 21.7201 447.238 21.8636C449.314 24.6926 451.021 24.304 453.426 23.7565C455.386 23.3102 457.81 22.7584 461.275 23.7574C463.333 24.348 464.218 23.861 465.193 23.3249C466.208 22.7662 467.32 22.154 469.959 22.6516C475.661 23.7244 481.179 22.8645 485.284 22.2249C487.101 21.9418 488.641 21.7018 489.797 21.6918C491.162 21.6801 492.31 21.4103 493.335 21.0567C497.834 19.5035 502.692 18.5218 507.445 18.7684C509.004 18.8482 510.54 18.6053 512.084 18.3613L512.084 18.3612C513.53 18.1327 514.981 17.9033 516.462 17.937C522 18.058 525.51 17.3586 528.482 16.7665L528.482 16.7665C531.654 16.1345 534.213 15.6247 537.968 16.3653C538.706 16.5112 539.696 16.4502 540.283 16.0627C545.137 12.8232 551.303 12.9268 557.383 13.0289H557.383C559.634 13.0667 561.872 13.1043 564.028 12.9721C565.405 12.8877 566.635 12.9415 567.574 13.2396C567.986 13.3703 568.389 13.4861 568.781 13.5888C575.778 15.4201 583.348 15.4887 590.743 15.5556H590.743C592.904 15.5752 595.05 15.5946 597.162 15.6579C604.528 15.8803 608.089 15.5778 610.552 15.3685C612.91 15.1682 614.261 15.0533 616.984 15.5665C617.909 15.745 618.688 17.8324 617.032 18.1262C614.557 18.5662 613.373 18.524 612.02 18.4757H612.02C610.4 18.4179 608.537 18.3515 603.926 19.0927C600.194 19.6913 596.37 20.2334 592.535 19.465C591.262 19.2109 590.042 19.4203 588.855 19.6241H588.855C587.104 19.9247 585.424 20.213 583.753 18.9817C583.512 18.8076 582.974 18.8381 582.663 18.973C580.813 19.768 579.695 19.924 577.128 20.2822C575.873 20.4572 574.272 20.6806 572.071 21.0505C570.878 21.2509 570.083 22.0456 569.277 22.8514C568.552 23.5763 567.818 24.3101 566.778 24.6281C566.55 24.6961 566.327 24.8233 566.108 24.9487C565.786 25.1322 565.471 25.3118 565.159 25.2963C563.633 25.2185 562.139 25.4355 560.642 25.653C559.374 25.8372 558.104 26.0218 556.81 26.0278C550.128 26.0793 543.243 26.4176 536.672 27.6354C535.17 27.9139 533.447 28.3913 531.402 29.2362C530.648 29.5469 530.279 29.9341 529.938 30.2913C529.488 30.7625 529.088 31.1815 527.922 31.304C527.049 31.3966 526.003 31.5172 524.853 31.6499L524.852 31.65L524.851 31.6501C520.972 32.0974 515.904 32.6816 512.296 32.7908C511.448 32.8171 510.611 32.6355 509.774 32.454C508.467 32.1705 507.161 31.8871 505.813 32.3968C503.991 33.0878 500.822 33.217 497.873 33.3372C494.014 33.4945 490.533 33.6364 490.947 35.0023C491.248 36.0036 492.621 37.4728 493.507 37.0723C494.866 36.4611 496.18 36.7171 497.503 36.9747C498.507 37.1703 499.516 37.3668 500.553 37.1855C502.417 36.857 504.799 36.9712 507.039 37.0786H507.039C509.518 37.1975 511.822 37.308 513.053 36.8002C514.106 36.3627 515.487 36.3518 516.638 36.5695C518.745 36.9725 522.613 36.5696 526.672 36.1467C530.088 35.7907 533.64 35.4206 536.393 35.5052C539.16 35.5907 539.867 35.7557 540.321 35.8617C540.827 35.9796 541.019 36.0245 543.388 35.8055C544.109 35.739 544.865 35.6585 545.642 35.5758L545.643 35.5757C550.259 35.0841 555.622 34.5131 558.689 36.3258C561.284 37.8577 562.631 36.844 563.696 36.0428C564.224 35.6452 564.683 35.3 565.19 35.344C566.158 35.4289 566.546 36.4716 566.074 36.907C563.449 39.3079 561.703 39.0419 560.104 38.7982C558.961 38.6241 557.892 38.4613 556.631 39.2904C552.216 42.197 546.551 44.5815 541.468 43.1347C541.318 43.0922 541.174 43.046 541.033 43.0008C540.232 42.7447 539.522 42.518 538.537 43.154C537.728 43.6757 536.847 43.5287 535.945 43.3783C535.247 43.2619 534.536 43.1434 533.837 43.3304C532.954 43.5655 524.835 44.0661 523.035 43.9508C522.14 43.8974 521.289 44.1226 520.442 44.3466C519.355 44.634 518.276 44.9195 517.121 44.6125C516.752 44.5145 516.292 44.5276 515.928 44.6495C513.053 45.6069 510.081 45.7218 507.113 45.8366H507.112L507.112 45.8366C505.869 45.8847 504.627 45.9327 503.392 46.0425C499.945 46.3469 496.575 47.0194 493.198 47.693L492.677 47.797C490.27 48.2737 490.593 50.5789 491.384 50.6376C494.893 50.902 498.484 50.4905 502.001 50.0876L502.001 50.0875L502.002 50.0875C502.437 50.0376 502.871 49.9879 503.304 49.9395C507.068 49.5193 507.16 49.5872 507.437 49.7933C507.626 49.9336 507.901 50.1379 509.479 50.2958C510.402 50.3885 511.102 50.4648 511.643 50.5238C512.989 50.6704 513.347 50.7094 513.672 50.6234C513.789 50.5922 513.903 50.5446 514.057 50.4797C514.425 50.3254 515.024 50.0734 516.469 49.7125C517.062 49.5638 517.75 49.9592 518.432 50.3514C518.975 50.6634 519.514 50.9734 519.999 51.0059C524.882 51.3336 537.127 51.5724 537.483 51.4822C540.95 50.5963 544.051 52.847 541.364 52.9297C537.879 53.0369 535.657 52.8797 534.043 52.7654C531.758 52.6036 530.689 52.528 528.973 53.4107C528.486 53.661 527.73 53.7219 527.216 53.5348C525.49 52.9106 523.885 53.2873 522.208 53.6809L521.939 53.7438C520.897 53.9849 519.517 54.0579 517.875 54.1448H517.874C516.238 54.2313 514.34 54.3317 512.257 54.626C511.063 54.7946 509.945 55.2358 508.824 55.6778L508.824 55.6779C507.87 56.0542 506.914 56.4312 505.91 56.6409C505.289 56.7693 504.954 58.8547 507.832 59.2313C507.947 59.247 508.063 59.2624 508.178 59.2777C510.255 59.5546 512.271 59.8233 513.759 61.6257C514.592 62.6357 521.649 60.5917 522.998 59.8646C524.175 59.2312 525.729 59.2204 526.89 60.4785C527.479 61.1163 528.233 61.4058 533.351 60.8508C536.321 60.5284 537.317 61.1794 538.107 61.6955C538.864 62.1902 539.431 62.561 541.364 61.8324C543.772 60.9229 545.47 62.2507 547.335 64.0436C548.382 65.0508 549.522 66.0715 550.961 66.2724C552.419 66.4758 553.877 66.1353 555.334 65.7949L555.334 65.7949L555.517 65.7523C556.07 65.6235 556.342 65.4947 556.817 65.1829C558.934 63.7917 559.837 66.6342 557.333 67.0219C554.849 67.4068 551.706 67.7228 548.014 67.8719C547.216 67.9042 546.437 68.0882 545.708 68.4144C545.339 68.5797 544.968 68.715 544.589 68.7391C543.88 68.7811 543.149 68.659 542.421 68.5374C541.112 68.3187 539.813 68.1016 538.664 68.8414C537.281 69.7332 531.12 70.0541 525.025 70.3715H525.025C517.124 70.783 509.336 71.1886 512.218 72.8246C513.847 73.7491 514.477 75.9068 513.082 77.1564C512.594 77.5961 513.179 78.9022 514.732 78.9893C514.959 79 515.203 78.9655 515.444 78.9315C515.84 78.8756 516.229 78.8207 516.521 78.9696C518.393 79.9248 518.444 80.2314 516.351 80.4136C511.998 80.7925 507.187 81.4884 504.98 82.8659C504.495 83.1672 503.604 83.0706 502.599 82.9616C501.832 82.8785 500.999 82.7882 500.23 82.8617C491.021 83.7324 490.878 84.2273 490.536 85.4039C490.314 86.1685 490.009 87.2211 487.078 88.8519C483.477 90.8501 496.155 93.5667 502.788 92.7308C503.783 92.6052 504.808 92.7106 505.832 92.816C506.79 92.9145 507.747 93.013 508.68 92.9229C510.886 92.7097 513.092 92.4976 515.3 92.2998C516.57 92.1857 516.954 92.2954 517.406 92.4241C518.084 92.6172 518.913 92.8534 523.104 92.4434C524.478 92.3078 524.145 94.0559 522.786 94.2904C522.396 94.3577 522.004 94.4175 521.612 94.4772L521.611 94.4773C520.347 94.6702 519.081 94.8632 517.876 95.308C516.3 95.8869 515.718 95.765 514.776 95.5677C513.668 95.3355 512.062 94.999 507.751 95.578C507.661 95.5899 507.57 95.6015 507.48 95.6126C505.817 95.8175 504.135 96.1678 502.447 96.5194C499.202 97.1951 495.935 97.8755 492.732 97.5384C492.327 97.4959 491.928 97.4477 491.536 97.4006C491.263 97.3677 490.994 97.3352 490.73 97.3056C486.189 96.7944 488.252 100.606 492.822 100.565C496.223 100.534 495.791 102.533 492.404 102.22C490.896 102.081 489.542 101.928 488.585 101.765C487.835 101.638 487.073 101.572 486.318 101.664C484.694 101.862 481.6 102.163 478.762 102.005C478.044 101.965 477.329 101.904 476.615 101.843L476.615 101.843C474.85 101.693 473.093 101.543 471.323 101.715C469.125 101.928 466.608 102.19 465.693 102.285L465.691 102.285L465.36 102.319C464.231 102.444 464.325 103.097 464.425 103.674C464.459 103.867 464.653 104.001 464.843 103.954C464.963 103.925 465.089 103.967 465.167 104.062L465.251 104.165C465.347 104.283 465.489 104.352 465.641 104.364C466.21 104.409 466.62 104.534 466.916 104.71C467.394 104.994 467.791 105.363 468.172 105.717C468.891 106.384 469.554 107 470.596 106.899C472.586 106.707 474.096 106.544 475.272 106.417L475.272 106.417C478.881 106.027 479.337 105.978 480.839 106.479C482.029 106.875 485.606 106.72 489.607 106.547C493.148 106.393 497.021 106.226 499.867 106.413C500.703 106.468 501.207 107.167 501.705 107.859C501.794 107.982 501.882 108.104 501.972 108.223C502.652 109.12 502.858 110.587 501.739 110.714C499.58 110.96 497.391 110.78 495.202 110.558C492.978 110.334 492.026 110.883 491.172 111.375C490.152 111.963 489.271 112.471 486.524 111.481C485.464 111.1 484.132 111.206 482.562 111.42C476.818 112.204 470.966 111.851 465.15 111.499L465.15 111.499C463.734 111.413 462.32 111.328 460.911 111.259C458.783 111.155 456.883 111.021 455.153 110.899C450.925 110.602 447.707 110.376 444.639 110.826C443.108 111.053 441.58 110.905 440.06 110.758C438.762 110.632 437.47 110.506 436.187 110.617C435.175 110.702 434.161 110.876 433.147 111.05C431.362 111.357 429.577 111.663 427.803 111.485C426.534 111.357 409.621 111.05 406.073 111.542C405.175 111.666 405.745 113.287 406.607 113.566C407.404 113.825 408.233 113.916 409.093 113.703C409.776 113.536 410.478 113.524 411.169 113.512C411.885 113.5 412.59 113.488 413.253 113.303C414.207 113.036 415.024 113.397 415.83 113.752C416.67 114.123 417.497 114.488 418.456 114.132C418.569 114.091 419.052 114.646 418.722 114.646C416.448 114.647 414.237 115.078 412.026 115.509C410.891 115.731 409.756 115.952 408.613 116.115C407.901 116.217 407.27 116.313 406.709 116.398C404.271 116.768 403.177 116.935 402.627 116.464C402.179 116.082 402.091 115.278 401.932 113.82C401.912 113.634 401.891 113.438 401.867 113.23C401.859 113.153 401.809 113.084 401.738 113.052C401.709 113.04 401.675 113.034 401.643 113.034C400.934 113.054 400.338 113.06 399.825 113.066C396.897 113.096 396.682 113.098 393.374 115.443C392.265 116.23 391.682 116.257 388.169 116.42C387.071 116.471 385.688 116.535 383.914 116.64C382.72 116.713 382.521 117.349 382.321 117.986C382.11 118.657 381.9 119.33 380.529 119.35C380.516 119.35 380.445 119.356 380.319 119.367L380.318 119.367C379.058 119.475 372.262 120.056 361.317 120.064C359.736 120.066 356.606 121.496 354.878 122.286C354.499 122.459 354.187 122.601 353.974 122.691C351.897 123.565 350.242 123.361 348.184 123.107C346.281 122.873 344.033 122.596 340.788 123.089C340.125 123.192 338.946 124.378 339.31 124.485C339.651 124.586 339.998 124.719 340.345 124.853C341.165 125.168 341.99 125.485 342.754 125.381C348.16 124.63 353.717 125.106 359.25 125.579C362.215 125.833 365.175 126.087 368.1 126.15C370.482 126.202 372.13 126.411 372.239 127.262C372.542 129.667 360.054 129.585 346.596 129.496C335.743 129.425 324.26 129.349 318.347 130.571C317.771 130.688 317.12 130.804 316.57 130.66C314.553 130.142 312.498 130.135 310.443 130.128C308.665 130.122 306.886 130.116 305.133 129.778C304.86 129.726 304.425 130.059 304.201 130.325C303.418 131.246 303.676 132.073 304.519 132.782H-12.6164ZM480.919 46.987C480.374 47.537 480.164 48.3327 480.77 49.0856C480.177 48.3464 480.368 47.5452 480.919 46.987ZM474.496 41.7892C472.989 42.5049 472.531 40.2025 474.108 40.7492C474.754 40.9735 475.152 41.4761 474.496 41.7892ZM297.252 130.538C296.669 130.365 297.662 129.484 298.268 129.534C298.968 129.593 298.342 130.522 297.642 130.574C297.502 130.584 297.371 130.574 297.252 130.538Z" fill="#F8F8F8"/>
</svg>
