<svg width="380" height="133" viewBox="0 0 380 133" fill="none" xmlns="http://www.w3.org/2000/svg">
<path fill-rule="evenodd" clip-rule="evenodd" d="M630.616 132.782C637.067 128.983 642.884 124.848 648 120.346V3.21191C647.768 3.20653 647.535 3.20082 647.303 3.19511C644.644 3.12978 641.985 3.06442 639.337 3.47897C635.506 4.07738 633.673 2.73506 632.051 1.54779C630.865 0.679337 629.792 -0.106155 628.134 0.0115509C624.015 0.300354 613.829 0.443451 601.602 0.615158L601.6 0.615204C575.032 0.988373 538.831 1.49686 534.318 3.92963C530.059 6.22816 521.344 5.47494 512.669 4.72519C507.567 4.28426 502.479 3.84453 498.32 4.02751C496.462 4.10815 491.394 3.04762 488.76 2.49637C487.91 2.31857 487.314 2.19376 487.16 2.17731C483.888 1.83017 482.299 1.96228 481.235 2.05077C480.105 2.14484 479.566 2.18961 478.228 1.55702C475.479 0.261887 472.73 0.562256 469.917 1.04984C468.49 1.29655 468.946 2.30933 469.337 3.17526C469.649 3.86781 469.919 4.46646 469.149 4.5042C468.271 4.54964 467.424 4.76355 466.576 4.97787C465.473 5.25623 464.368 5.53529 463.19 5.44674C461.794 5.34144 460.937 5.79984 459.905 6.35184C458.42 7.14639 456.572 8.13482 452.232 7.9152C447.21 7.66051 449.834 4.84168 451.983 4.31926C452.247 4.25435 452.47 3.94943 452.662 3.6873L452.664 3.68471C452.684 3.65764 452.704 3.63106 452.723 3.60524C453.403 2.69519 450.748 2.28137 448.871 1.98878C448.233 1.88947 447.686 1.80411 447.389 1.71805C445.141 1.06639 444.258 1.17464 443.285 1.29393C442.539 1.38544 441.74 1.48344 440.231 1.25008C438.152 0.928513 437.401 1.3981 436.486 1.97044C435.556 2.55263 434.455 3.24112 431.613 3.31136C426.947 3.42421 425.601 3.87462 424.383 4.28191C422.29 4.98231 420.577 5.5552 403.019 4.06461C402.129 3.98877 401.619 3.79378 401.195 3.63174C400.488 3.36127 400.021 3.18263 398.427 3.80336C389.835 7.14158 391.365 7.18412 394.5 7.27132C395.985 7.31263 397.83 7.36395 399.13 7.78022C400.006 8.05883 401.146 7.85635 402.067 7.56467C404.617 6.75494 407.161 6.68969 409.77 7.13592C411.147 7.36996 411.929 7.04244 412.645 6.74305L412.645 6.74275C412.818 6.67054 412.986 6.59995 413.159 6.5393C415.388 5.75375 415.951 9.37049 413.593 9.54772C389.978 11.2914 372.071 10.9633 358.963 10.7231C348.671 10.5346 341.337 10.4002 336.52 11.3652C335.806 11.5089 330.116 12.1663 327.747 10.3226C326.265 9.16862 325.826 9.20055 322.43 9.44758C319.951 9.62782 315.899 9.92255 308.718 9.95469C305.832 9.9677 303.347 9.41085 300.887 8.85925C297.588 8.1199 294.332 7.38996 290.205 8.05442C289.685 8.13706 278.366 7.84211 274.881 7.75129C274.328 7.73685 273.972 7.72758 273.888 7.72579C272.586 7.69451 272.156 8.37672 271.731 9.04913C271.388 9.5933 271.049 10.1311 270.255 10.2791C267.524 10.7933 265.644 10.461 263.182 10.026C262.778 9.95457 262.358 9.88039 261.916 9.80674C261.159 9.68127 261.065 9.48942 260.983 9.32072C260.824 8.99485 260.707 8.75533 255.929 9.24726C251.99 9.65176 250.456 9.38464 249.46 9.21101C248.627 9.06602 248.169 8.98623 246.997 9.41711C244.563 10.3087 243.201 10.2634 240.74 10.1814C238.947 10.1217 236.57 10.0426 232.769 10.2921C230.649 10.4312 228.981 10.5355 227.652 10.6158C223.677 10.8562 223.481 12.8676 227.381 13.6769C229.375 14.0893 229.851 13.8585 230.579 13.5064C231.153 13.2283 231.884 12.8746 233.641 12.7017C234.225 12.6445 234.734 12.5929 235.181 12.5476C237.295 12.3331 238.003 12.2612 238.656 12.4185C238.985 12.4977 239.3 12.6351 239.773 12.8417C240.231 13.0413 240.836 13.3055 241.746 13.6442C242.582 13.9548 247.125 13.9945 252.167 14.0384C260.447 14.1107 270.073 14.1946 266.838 15.5097C265.467 16.0647 254.964 16.9007 250.019 15.71C249.252 15.5272 248.342 15.4575 247.613 15.6882C245.095 16.496 237.979 16.3221 226.325 16.0373C214.865 15.7572 199.017 15.3699 178.839 15.7034C177.693 15.7234 177.581 16.5676 177.457 17.5066C177.283 18.8207 177.084 20.3203 173.993 20.0068C171.752 19.7783 171.358 20.6438 171.031 21.3604L171.031 21.3605C170.947 21.5451 170.868 21.7199 170.762 21.8635C168.686 24.6925 166.979 24.3038 164.574 23.7563C162.613 23.3101 160.19 22.7583 156.725 23.7572C154.666 24.3478 153.781 23.8609 152.807 23.3247C151.792 22.766 150.679 22.1538 148.041 22.6515C142.339 23.7242 136.82 22.8643 132.716 22.2247C130.899 21.9416 129.359 21.7016 128.203 21.6916C126.837 21.6799 125.689 21.4102 124.665 21.0565C120.166 19.5033 115.308 18.5216 110.554 18.7682C108.996 18.848 107.46 18.6051 105.916 18.3611L105.916 18.361C104.47 18.1325 103.019 17.9031 101.538 17.9368C95.9998 18.0579 92.4893 17.3584 89.5174 16.7663L89.5173 16.7663C86.3453 16.1343 83.7868 15.6246 80.0315 16.3651C79.294 16.511 78.3036 16.45 77.7169 16.0626C72.8627 12.823 66.6969 12.9266 60.6169 13.0287H60.6164C58.3662 13.0665 56.1277 13.1041 53.9719 12.9719C52.5948 12.8875 51.3648 12.9413 50.4256 13.2394C50.0133 13.3701 49.6112 13.4859 49.2188 13.5886C42.2221 15.4199 34.6522 15.4885 27.257 15.5555H27.2569C25.0959 15.575 22.9498 15.5945 20.8374 15.6577C13.4714 15.8801 9.91107 15.5776 7.44825 15.3683C5.09025 15.168 3.73837 15.0531 1.01586 15.5663C0.0903035 15.7448 -0.68831 17.8322 0.968048 18.1261C3.44259 18.566 4.62627 18.5238 5.97972 18.4755H5.97978C7.59971 18.4178 9.46289 18.3513 14.0737 19.0925C17.8061 19.6911 21.6297 20.2332 25.4652 19.4648C26.7379 19.2107 27.9579 19.4201 29.1448 19.6239H29.1449C30.8962 19.9245 32.5757 20.2128 34.2467 18.9815C34.488 18.8074 35.0254 18.8379 35.3367 18.9728C37.1872 19.7678 38.3052 19.9238 40.8722 20.282C42.1268 20.4571 43.7275 20.6804 45.9289 21.0503C47.1217 21.2507 47.9166 22.0454 48.7225 22.8512C49.4476 23.5761 50.1815 24.3099 51.2221 24.6279C51.4496 24.6959 51.6724 24.8231 51.892 24.9485C52.2135 25.132 52.5283 25.3116 52.8409 25.2961C54.3666 25.2183 55.8606 25.4354 57.3577 25.6528C58.6258 25.8371 59.8962 26.0216 61.19 26.0276C67.8721 26.0791 74.7572 26.4174 81.3277 27.6352C82.83 27.9137 84.5532 28.3911 86.5974 29.236C87.3514 29.5467 87.7209 29.9339 88.0618 30.2911C88.5115 30.7623 88.9114 31.1813 90.078 31.3039C90.9505 31.3965 91.9965 31.5171 93.1469 31.6497L93.1481 31.6498L93.1485 31.6499C97.0282 32.0972 102.095 32.6815 105.703 32.7906C106.552 32.8169 107.389 32.6353 108.226 32.4538C109.533 32.1703 110.839 31.887 112.187 32.3966C114.008 33.0877 117.178 33.2168 120.126 33.337C123.985 33.4943 127.467 33.6362 127.053 35.0021C126.752 36.0034 125.379 37.4727 124.493 37.0721C123.134 36.4609 121.82 36.7169 120.497 36.9745C119.492 37.1701 118.483 37.3666 117.447 37.1853C115.583 36.8568 113.201 36.9711 110.961 37.0785H110.961C108.482 37.1973 106.178 37.3078 104.947 36.8001C103.893 36.3625 102.512 36.3516 101.362 36.5693C99.2544 36.9723 95.387 36.5694 91.3281 36.1465C87.9115 35.7905 84.3593 35.4204 81.6069 35.505C78.8401 35.5905 78.1329 35.7555 77.6786 35.8615C77.1731 35.9794 76.9806 36.0243 74.6114 35.8053C73.8909 35.7388 73.1348 35.6583 72.3575 35.5756L72.3569 35.5755C67.7403 35.0839 62.3777 34.5129 59.3111 36.3256C56.7162 37.8576 55.3688 36.8438 54.3038 36.0426C53.7755 35.645 53.3166 35.2998 52.8095 35.3438C51.8422 35.4287 51.4542 36.4714 51.9258 36.9068C54.5511 39.3077 56.2965 39.0418 57.8962 38.798C59.0391 38.6239 60.1075 38.4612 61.3692 39.2902C65.7837 42.1968 71.4484 44.5813 76.532 43.1345C76.6813 43.092 76.8257 43.0459 76.9672 43.0006C77.7682 42.7445 78.4773 42.5178 79.4627 43.1539C80.2717 43.6755 81.1528 43.5286 82.0551 43.3781C82.753 43.2617 83.4634 43.1432 84.163 43.3302C85.0458 43.5653 93.1647 44.0659 94.9652 43.9506C95.8599 43.8972 96.7112 44.1224 97.5581 44.3464C98.6445 44.6338 99.7238 44.9193 100.878 44.6123C101.248 44.5143 101.707 44.5274 102.072 44.6493C104.947 45.6067 107.918 45.7216 110.887 45.8364H110.887L110.888 45.8364C112.131 45.8845 113.373 45.9325 114.608 46.0424C118.055 46.3467 121.425 47.0192 124.801 47.6928L125.323 47.7968C127.73 48.2735 127.407 50.5787 126.616 50.6375C123.107 50.9018 119.516 50.4904 115.999 50.0874L115.998 50.0874L115.998 50.0873C115.562 50.0374 115.128 49.9877 114.696 49.9394C110.931 49.5191 110.84 49.587 110.562 49.7931C110.373 49.9334 110.098 50.1377 108.52 50.2957C107.598 50.3883 106.897 50.4646 106.356 50.5236C105.011 50.6702 104.653 50.7092 104.328 50.6232C104.21 50.592 104.097 50.5444 103.943 50.4795C103.575 50.3252 102.975 50.0732 101.531 49.7124C100.938 49.5636 100.25 49.959 99.5675 50.3512C99.0248 50.6632 98.4856 50.9732 98.0004 51.0057C93.1176 51.3334 80.8724 51.5722 80.5169 51.482C77.0498 50.5961 73.9487 52.8468 76.6354 52.9295C80.1209 53.0367 82.3424 52.8795 83.9568 52.7652C86.2422 52.6034 87.3109 52.5278 89.0264 53.4105C89.5142 53.6609 90.2699 53.7218 90.7834 53.5346C92.5098 52.9105 94.1147 53.2871 95.7922 53.6807L96.061 53.7436C97.1027 53.9848 98.4827 54.0577 100.125 54.1446H100.125C101.762 54.2312 103.66 54.3315 105.743 54.6258C106.937 54.7944 108.055 55.2356 109.176 55.6776L109.176 55.6777C110.13 56.054 111.085 56.431 112.09 56.6407C112.711 56.7692 113.046 58.8545 110.168 59.2311C110.053 59.2468 109.937 59.2622 109.822 59.2776C107.745 59.5544 105.729 59.8231 104.24 61.6255C103.408 62.6355 96.3512 60.5915 95.0019 59.8645C93.8248 59.231 92.2708 59.2202 91.1101 60.4784C90.5206 61.1161 89.7666 61.4056 84.6484 60.8506C81.6791 60.5282 80.6829 61.1792 79.8931 61.6954C79.1361 62.19 78.5687 62.5608 76.6354 61.8322C74.2273 60.9227 72.5301 62.2505 70.6652 64.0435C69.6177 65.0506 68.4779 66.0714 67.0387 66.2722C65.5808 66.4756 64.1228 66.1351 62.6655 65.7947L62.6654 65.7947L62.4827 65.7521C61.9298 65.6233 61.6576 65.4946 61.1831 65.1827C59.0661 63.7915 58.163 66.634 60.6664 67.0217C63.1512 67.4066 66.2934 67.7226 69.9855 67.8718C70.7834 67.904 71.5628 68.088 72.2917 68.4143C72.6609 68.5795 73.032 68.7149 73.4105 68.7389C74.1197 68.7809 74.8506 68.6588 75.5788 68.5372C76.8874 68.3186 78.187 68.1014 79.3357 68.8413C80.7186 69.733 86.8801 70.0539 92.9745 70.3713H92.9746C100.876 70.7828 108.664 71.1884 105.781 72.8244C104.153 73.7489 103.523 75.9066 104.918 77.1562C105.406 77.5959 104.821 78.902 103.268 78.9891C103.041 78.9998 102.797 78.9654 102.556 78.9313C102.16 78.8754 101.771 78.8205 101.479 78.9694C99.607 79.9246 99.5556 80.2313 101.649 80.4135C106.002 80.7923 110.813 81.4882 113.019 82.8657C113.504 83.1671 114.396 83.0704 115.401 82.9614C116.168 82.8783 117 82.788 117.77 82.8615C126.979 83.7322 127.122 84.2271 127.464 85.4037C127.685 86.1684 127.991 87.2209 130.922 88.8517C134.523 90.8499 121.844 93.5665 115.212 92.7306C114.217 92.605 113.192 92.7104 112.168 92.8158C111.21 92.9143 110.253 93.0128 109.32 92.9227C107.114 92.7096 104.908 92.4974 102.7 92.2997C101.43 92.1856 101.045 92.2952 100.593 92.424C99.9157 92.6171 99.0867 92.8533 94.8953 92.4432C93.522 92.3076 93.8543 94.0557 95.2142 94.2902C95.6042 94.3575 95.9961 94.4173 96.3881 94.4771L96.3884 94.4771C97.6529 94.67 98.9186 94.863 100.124 95.3078C101.7 95.8868 102.282 95.7648 103.223 95.5675C104.331 95.3353 105.937 94.9988 110.249 95.5778C110.339 95.5897 110.429 95.6013 110.519 95.6124C112.183 95.8173 113.865 96.1676 115.553 96.5192C118.797 97.1949 122.065 97.8753 125.268 97.5383C125.672 97.4957 126.072 97.4476 126.464 97.4004C126.737 97.3675 127.006 97.3351 127.27 97.3054C131.811 96.7943 129.748 100.606 125.178 100.565C121.776 100.534 122.209 102.533 125.596 102.22C127.104 102.081 128.458 101.928 129.415 101.765C130.165 101.637 130.927 101.572 131.681 101.664C133.306 101.862 136.399 102.162 139.238 102.005C139.956 101.965 140.671 101.904 141.385 101.843L141.385 101.843C143.15 101.693 144.907 101.543 146.676 101.715C148.875 101.928 151.392 102.19 152.307 102.285L152.309 102.285L152.639 102.319C153.768 102.443 153.675 103.097 153.574 103.673C153.541 103.867 153.347 104.001 153.156 103.954C153.037 103.925 152.911 103.967 152.833 104.062L152.749 104.165C152.653 104.282 152.511 104.352 152.359 104.364C151.789 104.409 151.38 104.534 151.084 104.71C150.606 104.994 150.209 105.362 149.828 105.717C149.109 106.384 148.446 107 147.404 106.899C145.414 106.707 143.904 106.544 142.728 106.417L142.728 106.417C139.119 106.027 138.663 105.978 137.161 106.479C135.97 106.875 132.394 106.72 128.392 106.547C124.852 106.393 120.979 106.226 118.133 106.412C117.296 106.467 116.792 107.167 116.294 107.859C116.206 107.982 116.118 108.104 116.028 108.223C115.348 109.12 115.142 110.587 116.261 110.714C118.42 110.96 120.609 110.779 122.798 110.558C125.022 110.334 125.973 110.882 126.827 111.375C127.848 111.963 128.729 112.471 131.476 111.481C132.536 111.1 133.868 111.205 135.438 111.42C141.181 112.204 147.033 111.85 152.849 111.499L152.85 111.499C154.266 111.413 155.679 111.328 157.089 111.259C159.217 111.155 161.116 111.021 162.847 110.899C167.075 110.602 170.293 110.376 173.36 110.826C174.892 111.053 176.42 110.905 177.939 110.758C179.238 110.632 180.53 110.506 181.812 110.617C182.824 110.702 183.839 110.876 184.853 111.05C186.638 111.356 188.423 111.663 190.197 111.485C191.465 111.357 208.378 111.05 211.926 111.542C212.824 111.666 212.255 113.286 211.393 113.566C210.595 113.825 209.767 113.916 208.907 113.703C208.224 113.535 207.522 113.523 206.831 113.512C206.115 113.5 205.409 113.488 204.747 113.303C203.792 113.036 202.975 113.397 202.169 113.752C201.33 114.122 200.502 114.487 199.544 114.132C199.431 114.091 198.948 114.646 199.278 114.646C201.552 114.647 203.763 115.078 205.974 115.509C207.109 115.731 208.244 115.952 209.387 116.115C210.099 116.216 210.73 116.312 211.29 116.398C213.729 116.768 214.823 116.934 215.373 116.464C215.821 116.082 215.908 115.278 216.067 113.82C216.088 113.634 216.109 113.438 216.132 113.23C216.141 113.153 216.191 113.083 216.262 113.052C216.291 113.039 216.324 113.033 216.357 113.034C217.066 113.054 217.662 113.06 218.174 113.065C221.103 113.096 221.318 113.098 224.625 115.442C225.735 116.23 226.317 116.257 229.831 116.42C230.928 116.471 232.312 116.535 234.086 116.64C235.28 116.713 235.479 117.349 235.679 117.986C235.889 118.657 236.1 119.33 237.47 119.35C237.484 119.35 237.554 119.356 237.681 119.367L237.681 119.367C238.942 119.474 245.737 120.056 256.683 120.064C258.264 120.065 261.393 121.496 263.121 122.285C263.501 122.459 263.812 122.601 264.025 122.691C266.103 123.565 267.758 123.361 269.816 123.107C271.719 122.873 273.967 122.596 277.211 123.089C277.875 123.191 279.054 124.378 278.689 124.484C278.348 124.585 278.002 124.719 277.655 124.852C276.834 125.168 276.01 125.485 275.246 125.381C269.84 124.63 264.283 125.105 258.75 125.579C255.784 125.833 252.825 126.087 249.9 126.15C247.517 126.202 245.87 126.41 245.761 127.262C245.458 129.667 257.946 129.585 271.403 129.496C282.256 129.425 293.74 129.349 299.653 130.571C300.229 130.688 300.88 130.803 301.43 130.66C303.447 130.142 305.502 130.135 307.557 130.128C309.335 130.122 311.113 130.115 312.867 129.778C313.14 129.726 313.574 130.059 313.799 130.325C314.582 131.246 314.323 132.072 313.481 132.782H630.616ZM137.08 46.9868C137.626 47.5368 137.836 48.3325 137.23 49.0854C137.823 48.3462 137.632 47.545 137.08 46.9868ZM143.504 41.7891C145.011 42.5048 145.468 40.2023 143.892 40.749C143.245 40.9734 142.848 41.4759 143.504 41.7891ZM320.748 130.538C321.331 130.365 320.338 129.484 319.732 129.534C319.032 129.592 319.658 130.522 320.358 130.574C320.497 130.584 320.629 130.574 320.748 130.538Z" fill="#F8F8F8"/>
</svg>
