<svg width="565" height="133" viewBox="0 0 565 133" fill="none" xmlns="http://www.w3.org/2000/svg">
<path fill-rule="evenodd" clip-rule="evenodd" d="M-65.6164 0C-72.0673 3.79905 -77.884 7.93459 -83 12.4364V129.57C-82.7678 129.576 -82.5356 129.581 -82.3033 129.587C-79.6445 129.652 -76.9852 129.718 -74.3373 129.303C-70.5063 128.705 -68.673 130.047 -67.0515 131.234C-65.8654 132.103 -64.7926 132.888 -63.1341 132.771C-59.0156 132.482 -48.8292 132.339 -36.6025 132.167L-36.6007 132.167C-10.0323 131.794 26.1691 131.285 30.6818 128.853C34.941 126.554 43.6562 127.307 52.3311 128.057C57.4329 128.498 62.5208 128.938 66.6802 128.755C68.5375 128.674 73.6055 129.735 76.2397 130.286C77.0894 130.464 77.6858 130.588 77.8397 130.605C81.1122 130.952 82.7005 130.82 83.7643 130.731C84.8951 130.637 85.4334 130.593 86.7722 131.225C89.5212 132.52 92.2701 132.22 95.0823 131.732C96.5103 131.486 96.0535 130.473 95.6629 129.607C95.3506 128.914 95.0805 128.316 95.8509 128.278C96.7285 128.233 97.5756 128.019 98.4242 127.804C99.5265 127.526 100.631 127.247 101.81 127.335C103.206 127.441 104.063 126.982 105.095 126.43C106.58 125.636 108.428 124.647 112.768 124.867C117.79 125.122 115.166 127.941 113.017 128.463C112.753 128.528 112.529 128.833 112.337 129.095L112.335 129.098C112.316 129.125 112.296 129.151 112.277 129.177C111.597 130.087 114.252 130.501 116.129 130.793C116.766 130.893 117.314 130.978 117.611 131.064C119.859 131.716 120.741 131.608 121.714 131.488C122.46 131.397 123.26 131.299 124.768 131.532C126.848 131.854 127.599 131.384 128.513 130.812C129.444 130.23 130.545 129.541 133.387 129.471C138.053 129.358 139.399 128.908 140.616 128.5C142.71 127.8 144.422 127.227 161.981 128.718C162.871 128.793 163.381 128.988 163.805 129.15C164.512 129.421 164.979 129.6 166.573 128.979C175.165 125.641 173.635 125.598 170.5 125.511C169.015 125.47 167.17 125.418 165.87 125.002C164.994 124.723 163.854 124.926 162.933 125.218C160.383 126.027 157.839 126.093 155.23 125.646C153.853 125.412 153.07 125.74 152.355 126.039L152.354 126.039C152.182 126.112 152.013 126.182 151.841 126.243C149.611 127.028 149.049 123.412 151.406 123.235C175.022 121.491 192.928 121.819 206.037 122.059C216.329 122.248 223.663 122.382 228.48 121.417C229.194 121.273 234.884 120.616 237.253 122.46C238.735 123.614 239.174 123.582 242.57 123.335C245.048 123.154 249.101 122.86 256.281 122.828C259.168 122.815 261.652 123.371 264.113 123.923C267.412 124.662 270.668 125.392 274.795 124.728C275.315 124.645 286.633 124.94 290.119 125.031C290.672 125.045 291.028 125.055 291.112 125.056C292.414 125.088 292.844 124.406 293.268 123.733C293.612 123.189 293.951 122.651 294.745 122.503C297.476 121.989 299.356 122.321 301.818 122.756C302.222 122.828 302.642 122.902 303.083 122.975C303.841 123.101 303.935 123.293 304.017 123.462C304.176 123.787 304.293 124.027 309.07 123.535C313.01 123.13 314.544 123.398 315.54 123.571C316.372 123.716 316.831 123.796 318.003 123.365C320.437 122.474 321.798 122.519 324.26 122.601C326.053 122.66 328.43 122.74 332.23 122.49C334.35 122.351 336.019 122.247 337.347 122.166C341.323 121.926 341.519 119.915 337.619 119.105C335.625 118.693 335.149 118.924 334.421 119.276C333.847 119.554 333.116 119.908 331.359 120.08C330.775 120.138 330.266 120.189 329.819 120.235C327.705 120.449 326.997 120.521 326.344 120.364C326.015 120.284 325.7 120.147 325.227 119.941C324.769 119.741 324.164 119.477 323.254 119.138C322.418 118.827 317.875 118.788 312.833 118.744C304.553 118.672 294.927 118.588 298.162 117.273C299.533 116.718 310.036 115.882 314.981 117.072C315.747 117.255 316.658 117.325 317.387 117.094C319.905 116.286 327.021 116.46 338.674 116.745C350.134 117.025 365.982 117.412 386.161 117.079C387.307 117.059 387.419 116.215 387.543 115.276C387.717 113.962 387.916 112.462 391.006 112.775C393.247 113.004 393.642 112.138 393.968 111.422L393.968 111.422C394.053 111.237 394.132 111.062 394.238 110.919C396.314 108.09 398.021 108.478 400.426 109.026C402.386 109.472 404.81 110.024 408.275 109.025C410.333 108.434 411.218 108.921 412.193 109.458C413.208 110.016 414.32 110.628 416.959 110.131C422.661 109.058 428.179 109.918 432.284 110.558C434.101 110.841 435.641 111.081 436.797 111.091C438.162 111.102 439.31 111.372 440.335 111.726C444.834 113.279 449.692 114.261 454.445 114.014C456.004 113.934 457.54 114.177 459.084 114.421L459.084 114.421C460.53 114.65 461.981 114.879 463.462 114.845C469 114.724 472.51 115.424 475.482 116.016L475.482 116.016C478.654 116.648 481.213 117.158 484.968 116.417C485.706 116.271 486.696 116.332 487.283 116.72C492.137 119.959 498.303 119.856 504.383 119.754H504.383C506.634 119.716 508.872 119.678 511.028 119.81C512.405 119.895 513.635 119.841 514.574 119.543C514.986 119.412 515.389 119.296 515.781 119.194C522.778 117.362 530.348 117.294 537.743 117.227H537.743C539.904 117.207 542.05 117.188 544.162 117.125C551.528 116.902 555.089 117.205 557.552 117.414C559.91 117.614 561.261 117.729 563.984 117.216C564.909 117.037 565.688 114.95 564.032 114.656C561.557 114.216 560.373 114.258 559.02 114.307H559.02C557.4 114.364 555.537 114.431 550.926 113.69C547.194 113.091 543.37 112.549 539.535 113.317C538.262 113.572 537.042 113.362 535.855 113.158H535.855C534.104 112.858 532.424 112.569 530.753 113.801C530.512 113.975 529.974 113.944 529.663 113.809C527.813 113.014 526.695 112.858 524.128 112.5C522.873 112.325 521.272 112.102 519.071 111.732C517.878 111.532 517.083 110.737 516.277 109.931C515.552 109.206 514.818 108.472 513.778 108.154C513.55 108.086 513.327 107.959 513.108 107.834C512.786 107.65 512.471 107.471 512.159 107.486C510.633 107.564 509.139 107.347 507.642 107.129C506.374 106.945 505.104 106.761 503.81 106.755C497.128 106.703 490.243 106.365 483.672 105.147C482.17 104.869 480.447 104.391 478.402 103.546C477.648 103.236 477.279 102.848 476.938 102.491C476.488 102.02 476.088 101.601 474.922 101.478C474.049 101.386 473.003 101.265 471.853 101.133L471.852 101.132L471.851 101.132C467.972 100.685 462.904 100.101 459.296 99.9917C458.448 99.9653 457.611 100.147 456.774 100.328C455.467 100.612 454.161 100.895 452.813 100.386C450.991 99.6946 447.822 99.5654 444.873 99.4452C441.014 99.2879 437.533 99.146 437.947 97.7801C438.248 96.7788 439.621 95.3096 440.507 95.7101C441.866 96.3214 443.18 96.0653 444.503 95.8077C445.507 95.6121 446.516 95.4156 447.553 95.5969C449.417 95.9254 451.799 95.8112 454.039 95.7038H454.039C456.518 95.5849 458.822 95.4744 460.053 95.9822C461.106 96.4197 462.487 96.4306 463.638 96.2129C465.745 95.8099 469.613 96.2128 473.672 96.6357C477.088 96.9917 480.64 97.3618 483.393 97.2772C486.16 97.1917 486.867 97.0267 487.321 96.9208C487.827 96.8028 488.019 96.7579 490.388 96.9769C491.109 97.0434 491.865 97.1239 492.642 97.2066L492.643 97.2067C497.259 97.6983 502.622 98.2693 505.689 96.4566C508.284 94.9247 509.631 95.9384 510.696 96.7397C511.224 97.1372 511.683 97.4824 512.19 97.4384C513.158 97.3535 513.546 96.3108 513.074 95.8755C510.449 93.4745 508.703 93.7405 507.104 93.9842C505.961 94.1583 504.892 94.3211 503.631 93.492C499.216 90.5854 493.551 88.2009 488.468 89.6477C488.318 89.6902 488.174 89.7364 488.033 89.7816C487.232 90.0377 486.522 90.2645 485.537 89.6284C484.728 89.1067 483.847 89.2537 482.945 89.4042C482.247 89.5205 481.536 89.639 480.837 89.452C479.954 89.217 471.835 88.7163 470.035 88.8317C469.14 88.8851 468.289 88.6599 467.442 88.4358C466.355 88.1484 465.276 87.8629 464.121 88.1699C463.752 88.2679 463.292 88.2548 462.928 88.1329C460.053 87.1755 457.081 87.0606 454.113 86.9458H454.112L454.112 86.9458C452.869 86.8977 451.627 86.8497 450.392 86.7399C446.945 86.4356 443.575 85.7631 440.198 85.0894L439.677 84.9854C437.27 84.5087 437.593 82.2035 438.384 82.1448C441.893 81.8804 445.484 82.2919 449.001 82.6948L449.001 82.6949L449.002 82.6949C449.437 82.7448 449.871 82.7945 450.304 82.8429C454.068 83.2631 454.16 83.1952 454.437 82.9891C454.626 82.8488 454.901 82.6445 456.479 82.4866C457.402 82.394 458.102 82.3176 458.643 82.2586C459.989 82.112 460.347 82.073 460.672 82.159C460.789 82.1902 460.903 82.2378 461.057 82.3027C461.425 82.457 462.024 82.709 463.469 83.0699C464.062 83.2186 464.75 82.8232 465.432 82.431C465.975 82.119 466.514 81.8091 466.999 81.7765C471.882 81.4488 484.127 81.21 484.483 81.3002C487.95 82.1861 491.051 79.9354 488.364 79.8527C484.879 79.7455 482.657 79.9027 481.043 80.017C478.758 80.1788 477.689 80.2544 475.973 79.3717C475.486 79.1214 474.73 79.0605 474.216 79.2477C472.49 79.8718 470.885 79.4952 469.208 79.1015L468.939 79.0386C467.897 78.7975 466.517 78.7245 464.875 78.6376H464.874C463.238 78.5511 461.34 78.4507 459.257 78.1564C458.063 77.9879 456.945 77.5466 455.824 77.1046L455.824 77.1046C454.87 76.7282 453.914 76.3512 452.91 76.1415C452.289 76.0131 451.954 73.9277 454.832 73.5511C454.947 73.5354 455.063 73.52 455.178 73.5047C457.255 73.2278 459.271 72.9591 460.759 71.1567C461.592 70.1467 468.649 72.1907 469.998 72.9178C471.175 73.5512 472.729 73.562 473.89 72.3039C474.479 71.6661 475.233 71.3766 480.351 71.9317C483.321 72.254 484.317 71.603 485.107 71.0869C485.864 70.5922 486.431 70.2214 488.364 70.95C490.772 71.8595 492.47 70.5317 494.335 68.7388C495.382 67.7316 496.522 66.7109 497.961 66.51C499.419 66.3066 500.877 66.6471 502.334 66.9875L502.334 66.9875L502.517 67.0301C503.07 67.1589 503.342 67.2877 503.817 67.5995C505.934 68.9907 506.837 66.1482 504.333 65.7605C501.849 65.3756 498.706 65.0596 495.014 64.9105C494.216 64.8782 493.437 64.6942 492.708 64.368C492.339 64.2027 491.968 64.0674 491.589 64.0433C490.88 64.0013 490.149 64.1234 489.421 64.245C488.112 64.4637 486.813 64.6808 485.664 63.941C484.281 63.0492 478.12 62.7283 472.025 62.4109H472.025C464.124 61.9994 456.336 61.5938 459.218 59.9578C460.847 59.0333 461.477 56.8756 460.082 55.626C459.594 55.1863 460.179 53.8802 461.732 53.7931C461.959 53.7824 462.203 53.8169 462.444 53.8509C462.84 53.9068 463.229 53.9617 463.521 53.8128C465.393 52.8576 465.444 52.551 463.351 52.3688C458.998 51.9899 454.187 51.294 451.98 49.9165C451.495 49.6152 450.604 49.7118 449.599 49.8208C448.832 49.9039 447.999 49.9942 447.23 49.9208C438.021 49.05 437.878 48.5551 437.536 47.3785C437.314 46.6139 437.009 45.5613 434.078 43.9306C430.477 41.9323 443.155 39.2157 449.788 40.0516C450.783 40.1772 451.808 40.0718 452.832 39.9664C453.79 39.8679 454.747 39.7694 455.68 39.8595C457.886 40.0727 460.092 40.2848 462.3 40.4826C463.57 40.5967 463.954 40.4871 464.406 40.3583C465.084 40.1652 465.913 39.929 470.104 40.339C471.478 40.4746 471.145 38.7265 469.786 38.492C469.396 38.4247 469.004 38.365 468.612 38.3052L468.611 38.3051C467.347 38.1123 466.081 37.9192 464.876 37.4744C463.3 36.8955 462.718 37.0174 461.776 37.2147C460.668 37.4469 459.062 37.7834 454.751 37.2044C454.661 37.1925 454.57 37.181 454.48 37.1699C452.817 36.9649 451.135 36.6146 449.447 36.263C446.202 35.5873 442.935 34.9069 439.732 35.244C439.327 35.2865 438.928 35.3347 438.536 35.3819C438.263 35.4148 437.994 35.4472 437.73 35.4768C433.189 35.988 435.252 32.1761 439.822 32.2177C443.223 32.2487 442.791 30.2494 439.404 30.562C437.896 30.7012 436.542 30.8545 435.585 31.0173C434.835 31.1447 434.073 31.2105 433.318 31.1185C431.694 30.9203 428.6 30.6198 425.762 30.7773C425.044 30.8171 424.329 30.8781 423.615 30.939L423.615 30.939C421.85 31.0894 420.093 31.2392 418.323 31.0675C416.125 30.8542 413.608 30.5927 412.693 30.4976L412.691 30.4975L412.36 30.4632C411.231 30.3388 411.325 29.6856 411.425 29.1089C411.459 28.9156 411.653 28.7816 411.843 28.8284C411.963 28.8577 412.089 28.8156 412.167 28.7202L412.251 28.6174C412.347 28.4998 412.489 28.4305 412.641 28.4184C413.21 28.3732 413.62 28.2486 413.916 28.0725C414.394 27.7885 414.791 27.4198 415.172 27.0656C415.891 26.3982 416.554 25.7824 417.596 25.883C419.586 26.075 421.096 26.2382 422.272 26.3652L422.272 26.3652C425.881 26.755 426.337 26.8043 427.839 26.3035C429.029 25.9074 432.606 26.0623 436.607 26.2356C440.148 26.3889 444.021 26.5567 446.867 26.3698C447.703 26.3148 448.207 25.6151 448.705 24.9233C448.794 24.8006 448.882 24.6781 448.972 24.5596C449.652 23.662 449.858 22.1951 448.739 22.068C446.58 21.8226 444.391 22.0028 442.202 22.2244C439.978 22.4484 439.026 21.8998 438.172 21.4077C437.152 20.8194 436.271 20.3117 433.524 21.3014C432.464 21.682 431.132 21.5769 429.562 21.3625C423.818 20.578 417.966 20.9319 412.15 21.2836L412.15 21.2836C410.734 21.3692 409.32 21.4547 407.911 21.5236C405.783 21.6276 403.883 21.7612 402.153 21.8829C397.925 22.1803 394.707 22.4066 391.639 21.9566C390.108 21.7289 388.58 21.8772 387.06 22.0246C385.762 22.1506 384.47 22.2759 383.187 22.1656C382.175 22.0804 381.161 21.9063 380.147 21.7322C378.362 21.4258 376.577 21.1194 374.803 21.297C373.534 21.4255 356.621 21.7324 353.073 21.2405C352.175 21.1161 352.745 19.4958 353.607 19.2159C354.404 18.9572 355.233 18.8662 356.093 19.079C356.776 19.2468 357.478 19.2587 358.169 19.2705C358.885 19.2826 359.59 19.2946 360.253 19.4796C361.207 19.746 362.024 19.3856 362.83 19.0302C363.67 18.6598 364.497 18.2948 365.456 18.6502C365.569 18.6916 366.052 18.1365 365.722 18.1365C363.448 18.1351 361.237 17.7041 359.026 17.273C357.891 17.0517 356.756 16.8304 355.613 16.6673C354.901 16.5658 354.27 16.4698 353.709 16.3847C351.271 16.0141 350.177 15.8478 349.627 16.3179C349.179 16.7004 349.091 17.5042 348.932 18.962C348.912 19.1479 348.891 19.3446 348.867 19.5523C348.859 19.6294 348.809 19.6989 348.738 19.7299C348.709 19.7428 348.675 19.7489 348.643 19.748C347.934 19.7283 347.338 19.7222 346.825 19.7169C343.897 19.6866 343.682 19.6844 340.374 17.3398C339.265 16.552 338.682 16.525 335.169 16.3622C334.071 16.3114 332.688 16.2473 330.914 16.1426C329.72 16.0695 329.521 15.4334 329.321 14.7959C329.11 14.1251 328.9 13.4527 327.529 13.4326C327.516 13.4324 327.445 13.4264 327.319 13.4156L327.318 13.4155C326.058 13.3077 319.262 12.7266 308.317 12.7187C306.736 12.7169 303.606 11.2866 301.878 10.4969C301.499 10.3235 301.187 10.1811 300.974 10.0913C298.897 9.21711 297.242 9.42118 295.184 9.67493C293.281 9.90957 291.033 10.1867 287.788 9.69309C287.125 9.59079 285.946 8.40444 286.31 8.29778C286.651 8.19678 286.998 8.06343 287.345 7.92979C288.165 7.61415 288.99 7.29697 289.754 7.40096C295.16 8.15269 300.717 7.67685 306.25 7.20305C309.215 6.94906 312.175 6.69566 315.1 6.63228C317.482 6.58065 319.13 6.3719 319.239 5.52025C319.542 3.11515 307.054 3.19742 293.596 3.28607C282.743 3.35756 271.26 3.43321 265.347 2.21172C264.771 2.09417 264.12 1.97877 263.57 2.12243C261.553 2.64054 259.498 2.64758 257.443 2.65461C255.665 2.6607 253.886 2.66679 252.133 3.00406C251.86 3.0563 251.425 2.72322 251.201 2.45766C250.418 1.53651 250.676 0.709863 251.519 0H-65.6164ZM427.919 85.7954C427.374 85.2455 427.164 84.4497 427.77 83.6968C427.177 84.4361 427.368 85.2372 427.919 85.7954ZM421.496 90.9932C419.989 90.2775 419.531 92.5799 421.108 92.0332C421.754 91.8089 422.152 91.3063 421.496 90.9932ZM244.252 2.24408C243.669 2.41734 244.662 3.29836 245.268 3.248C245.968 3.18987 245.342 2.2607 244.642 2.20854C244.502 2.19817 244.371 2.20866 244.252 2.24408Z" fill="#F8F8F8"/>
</svg>
