<svg width="327" height="133" viewBox="0 0 327 133" fill="none" xmlns="http://www.w3.org/2000/svg">
<path fill-rule="evenodd" clip-rule="evenodd" d="M630.616 0C637.067 3.79905 642.884 7.93459 648 12.4364V129.57C647.768 129.576 647.535 129.581 647.303 129.587C644.644 129.652 641.985 129.718 639.337 129.303C635.506 128.705 633.673 130.047 632.051 131.234C630.865 132.103 629.792 132.888 628.134 132.771C624.015 132.482 613.829 132.339 601.602 132.167L601.6 132.167C575.032 131.794 538.831 131.285 534.318 128.853C530.059 126.554 521.344 127.307 512.669 128.057C507.567 128.498 502.479 128.938 498.32 128.755C496.462 128.674 491.394 129.735 488.76 130.286C487.91 130.464 487.314 130.588 487.16 130.605C483.888 130.952 482.299 130.82 481.235 130.731C480.105 130.637 479.566 130.593 478.228 131.225C475.479 132.52 472.73 132.22 469.917 131.732C468.49 131.486 468.946 130.473 469.337 129.607C469.649 128.914 469.919 128.316 469.149 128.278C468.271 128.233 467.424 128.019 466.576 127.804C465.473 127.526 464.368 127.247 463.19 127.335C461.794 127.441 460.937 126.982 459.905 126.43C458.42 125.636 456.572 124.647 452.232 124.867C447.21 125.122 449.834 127.941 451.983 128.463C452.247 128.528 452.47 128.833 452.662 129.095L452.664 129.098C452.684 129.125 452.704 129.151 452.723 129.177C453.403 130.087 450.748 130.501 448.871 130.793C448.233 130.893 447.686 130.978 447.389 131.064C445.141 131.716 444.258 131.608 443.285 131.488C442.539 131.397 441.74 131.299 440.231 131.532C438.152 131.854 437.401 131.384 436.486 130.812C435.556 130.23 434.455 129.541 431.613 129.471C426.947 129.358 425.601 128.908 424.383 128.5C422.29 127.8 420.577 127.227 403.019 128.718C402.129 128.793 401.619 128.988 401.195 129.15C400.488 129.421 400.021 129.6 398.427 128.979C389.835 125.641 391.365 125.598 394.5 125.511C395.985 125.47 397.83 125.418 399.13 125.002C400.006 124.723 401.146 124.926 402.067 125.218C404.617 126.027 407.161 126.093 409.77 125.646C411.147 125.412 411.929 125.74 412.645 126.039L412.645 126.039C412.818 126.112 412.986 126.182 413.159 126.243C415.388 127.028 415.951 123.412 413.593 123.235C389.978 121.491 372.071 121.819 358.963 122.059C348.671 122.248 341.337 122.382 336.52 121.417C335.806 121.273 330.116 120.616 327.747 122.46C326.265 123.614 325.826 123.582 322.43 123.335C319.951 123.154 315.899 122.86 308.718 122.828C305.832 122.815 303.347 123.371 300.887 123.923C297.588 124.662 294.332 125.392 290.205 124.728C289.685 124.645 278.366 124.94 274.881 125.031C274.328 125.045 273.972 125.055 273.888 125.056C272.586 125.088 272.156 124.406 271.731 123.733C271.388 123.189 271.049 122.651 270.255 122.503C267.524 121.989 265.644 122.321 263.182 122.756C262.778 122.828 262.358 122.902 261.916 122.975C261.159 123.101 261.065 123.293 260.983 123.462C260.824 123.787 260.707 124.027 255.929 123.535C251.99 123.13 250.456 123.398 249.46 123.571C248.627 123.716 248.169 123.796 246.997 123.365C244.563 122.474 243.201 122.519 240.74 122.601C238.947 122.66 236.57 122.74 232.769 122.49C230.649 122.351 228.981 122.247 227.652 122.166C223.677 121.926 223.481 119.915 227.381 119.105C229.375 118.693 229.851 118.924 230.579 119.276C231.153 119.554 231.884 119.908 233.641 120.08C234.225 120.138 234.734 120.189 235.181 120.235C237.295 120.449 238.003 120.521 238.656 120.364C238.985 120.284 239.3 120.147 239.773 119.941C240.231 119.741 240.836 119.477 241.746 119.138C242.582 118.827 247.125 118.788 252.167 118.744C260.447 118.672 270.073 118.588 266.838 117.273C265.467 116.718 254.964 115.882 250.019 117.072C249.252 117.255 248.342 117.325 247.613 117.094C245.095 116.286 237.979 116.46 226.325 116.745C214.865 117.025 199.017 117.412 178.839 117.079C177.693 117.059 177.581 116.215 177.457 115.276C177.283 113.962 177.084 112.462 173.993 112.775C171.752 113.004 171.358 112.138 171.031 111.422L171.031 111.422C170.947 111.237 170.868 111.062 170.762 110.919C168.686 108.09 166.979 108.478 164.574 109.026C162.613 109.472 160.19 110.024 156.725 109.025C154.666 108.434 153.781 108.921 152.807 109.458C151.792 110.016 150.679 110.628 148.041 110.131C142.339 109.058 136.82 109.918 132.716 110.558C130.899 110.841 129.359 111.081 128.203 111.091C126.837 111.102 125.689 111.372 124.665 111.726C120.166 113.279 115.308 114.261 110.554 114.014C108.996 113.934 107.46 114.177 105.916 114.421L105.916 114.421C104.47 114.65 103.019 114.879 101.538 114.845C95.9998 114.724 92.4893 115.424 89.5174 116.016L89.5173 116.016C86.3453 116.648 83.7868 117.158 80.0315 116.417C79.294 116.271 78.3036 116.332 77.7169 116.72C72.8627 119.959 66.6969 119.856 60.6169 119.754H60.6164C58.3662 119.716 56.1277 119.678 53.9719 119.81C52.5948 119.895 51.3648 119.841 50.4256 119.543C50.0133 119.412 49.6112 119.296 49.2188 119.194C42.2221 117.362 34.6522 117.294 27.257 117.227H27.2569C25.0959 117.207 22.9498 117.188 20.8374 117.125C13.4714 116.902 9.91107 117.205 7.44825 117.414C5.09025 117.614 3.73837 117.729 1.01586 117.216C0.0903035 117.037 -0.68831 114.95 0.968048 114.656C3.44259 114.216 4.62627 114.258 5.97972 114.307H5.97978C7.59971 114.364 9.46289 114.431 14.0737 113.69C17.8061 113.091 21.6297 112.549 25.4652 113.317C26.7379 113.572 27.9579 113.362 29.1448 113.158H29.1449C30.8962 112.858 32.5757 112.569 34.2467 113.801C34.488 113.975 35.0254 113.944 35.3367 113.809C37.1872 113.014 38.3052 112.858 40.8722 112.5C42.1268 112.325 43.7275 112.102 45.9289 111.732C47.1217 111.532 47.9166 110.737 48.7225 109.931C49.4476 109.206 50.1815 108.472 51.2221 108.154C51.4496 108.086 51.6724 107.959 51.892 107.834C52.2135 107.65 52.5283 107.471 52.8409 107.486C54.3666 107.564 55.8606 107.347 57.3577 107.129C58.6258 106.945 59.8962 106.761 61.19 106.755C67.8721 106.703 74.7572 106.365 81.3277 105.147C82.83 104.869 84.5532 104.391 86.5974 103.546C87.3514 103.236 87.7209 102.848 88.0618 102.491C88.5115 102.02 88.9114 101.601 90.078 101.478C90.9505 101.386 91.9965 101.265 93.1469 101.133L93.1481 101.132L93.1485 101.132C97.0282 100.685 102.095 100.101 105.703 99.9917C106.552 99.9653 107.389 100.147 108.226 100.328C109.533 100.612 110.839 100.895 112.187 100.386C114.008 99.6946 117.178 99.5654 120.126 99.4452C123.985 99.2879 127.467 99.146 127.053 97.7801C126.752 96.7788 125.379 95.3096 124.493 95.7101C123.134 96.3214 121.82 96.0653 120.497 95.8077C119.492 95.6121 118.483 95.4156 117.447 95.5969C115.583 95.9254 113.201 95.8112 110.961 95.7038H110.961C108.482 95.5849 106.178 95.4744 104.947 95.9822C103.893 96.4197 102.512 96.4306 101.362 96.2129C99.2544 95.8099 95.387 96.2128 91.3281 96.6357C87.9115 96.9917 84.3593 97.3618 81.6069 97.2772C78.8401 97.1917 78.1329 97.0267 77.6786 96.9208C77.1731 96.8028 76.9806 96.7579 74.6114 96.9769C73.8909 97.0434 73.1348 97.1239 72.3575 97.2066L72.3569 97.2067C67.7403 97.6983 62.3777 98.2693 59.3111 96.4566C56.7162 94.9247 55.3688 95.9384 54.3038 96.7397C53.7755 97.1372 53.3166 97.4824 52.8095 97.4384C51.8422 97.3535 51.4542 96.3108 51.9258 95.8755C54.5511 93.4745 56.2965 93.7405 57.8962 93.9842C59.0391 94.1583 60.1075 94.3211 61.3692 93.492C65.7837 90.5854 71.4484 88.2009 76.532 89.6477C76.6813 89.6902 76.8257 89.7364 76.9672 89.7816C77.7682 90.0377 78.4773 90.2645 79.4627 89.6284C80.2717 89.1067 81.1528 89.2537 82.0551 89.4042C82.753 89.5205 83.4634 89.639 84.163 89.452C85.0458 89.217 93.1647 88.7163 94.9652 88.8317C95.8599 88.8851 96.7112 88.6599 97.5581 88.4358C98.6445 88.1484 99.7238 87.8629 100.878 88.1699C101.248 88.2679 101.707 88.2548 102.072 88.1329C104.947 87.1755 107.918 87.0606 110.887 86.9458H110.887L110.888 86.9458C112.131 86.8977 113.373 86.8497 114.608 86.7399C118.055 86.4356 121.425 85.7631 124.801 85.0894L125.323 84.9854C127.73 84.5087 127.407 82.2035 126.616 82.1448C123.107 81.8804 119.516 82.2919 115.999 82.6948L115.998 82.6949L115.998 82.6949C115.562 82.7448 115.128 82.7945 114.696 82.8429C110.931 83.2631 110.84 83.1952 110.562 82.9891C110.373 82.8488 110.098 82.6445 108.52 82.4866C107.598 82.394 106.897 82.3176 106.356 82.2586C105.011 82.112 104.653 82.073 104.328 82.159C104.21 82.1902 104.097 82.2378 103.943 82.3027C103.575 82.457 102.975 82.709 101.531 83.0699C100.938 83.2186 100.25 82.8232 99.5675 82.431C99.0248 82.119 98.4856 81.8091 98.0004 81.7765C93.1176 81.4488 80.8724 81.21 80.5169 81.3002C77.0498 82.1861 73.9487 79.9354 76.6354 79.8527C80.1209 79.7455 82.3424 79.9027 83.9568 80.017C86.2422 80.1788 87.3109 80.2544 89.0264 79.3717C89.5142 79.1214 90.2699 79.0605 90.7834 79.2477C92.5098 79.8718 94.1147 79.4952 95.7922 79.1015L96.061 79.0386C97.1027 78.7975 98.4827 78.7245 100.125 78.6376H100.125C101.762 78.5511 103.66 78.4507 105.743 78.1564C106.937 77.9879 108.055 77.5466 109.176 77.1046L109.176 77.1046C110.13 76.7282 111.085 76.3512 112.09 76.1415C112.711 76.0131 113.046 73.9277 110.168 73.5511C110.053 73.5354 109.937 73.52 109.822 73.5047C107.745 73.2278 105.729 72.9591 104.24 71.1567C103.408 70.1467 96.3512 72.1907 95.0019 72.9178C93.8248 73.5512 92.2708 73.562 91.1101 72.3039C90.5206 71.6661 89.7666 71.3766 84.6484 71.9317C81.6791 72.254 80.6829 71.603 79.8931 71.0869C79.1361 70.5922 78.5687 70.2214 76.6354 70.95C74.2273 71.8595 72.5301 70.5317 70.6652 68.7388C69.6177 67.7316 68.4779 66.7109 67.0387 66.51C65.5808 66.3066 64.1228 66.6471 62.6655 66.9875L62.6654 66.9875L62.4827 67.0301C61.9298 67.1589 61.6576 67.2877 61.1831 67.5995C59.0661 68.9907 58.163 66.1482 60.6664 65.7605C63.1512 65.3756 66.2934 65.0596 69.9855 64.9105C70.7834 64.8782 71.5628 64.6942 72.2917 64.368C72.6609 64.2027 73.032 64.0674 73.4105 64.0433C74.1197 64.0013 74.8506 64.1234 75.5788 64.245C76.8874 64.4637 78.187 64.6808 79.3357 63.941C80.7186 63.0492 86.8801 62.7283 92.9745 62.4109H92.9746C100.876 61.9994 108.664 61.5938 105.781 59.9578C104.153 59.0333 103.523 56.8756 104.918 55.626C105.406 55.1863 104.821 53.8802 103.268 53.7931C103.041 53.7824 102.797 53.8169 102.556 53.8509C102.16 53.9068 101.771 53.9617 101.479 53.8128C99.607 52.8576 99.5556 52.551 101.649 52.3688C106.002 51.9899 110.813 51.294 113.019 49.9165C113.504 49.6152 114.396 49.7118 115.401 49.8208C116.168 49.9039 117 49.9942 117.77 49.9208C126.979 49.05 127.122 48.5551 127.464 47.3785C127.685 46.6139 127.991 45.5613 130.922 43.9306C134.523 41.9323 121.844 39.2157 115.212 40.0516C114.217 40.1772 113.192 40.0718 112.168 39.9664C111.21 39.8679 110.253 39.7694 109.32 39.8595C107.114 40.0727 104.908 40.2848 102.7 40.4826C101.43 40.5967 101.045 40.4871 100.593 40.3583C99.9157 40.1652 99.0867 39.929 94.8953 40.339C93.522 40.4746 93.8543 38.7265 95.2142 38.492C95.6042 38.4247 95.9961 38.365 96.3881 38.3052L96.3884 38.3051C97.6529 38.1123 98.9186 37.9192 100.124 37.4744C101.7 36.8955 102.282 37.0174 103.223 37.2147C104.331 37.4469 105.937 37.7834 110.249 37.2044C110.339 37.1925 110.429 37.181 110.519 37.1699C112.183 36.9649 113.865 36.6146 115.553 36.263C118.797 35.5873 122.065 34.9069 125.268 35.244C125.672 35.2865 126.072 35.3347 126.464 35.3819C126.737 35.4148 127.006 35.4472 127.27 35.4768C131.811 35.988 129.748 32.1761 125.178 32.2177C121.776 32.2487 122.209 30.2494 125.596 30.562C127.104 30.7012 128.458 30.8545 129.415 31.0173C130.165 31.1447 130.927 31.2105 131.681 31.1185C133.306 30.9203 136.399 30.6198 139.238 30.7773C139.956 30.8171 140.671 30.8781 141.385 30.939L141.385 30.939C143.15 31.0894 144.907 31.2392 146.676 31.0675C148.875 30.8542 151.392 30.5927 152.307 30.4976L152.309 30.4975L152.639 30.4632C153.768 30.3388 153.675 29.6856 153.574 29.1089C153.541 28.9156 153.347 28.7816 153.156 28.8284C153.037 28.8577 152.911 28.8156 152.833 28.7202L152.749 28.6174C152.653 28.4998 152.511 28.4305 152.359 28.4184C151.789 28.3732 151.38 28.2486 151.084 28.0725C150.606 27.7885 150.209 27.4198 149.828 27.0656C149.109 26.3982 148.446 25.7824 147.404 25.883C145.414 26.075 143.904 26.2382 142.728 26.3652L142.728 26.3652C139.119 26.755 138.663 26.8043 137.161 26.3035C135.97 25.9074 132.394 26.0623 128.392 26.2356C124.852 26.3889 120.979 26.5567 118.133 26.3698C117.296 26.3148 116.792 25.6151 116.294 24.9233C116.206 24.8006 116.118 24.6781 116.028 24.5596C115.348 23.662 115.142 22.1951 116.261 22.068C118.42 21.8226 120.609 22.0028 122.798 22.2244C125.022 22.4484 125.973 21.8998 126.827 21.4077C127.848 20.8194 128.729 20.3117 131.476 21.3014C132.536 21.682 133.868 21.5769 135.438 21.3625C141.181 20.578 147.033 20.9319 152.849 21.2836L152.85 21.2836C154.266 21.3692 155.679 21.4547 157.089 21.5236C159.217 21.6276 161.116 21.7612 162.847 21.8829C167.075 22.1803 170.293 22.4066 173.36 21.9566C174.892 21.7289 176.42 21.8772 177.939 22.0246C179.238 22.1506 180.53 22.2759 181.812 22.1656C182.824 22.0804 183.839 21.9063 184.853 21.7322C186.638 21.4258 188.423 21.1194 190.197 21.297C191.465 21.4255 208.378 21.7324 211.926 21.2405C212.824 21.1161 212.255 19.4958 211.393 19.2159C210.595 18.9572 209.767 18.8662 208.907 19.079C208.224 19.2468 207.522 19.2587 206.831 19.2705C206.115 19.2826 205.409 19.2946 204.747 19.4796C203.792 19.746 202.975 19.3856 202.169 19.0302C201.33 18.6598 200.502 18.2948 199.544 18.6502C199.431 18.6916 198.948 18.1365 199.278 18.1365C201.552 18.1351 203.763 17.7041 205.974 17.273C207.109 17.0517 208.244 16.8304 209.387 16.6673C210.099 16.5658 210.73 16.4698 211.29 16.3847C213.729 16.0141 214.823 15.8478 215.373 16.3179C215.821 16.7004 215.908 17.5042 216.067 18.962C216.088 19.1479 216.109 19.3446 216.132 19.5523C216.141 19.6294 216.191 19.6989 216.262 19.7299C216.291 19.7428 216.324 19.7489 216.357 19.748C217.066 19.7283 217.662 19.7222 218.174 19.7169C221.103 19.6866 221.318 19.6844 224.625 17.3398C225.735 16.552 226.317 16.525 229.831 16.3622C230.928 16.3114 232.312 16.2473 234.086 16.1426C235.28 16.0695 235.479 15.4334 235.679 14.7959C235.889 14.1251 236.1 13.4527 237.47 13.4326C237.484 13.4324 237.554 13.4264 237.681 13.4156L237.681 13.4155C238.942 13.3077 245.737 12.7266 256.683 12.7187C258.264 12.7169 261.393 11.2866 263.121 10.4969C263.501 10.3235 263.812 10.1811 264.025 10.0913C266.103 9.21711 267.758 9.42118 269.816 9.67493C271.719 9.90957 273.967 10.1867 277.211 9.69309C277.875 9.59079 279.054 8.40444 278.689 8.29778C278.348 8.19678 278.002 8.06343 277.655 7.92979C276.834 7.61415 276.01 7.29697 275.246 7.40096C269.84 8.15269 264.283 7.67685 258.75 7.20305C255.784 6.94906 252.825 6.69566 249.9 6.63228C247.517 6.58065 245.87 6.3719 245.761 5.52025C245.458 3.11515 257.946 3.19742 271.403 3.28607C282.256 3.35756 293.74 3.43321 299.653 2.21172C300.229 2.09417 300.88 1.97877 301.43 2.12243C303.447 2.64054 305.502 2.64758 307.557 2.65461C309.335 2.6607 311.113 2.66679 312.867 3.00406C313.14 3.0563 313.574 2.72322 313.799 2.45766C314.582 1.53651 314.323 0.709863 313.481 0H630.616ZM137.08 85.7954C137.626 85.2455 137.836 84.4497 137.23 83.6968C137.823 84.4361 137.632 85.2372 137.08 85.7954ZM143.504 90.9932C145.011 90.2775 145.468 92.5799 143.892 92.0332C143.245 91.8089 142.848 91.3063 143.504 90.9932ZM320.748 2.24408C321.331 2.41734 320.338 3.29836 319.732 3.248C319.032 3.18987 319.658 2.2607 320.358 2.20854C320.497 2.19817 320.629 2.20866 320.748 2.24408Z" fill="#F8F8F8"/>
</svg>
