<svg width="31" height="31" viewBox="0 0 31 31" fill="none" xmlns="http://www.w3.org/2000/svg">
<path fill-rule="evenodd" clip-rule="evenodd" d="M15.4364 30.8125C15.4264 30.8125 15.4163 30.8125 15.4063 30.8125C6.91156 30.8125 0 23.9009 0 15.4062C0 6.91156 6.91156 0 15.4063 0C15.4163 0 15.4264 9.43729e-06 15.4364 2.8309e-05C15.4465 9.42978e-06 15.4566 0 15.4666 0C23.9613 0 30.8729 6.91156 30.8729 15.4062C30.8729 23.9009 23.9613 30.8125 15.4666 30.8125C15.4566 30.8125 15.4465 30.8125 15.4364 30.8125ZM26.234 5.99678C26.2112 6.00715 26.1875 6.01605 26.1628 6.02332C24.874 6.40235 23.5683 6.71213 22.2507 6.9519C23.5474 9.36921 24.2886 12.0743 24.372 14.875H28.0999H29.7402C29.6193 11.6049 28.385 8.47237 26.234 5.99678ZM29.7403 15.9375H28.0999H24.372C24.2885 18.7419 23.5454 21.4505 22.2455 23.8702C23.5649 24.109 24.873 24.4182 26.1628 24.7977C26.183 24.8036 26.2025 24.8107 26.2214 24.8187C28.3095 22.4225 29.6162 19.3283 29.7403 15.9375ZM25.388 25.6979C24.1639 25.3534 22.9236 25.0738 21.6732 24.8591C20.5528 26.6611 19.1094 28.2754 17.3902 29.6133C20.477 29.1844 23.2527 27.7694 25.388 25.6979ZM17.3861 1.19592C19.9142 1.54056 22.278 2.54792 24.3089 4.15969C24.3586 4.19922 24.4131 4.22847 24.4699 4.24767C24.8117 4.52394 25.1405 4.81555 25.4554 5.12145C24.9435 5.26554 24.4285 5.39833 23.911 5.5198C23.8725 5.52019 23.8332 5.52465 23.7936 5.5335C23.0934 5.69766 22.3881 5.84078 21.6791 5.9629C20.557 4.15554 19.1101 2.53679 17.3861 1.19592ZM6.40295 4.24767C6.06122 4.52394 5.73239 4.81555 5.4175 5.12145C5.9294 5.26554 6.44437 5.39833 6.96192 5.5198C7.00042 5.52019 7.03969 5.52465 7.07925 5.5335C7.7795 5.69766 8.48475 5.84078 9.19377 5.9629C10.3159 4.15554 11.7627 2.53679 13.4868 1.19592C10.9587 1.54056 8.59492 2.54792 6.56394 4.15969C6.51429 4.19922 6.45977 4.22847 6.40295 4.24767ZM4.6515 24.8187C2.56335 22.4224 1.25664 19.3283 1.13258 15.9375H2.77294H6.50085C6.58438 18.7419 7.32745 21.4505 8.62742 23.8702C7.30793 24.109 5.9999 24.4182 4.71006 24.7977C4.6899 24.8036 4.67037 24.8107 4.6515 24.8187ZM4.63888 5.99679C2.48784 8.47238 1.25359 11.6049 1.13269 14.875H2.77294H6.50085C6.58426 12.0743 7.32546 9.36921 8.62223 6.9519C7.30462 6.71213 5.99887 6.40235 4.71006 6.02332C4.68538 6.01605 4.66162 6.00716 4.63888 5.99679ZM14.875 14.875H7.66971C7.75458 12.1309 8.49635 9.49677 9.82072 7.15019C11.4925 7.39931 13.1806 7.5365 14.875 7.56022V14.875ZM23.2032 14.875H15.9979V7.56022C17.6922 7.5365 19.3804 7.39931 21.0522 7.15019C22.3765 9.49677 23.1183 12.1309 23.2032 14.875ZM15.9979 15.9375H23.203C23.116 18.6816 22.3574 21.3278 21.0358 23.6715C19.3669 23.425 17.6831 23.29 15.9979 23.2666V15.9375ZM7.66991 15.9375H14.875V23.2666C13.1898 23.29 11.506 23.425 9.83712 23.6715C8.51549 21.3278 7.75686 18.6816 7.66991 15.9375ZM13.4826 29.6133C11.7634 28.2754 10.3201 26.6611 9.19968 24.8591C7.94925 25.0738 6.70894 25.3534 5.4849 25.6979C7.62016 27.7694 10.3959 29.1844 13.4826 29.6133ZM14.875 1.49301C14.14 2.00469 13.4526 2.5676 12.8164 3.17492C12.7928 3.26184 12.7468 3.34384 12.6786 3.41169C11.8259 4.25766 11.0742 5.17654 10.4295 6.15399C11.902 6.35597 13.3874 6.46842 14.875 6.49154V1.49301ZM14.875 24.3304V29.2443C13.0979 27.9872 11.6037 26.4288 10.4445 24.6671C11.9135 24.4662 13.3936 24.354 14.875 24.3304ZM20.4434 6.15399C18.9709 6.35597 17.4854 6.46842 15.9979 6.49154V1.49301C16.7329 2.00469 17.4203 2.5676 18.0565 3.17492C18.0801 3.26184 18.1261 3.34384 18.1943 3.41169C19.0469 4.25766 19.7987 5.17654 20.4434 6.15399ZM20.4284 24.6671C18.9594 24.4662 17.4793 24.354 15.9979 24.3304V29.2443C17.775 27.9872 19.2691 26.4288 20.4284 24.6671Z" fill="#E21E26"/>
</svg>
