<svg width="19" height="19" viewBox="0 0 19 19" fill="none" xmlns="http://www.w3.org/2000/svg">
<g clip-path="url(#clip0)">
<path d="M16.7734 -1.32794e-05H2.22656C1.63604 -1.32794e-05 1.06971 0.23457 0.652145 0.652132C0.234584 1.06969 0 1.63603 0 2.22655L0 11.8112C0 12.4017 0.234584 12.968 0.652145 13.3856C1.06971 13.8031 1.63604 14.0377 2.22656 14.0377H5.68219C5.72156 14.0377 5.75931 14.0534 5.78715 14.0812C5.81499 14.109 5.83062 14.1468 5.83062 14.1862V17.9609C5.83061 18.1664 5.89154 18.3674 6.00571 18.5382C6.11989 18.7091 6.28217 18.8423 6.47205 18.921C6.66192 18.9996 6.87085 19.0202 7.07242 18.9801C7.27399 18.94 7.45914 18.841 7.60445 18.6957L12.2179 14.0823C12.2318 14.0685 12.2482 14.0576 12.2663 14.0502C12.2844 14.0428 12.3037 14.0391 12.3233 14.0392H16.7764C17.3669 14.0392 17.9333 13.8046 18.3508 13.3871C18.7684 12.9695 19.003 12.4032 19.003 11.8126V2.22655C19.003 1.9339 18.9453 1.64413 18.8332 1.37379C18.7211 1.10346 18.5568 0.857876 18.3498 0.651081C18.1427 0.444287 17.8969 0.280341 17.6264 0.168621C17.3559 0.0569004 17.0661 -0.000403475 16.7734 -1.32794e-05ZM18.1094 11.8112C18.1094 12.1655 17.9686 12.5053 17.7181 12.7558C17.4676 13.0063 17.1278 13.1471 16.7734 13.1471H12.3203C12.0458 13.1451 11.7816 13.2518 11.5855 13.444L6.97656 18.0648C6.9558 18.0858 6.92927 18.1 6.90037 18.1058C6.87146 18.1116 6.84148 18.1087 6.81425 18.0974C6.78702 18.0861 6.76377 18.0669 6.74747 18.0424C6.73118 18.0178 6.72256 17.9889 6.72273 17.9594V14.1862C6.72273 13.9106 6.61326 13.6463 6.4184 13.4514C6.22354 13.2566 5.95925 13.1471 5.68367 13.1471H2.22656C1.87225 13.1471 1.53245 13.0063 1.28191 12.7558C1.03138 12.5053 0.890625 12.1655 0.890625 11.8112V2.22655C0.890625 1.87224 1.03138 1.53244 1.28191 1.2819C1.53245 1.03136 1.87225 0.890612 2.22656 0.890612H16.7734C17.1278 0.890612 17.4676 1.03136 17.7181 1.2819C17.9686 1.53244 18.1094 1.87224 18.1094 2.22655V11.8112Z" fill="#E21E26"/>
</g>
<defs>
<clipPath id="clip0">
<rect width="19" height="19" fill="white"/>
</clipPath>
</defs>
</svg>
