<svg width="30" height="30" viewBox="0 0 30 30" fill="none" xmlns="http://www.w3.org/2000/svg">
<path d="M25.9758 5.35033C26.3419 4.98425 26.3419 4.39071 25.9758 4.02464C25.6097 3.65856 25.0162 3.65856 24.6501 4.02464L4.02505 24.6496C3.65897 25.0157 3.65897 25.6093 4.02505 25.9753C4.39113 26.3414 4.98466 26.3414 5.35074 25.9753L25.9758 5.35033Z" fill="#979797"/>
<path d="M5.35074 4.02464C4.98466 3.65856 4.39113 3.65856 4.02505 4.02464C3.65897 4.39071 3.65897 4.98425 4.02505 5.35033L24.6501 25.9753C25.0162 26.3414 25.6097 26.3414 25.9758 25.9753C26.3419 25.6093 26.3419 25.0157 25.9758 24.6496L5.35074 4.02464Z" fill="#979797"/>
</svg>
