<svg width="31" height="31" viewBox="0 0 31 31" fill="none" xmlns="http://www.w3.org/2000/svg">
<g clip-path="url(#clip0)">
<path d="M29.0625 2.90625H1.9375C1.42364 2.90625 0.930832 3.11038 0.567481 3.47373C0.204129 3.83708 0 4.32989 0 4.84375L0 23.25C0 23.7639 0.204129 24.2567 0.567481 24.62C0.930832 24.9834 1.42364 25.1875 1.9375 25.1875H13.5625V27.125H9.6875V28.0938H21.3125V27.125H17.4375V25.1875H29.0625C29.5764 25.1875 30.0692 24.9834 30.4325 24.62C30.7959 24.2567 31 23.7639 31 23.25V4.84375C31 4.32989 30.7959 3.83708 30.4325 3.47373C30.0692 3.11038 29.5764 2.90625 29.0625 2.90625ZM16.4688 27.125H14.5312V25.1875H16.4688V27.125ZM30.0312 23.25C30.0312 23.5069 29.9292 23.7533 29.7475 23.935C29.5658 24.1167 29.3194 24.2188 29.0625 24.2188H1.9375C1.68057 24.2188 1.43417 24.1167 1.25249 23.935C1.07081 23.7533 0.96875 23.5069 0.96875 23.25V4.84375C0.96875 4.58682 1.07081 4.34042 1.25249 4.15874C1.43417 3.97706 1.68057 3.875 1.9375 3.875H29.0625C29.3194 3.875 29.5658 3.97706 29.7475 4.15874C29.9292 4.34042 30.0312 4.58682 30.0312 4.84375V23.25Z" fill="#E21E26"/>
<path d="M1.9375 20.3438H29.0625V4.84375H1.9375V20.3438ZM2.90625 5.8125H28.0938V19.375H2.90625V5.8125Z" fill="#E21E26"/>
<path d="M15.5 23.25C16.035 23.25 16.4688 22.8163 16.4688 22.2812C16.4688 21.7462 16.035 21.3125 15.5 21.3125C14.965 21.3125 14.5312 21.7462 14.5312 22.2812C14.5312 22.8163 14.965 23.25 15.5 23.25Z" fill="#E21E26"/>
</g>
<defs>
<clipPath id="clip0">
<rect width="31" height="31" fill="white"/>
</clipPath>
</defs>
</svg>
