<svg width="41" height="41" viewBox="0 0 41 41" fill="none" xmlns="http://www.w3.org/2000/svg">
<path d="M27.5469 3.84375H13.4531C12.6036 3.84375 11.7889 4.18122 11.1882 4.78192C10.5875 5.38263 10.25 6.19735 10.25 7.04688V33.9531C10.25 34.8026 10.5875 35.6174 11.1882 36.2181C11.7889 36.8188 12.6036 37.1562 13.4531 37.1562H27.5469C27.9675 37.1562 28.384 37.0734 28.7727 36.9124C29.1613 36.7515 29.5144 36.5155 29.8118 36.2181C30.1093 35.9206 30.3452 35.5675 30.5062 35.1789C30.6671 34.7903 30.75 34.3738 30.75 33.9531V7.04688C30.75 6.62623 30.6671 6.20971 30.5062 5.82109C30.3452 5.43247 30.1093 5.07936 29.8118 4.78192C29.5144 4.48449 29.1613 4.24855 28.7727 4.08757C28.384 3.9266 27.9675 3.84375 27.5469 3.84375ZM29.4688 33.9531C29.4688 34.4628 29.2663 34.9517 28.9058 35.3121C28.5454 35.6725 28.0566 35.875 27.5469 35.875H13.4531C12.9434 35.875 12.4546 35.6725 12.0942 35.3121C11.7337 34.9517 11.5312 34.4628 11.5312 33.9531V7.04688C11.5312 6.53716 11.7337 6.04833 12.0942 5.6879C12.4546 5.32748 12.9434 5.125 13.4531 5.125H27.5469C28.0566 5.125 28.5454 5.32748 28.9058 5.6879C29.2663 6.04833 29.4688 6.53716 29.4688 7.04688V33.9531Z" fill="#E21E26"/>
<path d="M12.8125 30.75H28.1875V8.96875H12.8125V30.75ZM14.0938 10.25H26.9062V29.4688H14.0938V10.25Z" fill="#E21E26"/>
<path d="M20.5 34.5938C21.2076 34.5938 21.7812 34.0201 21.7812 33.3125C21.7812 32.6049 21.2076 32.0312 20.5 32.0312C19.7924 32.0312 19.2188 32.6049 19.2188 33.3125C19.2188 34.0201 19.7924 34.5938 20.5 34.5938Z" fill="#E21E26"/>
<path d="M23.0625 6.40625H17.9375V7.6875H23.0625V6.40625Z" fill="#E21E26"/>
</svg>
