<svg width="17" height="19" viewBox="0 0 17 19" fill="none" xmlns="http://www.w3.org/2000/svg">
<path d="M8.41667 19C8.28377 19.0006 8.15206 18.9747 8.02905 18.9237C7.90605 18.8728 7.79416 18.7978 7.69979 18.703L2.87954 13.8207C2.11848 13.0541 1.51604 12.1414 1.10749 11.1361C0.698934 10.1307 0.49248 9.05293 0.500209 7.96579C0.496931 6.91322 0.701013 5.87056 1.10051 4.89887C1.5 3.92718 2.08687 3.04598 2.82677 2.30688C4.32111 0.82798 6.32743 0 8.41667 0C10.5059 0 12.5122 0.82798 14.0066 2.30688C14.7465 3.04598 15.3333 3.92718 15.7328 4.89887C16.1323 5.87056 16.3364 6.91322 16.3331 7.96579C16.3409 9.05293 16.1344 10.1307 15.7258 11.1361C15.3173 12.1414 14.7149 13.0541 13.9538 13.8207L9.13355 18.6941C9.0399 18.7905 8.92834 18.8671 8.8053 18.9196C8.68226 18.9721 8.55018 18.9994 8.41667 19ZM8.41667 0.884354C6.55642 0.880014 4.76956 1.61901 3.44396 2.94092C2.78724 3.59765 2.26643 4.38044 1.91201 5.24349C1.55758 6.10655 1.37665 7.03254 1.37982 7.96727C1.37278 8.93689 1.55677 9.8982 1.92101 10.7949C2.28526 11.6916 2.82245 12.5058 3.50113 13.1896L8.31991 18.063C8.33235 18.0761 8.34727 18.0865 8.36377 18.0936C8.38027 18.1007 8.39801 18.1043 8.41593 18.1043C8.43386 18.1043 8.4516 18.1007 8.4681 18.0936C8.4846 18.0865 8.49951 18.0761 8.51196 18.063L13.3322 13.1896C14.0109 12.5058 14.5481 11.6916 14.9123 10.7949C15.2766 9.8982 15.4606 8.93689 15.4535 7.96727C15.4567 7.03254 15.2758 6.10655 14.9213 5.24349C14.5669 4.38044 14.0461 3.59765 13.3894 2.94092C12.0638 1.61901 10.2769 0.880014 8.41667 0.884354Z" fill="#E21E26"/>
<path d="M8.4147 12.0909C7.46759 12.0905 6.54992 11.7669 5.81797 11.1754C5.08602 10.5838 4.58505 9.76076 4.40038 8.84647C4.21571 7.93218 4.35875 6.98315 4.80516 6.16101C5.25156 5.33886 5.97371 4.69444 6.84864 4.3375C7.72356 3.98055 8.69714 3.93315 9.60358 4.20336C10.51 4.47358 11.2933 5.0447 11.8199 5.81946C12.3466 6.59423 12.5841 7.52473 12.492 8.4525C12.3999 9.38026 11.9839 10.2479 11.3149 10.9077C10.9344 11.2831 10.4824 11.5809 9.98467 11.784C9.48698 11.987 8.95345 12.0913 8.4147 12.0909ZM8.4147 4.9192C7.67574 4.92036 6.96004 5.17361 6.3895 5.63583C5.81895 6.09805 5.42885 6.74064 5.28564 7.45417C5.14242 8.16769 5.25495 8.90802 5.60405 9.54905C5.95315 10.1901 6.51724 10.6922 7.20024 10.9698C7.88323 11.2475 8.6429 11.2835 9.34985 11.0717C10.0568 10.86 10.6673 10.4136 11.0774 9.80856C11.4875 9.20352 11.6718 8.47727 11.5989 7.7535C11.526 7.02973 11.2005 6.3532 10.6777 5.83915C10.3806 5.54681 10.0277 5.31507 9.63936 5.15721C9.25103 4.99935 8.83485 4.91847 8.4147 4.9192Z" fill="#E21E26"/>
</svg>
