<svg width="285" height="53" viewBox="0 0 285 53" fill="none" xmlns="http://www.w3.org/2000/svg">
<path d="M3.80724 0.208752C2.34424 0.695841 1.11098 1.7628 0.445988 3.0965L0.059082 3.88512V26.5116V49.1265L0.506443 49.9962C1.07471 51.0981 2.07825 52.049 3.22688 52.5709L4.04905 52.942H27.6383H51.2154L52.1222 52.5129C53.7786 51.7243 54.9998 50.147 55.2537 48.4539C55.4109 47.4913 55.4109 5.50875 55.2537 4.54617C54.9998 2.85295 53.7786 1.27571 52.1222 0.487088L51.2154 0.0579857L27.8197 0.0347909C5.85059 0.0115962 4.37551 0.0231936 3.80724 0.208752ZM29.3068 7.02801C34.6872 8.3617 40.4666 16.5611 42.1352 25.2243C43.2838 31.2201 42.4858 36.1374 39.717 40.1385C37.6495 43.119 34.7598 44.9746 30.9511 45.7632C29.4881 46.0647 25.7642 46.0647 24.3012 45.7632C21.2423 45.1254 18.8483 43.8729 16.9258 41.9013C12.5489 37.4015 11.4608 30.2691 13.9151 22.2901C16.2004 14.9142 20.9762 8.69806 25.5465 7.17878C26.7193 6.78446 28.1098 6.72648 29.3068 7.02801Z" fill="#E21E26"/>
<path d="M143.155 11.551C140.387 11.8757 138.875 12.2584 137.291 13.0123C135.949 13.6617 134.559 15.007 133.918 16.2711C132.878 18.3702 132.721 19.704 132.794 26.326C132.829 30.3852 132.89 31.6609 133.036 32.2987C133.724 35.3372 135.079 37.1348 137.521 38.2713C139.77 39.3151 141.959 39.6746 146.178 39.6746C148.547 39.6746 151.135 39.5239 153.916 39.2224L154.702 39.1412L154.738 38.7353C154.774 38.2713 154.219 32.4958 154.134 32.4146C154.11 32.3799 153.299 32.4379 152.332 32.5306C151.377 32.6234 149.636 32.7278 148.476 32.7742C143.457 32.9598 141.765 32.148 141.341 29.3761C141.185 28.344 141.185 22.7888 141.341 21.7567C141.632 19.8663 142.418 19.0313 144.328 18.6022C145.344 18.3818 148.632 18.3586 151.014 18.579C151.909 18.6602 152.888 18.7298 153.19 18.7298H153.735L154.049 15.4245C154.219 13.6038 154.352 12.1076 154.327 12.0845C154.315 12.0613 153.409 11.9453 152.32 11.8177C150.446 11.5974 144.28 11.4234 143.155 11.551Z" fill="#E21E26"/>
<path d="M69.4013 12.2584C69.4013 12.3744 68.9902 18.289 68.4945 25.3983C67.9987 32.5074 67.5876 38.5497 67.5876 38.8164V39.3151H71.626H75.6643L75.7369 38.5844C75.7731 38.1901 75.9425 35.4184 76.1117 32.4146C76.4502 26.4768 76.4744 26.2101 76.6921 26.2101C76.7767 26.2101 77.9737 28.5296 79.3641 31.3709L81.8911 36.5317H84.6475H87.3926L89.6658 31.4173C91.6481 26.9639 92.12 26.0245 92.301 26.2216C92.3256 26.2448 92.5429 29.2022 92.8093 32.7858L93.2685 39.3151H97.4158H101.563V38.9324C101.563 38.7353 101.152 32.7394 100.656 25.6302C100.16 18.521 99.7491 12.56 99.7491 12.3744V12.0613H95.7227H91.6964L88.311 19.7735C85.8205 25.4562 84.8893 27.4858 84.7447 27.4858C84.5993 27.4858 84.2125 26.7783 83.3782 25.0155C82.7375 23.6702 81.1173 20.2026 79.7631 17.3381L77.3087 12.1192L73.355 12.0844C69.6431 12.0613 69.4013 12.0729 69.4013 12.2584Z" fill="#E21E26"/>
<path d="M104.223 12.3744C104.223 12.56 104.307 14.1256 104.428 15.8536L104.634 19.0197H108.72H112.808V29.1674V39.3151H117.16H121.513V29.1674V19.0197H125.624H129.734V18.7529C129.734 18.3818 130.085 13.4066 130.158 12.6643L130.218 12.0613H117.22H104.223V12.3744Z" fill="#E21E26"/>
<path d="M167.025 53V0" stroke="#E21E26"/>
<path d="M189.871 12.969C190.322 13.462 190.666 14.0658 190.903 14.7805C191.146 15.4953 191.268 16.3062 191.268 17.2131C191.268 18.1202 191.145 18.9335 190.897 19.6532C190.653 20.3679 190.311 20.9644 189.871 21.4425C189.415 21.9404 188.875 22.315 188.251 22.5664C187.631 22.8178 186.922 22.9435 186.124 22.9435C185.346 22.9435 184.638 22.8153 183.998 22.559C183.364 22.3026 182.825 21.9306 182.378 21.4425C181.932 20.9545 181.588 20.3556 181.345 19.6458C181.107 18.936 180.989 18.1251 180.989 17.2131C180.989 16.316 181.107 15.5126 181.345 14.8027C181.583 14.088 181.93 13.4767 182.386 12.969C182.822 12.486 183.362 12.1162 184.006 11.86C184.655 11.6036 185.362 11.4754 186.124 11.4754C186.917 11.4754 187.628 11.6061 188.257 11.8673C188.892 12.1236 189.429 12.4909 189.871 12.969ZM189.736 17.2131C189.736 15.7837 189.415 14.6819 188.771 13.908C188.126 13.1292 187.247 12.7399 186.132 12.7399C185.007 12.7399 184.123 13.1292 183.478 13.908C182.839 14.6819 182.519 15.7837 182.519 17.2131C182.519 18.6574 182.847 19.7641 183.5 20.533C184.155 21.2971 185.032 21.6791 186.132 21.6791C187.232 21.6791 188.107 21.2971 188.755 20.533C189.41 19.7641 189.736 18.6574 189.736 17.2131ZM204.09 18.3666C204.09 19.1011 203.996 19.7518 203.807 20.3186C203.619 20.8806 203.369 21.3439 203.056 21.7087C202.749 22.0735 202.395 22.3519 201.994 22.5443C201.592 22.7365 201.171 22.8326 200.73 22.8326C200.398 22.8326 200.108 22.7759 199.86 22.6625C199.618 22.5491 199.399 22.4457 199.207 22.3519V25.7606H197.824V22.3519C197.522 22.4998 197.272 22.6181 197.073 22.7069C196.88 22.7907 196.575 22.8326 196.159 22.8326C195.202 22.8326 194.427 22.4604 193.832 21.7161C193.238 20.9718 192.941 19.9366 192.941 18.6107C192.941 17.9156 193.037 17.2969 193.23 16.7547C193.424 16.2076 193.677 15.7492 193.989 15.3794C194.29 15.0196 194.645 14.746 195.052 14.5588C195.463 14.3664 195.871 14.2704 196.278 14.2704C196.575 14.2704 196.845 14.3172 197.088 14.4109C197.336 14.4996 197.581 14.6179 197.824 14.7658V11.2092H199.207V14.7658C199.434 14.6327 199.702 14.5169 200.009 14.4183C200.316 14.3197 200.626 14.2704 200.939 14.2704C201.92 14.2704 202.69 14.64 203.25 15.3794C203.81 16.1139 204.09 17.1097 204.09 18.3666ZM202.655 18.5219C202.655 17.5804 202.487 16.8361 202.15 16.2889C201.813 15.7418 201.307 15.4682 200.633 15.4682C200.361 15.4682 200.133 15.4904 199.95 15.5347C199.766 15.5791 199.519 15.6629 199.207 15.7861V21.2946C199.439 21.4031 199.633 21.4893 199.786 21.5534C199.945 21.6126 200.167 21.6422 200.455 21.6422C201.153 21.6422 201.694 21.376 202.075 20.8436C202.462 20.3063 202.655 19.5324 202.655 18.5219ZM197.824 21.2946V15.7861C197.63 15.6974 197.435 15.6235 197.237 15.5643C197.038 15.5002 196.818 15.4682 196.575 15.4682C195.906 15.4682 195.371 15.7221 194.97 16.2298C194.573 16.7375 194.375 17.5089 194.375 18.5441C194.375 19.5053 194.551 20.262 194.903 20.814C195.26 21.3661 195.772 21.6422 196.441 21.6422C196.704 21.6422 196.947 21.6077 197.17 21.5386C197.398 21.4647 197.616 21.3834 197.824 21.2946ZM213.284 22.7143H211.901V16.5108L207.554 22.7143H206.29V14.4552H207.672V20.5701L211.976 14.4552H213.284V22.7143ZM222.627 22.7143H216.042V14.4552H217.439V21.5165H221.527V14.4552H222.925V21.5165H223.928V24.6959H222.627V22.7143ZM232.848 22.7143H231.465V16.5108L227.117 22.7143H225.854V14.4552H227.235V20.5701L231.539 14.4552H232.848V22.7143ZM242.057 22.7143H240.667V21.8344C240.543 21.9182 240.374 22.0365 240.161 22.1893C239.953 22.3372 239.75 22.4555 239.552 22.5443C239.319 22.6576 239.052 22.7512 238.75 22.8252C238.447 22.9041 238.093 22.9435 237.687 22.9435C236.938 22.9435 236.304 22.697 235.784 22.2041C235.263 21.7112 235.003 21.0826 235.003 20.3186C235.003 19.6926 235.137 19.1873 235.404 18.8029C235.677 18.4135 236.064 18.1078 236.564 17.886C237.069 17.6642 237.676 17.5139 238.385 17.435C239.094 17.3562 239.854 17.2969 240.667 17.2576V17.0431C240.667 16.7276 240.61 16.4663 240.496 16.2593C240.387 16.0524 240.229 15.8897 240.02 15.7714C239.822 15.658 239.584 15.5816 239.307 15.5421C239.03 15.5027 238.74 15.483 238.437 15.483C238.071 15.483 237.661 15.5323 237.21 15.6309C236.76 15.7245 236.294 15.8626 235.813 16.0449H235.739V14.6327C236.011 14.5588 236.405 14.4774 236.92 14.3887C237.436 14.2999 237.944 14.2556 238.444 14.2556C239.03 14.2556 239.537 14.3049 239.968 14.4035C240.405 14.4971 240.781 14.6598 241.098 14.8915C241.41 15.1182 241.648 15.4115 241.812 15.7714C241.975 16.1312 242.057 16.5773 242.057 17.1097V22.7143ZM240.667 20.6809V18.3814C240.241 18.4061 239.737 18.4431 239.158 18.4923C238.583 18.5416 238.127 18.6131 237.791 18.7067C237.389 18.8201 237.064 18.9976 236.816 19.2391C236.569 19.4757 236.445 19.8035 236.445 20.2225C236.445 20.6957 236.589 21.0531 236.876 21.2946C237.164 21.5313 237.602 21.6496 238.191 21.6496C238.682 21.6496 239.131 21.5559 239.537 21.3686C239.944 21.1764 240.32 20.9471 240.667 20.6809ZM251.444 22.7143H250.047V15.6235H246.948C246.933 16.0326 246.918 16.427 246.903 16.8065C246.889 17.186 246.873 17.5286 246.858 17.8342C246.824 18.6574 246.767 19.3156 246.687 19.8085C246.609 20.2965 246.504 20.7031 246.375 21.0285C246.257 21.3341 246.122 21.583 245.974 21.7753C245.831 21.9625 245.674 22.1326 245.506 22.2854C245.338 22.4333 245.149 22.5443 244.941 22.6181C244.738 22.6921 244.515 22.7291 244.272 22.7291C244.187 22.7291 244.064 22.7266 243.9 22.7217C243.742 22.7167 243.638 22.7143 243.588 22.7143V21.5017H243.662C243.702 21.5017 243.759 21.5041 243.833 21.5091C243.908 21.514 243.969 21.5165 244.019 21.5165C244.138 21.5165 244.259 21.4992 244.384 21.4647C244.512 21.4302 244.621 21.3661 244.71 21.2724C244.963 21.026 245.166 20.6094 245.32 20.0229C245.474 19.4363 245.575 18.5884 245.624 17.4793C245.645 17.0752 245.662 16.597 245.677 16.0449C245.696 15.4879 245.714 14.958 245.728 14.4552H251.444V22.7143ZM261.152 22.7143H259.754V18.9951H255.599V22.7143H254.202V14.4552H255.599V17.7973H259.754V14.4552H261.152V22.7143ZM269.023 20.1782C269.023 19.9267 268.979 19.7074 268.889 19.5201C268.806 19.3278 268.665 19.1725 268.466 19.0543C268.258 18.931 268.02 18.8571 267.752 18.8324C267.49 18.8078 267.111 18.7955 266.615 18.7955H265.307V21.6052H266.586C267.081 21.6052 267.465 21.5855 267.738 21.546C268.01 21.5017 268.245 21.4203 268.444 21.302C268.647 21.1738 268.793 21.0235 268.882 20.851C268.977 20.6735 269.023 20.4492 269.023 20.1782ZM270.465 20.156C270.465 20.5552 270.384 20.9176 270.22 21.2429C270.062 21.5682 269.843 21.832 269.566 22.034C269.239 22.2805 268.889 22.4555 268.518 22.559C268.146 22.6625 267.668 22.7143 267.083 22.7143H263.91V14.4552H265.307V17.6716H267.12C267.745 17.6716 268.228 17.7036 268.57 17.7677C268.917 17.8318 269.262 17.9895 269.603 18.2409C269.891 18.4529 270.106 18.724 270.25 19.0543C270.394 19.3845 270.465 19.7518 270.465 20.156ZM271.855 14.4552H273.252V22.7143H271.855V14.4552ZM283.005 22.7143H281.622V16.5108L277.274 22.7143H276.01V14.4552H277.393V20.5701L281.697 14.4552H283.005V22.7143ZM282.209 11.2018C282.185 11.9314 281.952 12.5008 281.511 12.9099C281.074 13.319 280.437 13.5236 279.6 13.5236C278.763 13.5236 278.124 13.319 277.683 12.9099C277.247 12.5008 277.017 11.9314 276.991 11.2018H278.262C278.267 11.7195 278.382 12.0941 278.605 12.3258C278.832 12.5575 279.165 12.6733 279.6 12.6733C280.042 12.6733 280.373 12.5599 280.596 12.3332C280.82 12.1064 280.933 11.7293 280.938 11.2018H282.209ZM188.459 41.2222H187.061V34.1609H182.906V41.2222H181.509V32.9631H188.459V41.2222ZM197.667 41.2222H196.278V40.3423C196.154 40.4261 195.985 40.5444 195.772 40.6973C195.564 40.8452 195.361 40.9634 195.162 41.0522C194.93 41.1655 194.663 41.2592 194.36 41.3331C194.058 41.412 193.704 41.4515 193.297 41.4515C192.549 41.4515 191.915 41.205 191.394 40.7121C190.874 40.2191 190.614 39.5906 190.614 38.8265C190.614 38.2005 190.748 37.6953 191.015 37.3108C191.287 36.9214 191.674 36.6158 192.175 36.3939C192.68 36.1722 193.287 36.0218 193.996 35.9429C194.704 35.8641 195.465 35.8049 196.278 35.7655V35.5511C196.278 35.2356 196.22 34.9743 196.107 34.7672C195.998 34.5603 195.839 34.3976 195.631 34.2793C195.433 34.1659 195.195 34.0895 194.917 34.0501C194.64 34.0106 194.351 33.9909 194.048 33.9909C193.682 33.9909 193.272 34.0402 192.822 34.1388C192.371 34.2324 191.905 34.3705 191.424 34.5529H191.35V33.1406C191.622 33.0667 192.016 32.9853 192.531 32.8966C193.047 32.8078 193.555 32.7635 194.055 32.7635C194.64 32.7635 195.148 32.8128 195.579 32.9114C196.015 33.005 196.392 33.1677 196.709 33.3994C197.021 33.6261 197.259 33.9194 197.422 34.2793C197.586 34.6391 197.667 35.0852 197.667 35.6176V41.2222ZM196.278 39.1889V36.8893C195.852 36.914 195.348 36.951 194.769 37.0002C194.194 37.0495 193.738 37.121 193.401 37.2147C193 37.3281 192.675 37.5055 192.427 37.747C192.18 37.9837 192.056 38.3114 192.056 38.7305C192.056 39.2037 192.2 39.561 192.487 39.8026C192.774 40.0392 193.213 40.1575 193.803 40.1575C194.293 40.1575 194.741 40.0638 195.148 39.8765C195.554 39.6843 195.931 39.455 196.278 39.1889ZM207.665 36.9929C207.665 37.6632 207.568 38.2769 207.375 38.8339C207.181 39.3861 206.909 39.8543 206.557 40.2389C206.23 40.6035 205.844 40.8871 205.398 41.0891C204.957 41.2863 204.489 41.3849 203.993 41.3849C203.562 41.3849 203.17 41.3381 202.819 41.2444C202.472 41.1507 202.117 41.0053 201.755 40.8081V44.2685H200.358V32.9631H201.755V33.8282C202.128 33.5177 202.544 33.2589 203.005 33.0519C203.471 32.8399 203.966 32.734 204.491 32.734C205.492 32.734 206.27 33.111 206.825 33.8652C207.385 34.6145 207.665 35.6571 207.665 36.9929ZM206.223 37.0298C206.223 36.0341 206.052 35.2898 205.71 34.7969C205.368 34.304 204.843 34.0575 204.134 34.0575C203.733 34.0575 203.329 34.1437 202.923 34.3162C202.517 34.4888 202.128 34.7155 201.755 34.9965V39.6769C202.152 39.8543 202.492 39.9751 202.774 40.0392C203.061 40.1032 203.386 40.1353 203.748 40.1353C204.526 40.1353 205.133 39.8741 205.569 39.3516C206.005 38.8291 206.223 38.0552 206.223 37.0298ZM215.945 34.1831H212.942V41.2222H211.545V34.1831H208.542V32.9631H215.945V34.1831ZM224.344 41.2222H222.947V37.5031H218.792V41.2222H217.395V32.9631H218.792V36.3053H222.947V32.9631H224.344V41.2222ZM234.052 37.2369H227.934C227.934 37.7446 228.011 38.1883 228.165 38.5678C228.319 38.9424 228.529 39.2505 228.797 39.4921C229.055 39.7286 229.359 39.9061 229.711 40.0244C230.068 40.1427 230.459 40.2018 230.886 40.2018C231.45 40.2018 232.018 40.091 232.587 39.8691C233.162 39.6424 233.571 39.4206 233.814 39.2037H233.888V40.7194C233.418 40.9166 232.937 41.0817 232.446 41.2148C231.955 41.3479 231.44 41.4144 230.9 41.4144C229.522 41.4144 228.447 41.0448 227.674 40.3054C226.901 39.561 226.515 38.5062 226.515 37.1407C226.515 35.7901 226.884 34.718 227.622 33.9244C228.365 33.1307 229.342 32.734 230.551 32.734C231.67 32.734 232.533 33.0593 233.138 33.7099C233.747 34.3607 234.052 35.2849 234.052 36.4827V37.2369ZM232.691 36.1722C232.687 35.4426 232.501 34.8782 232.134 34.4789C231.773 34.0797 231.22 33.88 230.476 33.88C229.729 33.88 229.132 34.0994 228.685 34.5381C228.244 34.9768 227.994 35.5214 227.934 36.1722H232.691ZM243.476 36.9929C243.476 37.6632 243.38 38.2769 243.187 38.8339C242.993 39.3861 242.721 39.8543 242.369 40.2389C242.042 40.6035 241.655 40.8871 241.21 41.0891C240.768 41.2863 240.301 41.3849 239.805 41.3849C239.374 41.3849 238.982 41.3381 238.63 41.2444C238.284 41.1507 237.929 41.0053 237.567 40.8081V44.2685H236.17V32.9631H237.567V33.8282C237.939 33.5177 238.356 33.2589 238.816 33.0519C239.282 32.8399 239.777 32.734 240.302 32.734C241.304 32.734 242.082 33.111 242.636 33.8652C243.196 34.6145 243.476 35.6571 243.476 36.9929ZM242.034 37.0298C242.034 36.0341 241.864 35.2898 241.522 34.7969C241.18 34.304 240.654 34.0575 239.946 34.0575C239.545 34.0575 239.14 34.1437 238.734 34.3162C238.328 34.4888 237.939 34.7155 237.567 34.9965V39.6769C237.964 39.8543 238.303 39.9751 238.586 40.0392C238.873 40.1032 239.198 40.1353 239.56 40.1353C240.337 40.1353 240.944 39.8741 241.381 39.3516C241.817 38.8291 242.034 38.0552 242.034 37.0298Z" fill="#E21E26"/>
<path d="M189.871 12.969C190.322 13.462 190.666 14.0658 190.903 14.7805C191.146 15.4953 191.268 16.3062 191.268 17.2131C191.268 18.1202 191.145 18.9335 190.897 19.6532C190.653 20.3679 190.311 20.9644 189.871 21.4425C189.415 21.9404 188.875 22.315 188.251 22.5664C187.631 22.8178 186.922 22.9435 186.124 22.9435C185.346 22.9435 184.638 22.8153 183.998 22.559C183.364 22.3026 182.825 21.9306 182.378 21.4425C181.932 20.9545 181.588 20.3556 181.345 19.6458C181.107 18.936 180.989 18.1251 180.989 17.2131C180.989 16.316 181.107 15.5126 181.345 14.8027C181.583 14.088 181.93 13.4767 182.386 12.969C182.822 12.486 183.362 12.1162 184.006 11.86C184.655 11.6036 185.362 11.4754 186.124 11.4754C186.917 11.4754 187.628 11.6061 188.257 11.8673C188.892 12.1236 189.429 12.4909 189.871 12.969ZM189.736 17.2131C189.736 15.7837 189.415 14.6819 188.771 13.908C188.126 13.1292 187.247 12.7399 186.132 12.7399C185.007 12.7399 184.123 13.1292 183.478 13.908C182.839 14.6819 182.519 15.7837 182.519 17.2131C182.519 18.6574 182.847 19.7641 183.5 20.533C184.155 21.2971 185.032 21.6791 186.132 21.6791C187.232 21.6791 188.107 21.2971 188.755 20.533C189.41 19.7641 189.736 18.6574 189.736 17.2131ZM204.09 18.3666C204.09 19.1011 203.996 19.7518 203.807 20.3186C203.619 20.8806 203.369 21.3439 203.056 21.7087C202.749 22.0735 202.395 22.3519 201.994 22.5443C201.592 22.7365 201.171 22.8326 200.73 22.8326C200.398 22.8326 200.108 22.7759 199.86 22.6625C199.618 22.5491 199.399 22.4457 199.207 22.3519V25.7606H197.824V22.3519C197.522 22.4998 197.272 22.6181 197.073 22.7069C196.88 22.7907 196.575 22.8326 196.159 22.8326C195.202 22.8326 194.427 22.4604 193.832 21.7161C193.238 20.9718 192.941 19.9366 192.941 18.6107C192.941 17.9156 193.037 17.2969 193.23 16.7547C193.424 16.2076 193.677 15.7492 193.989 15.3794C194.29 15.0196 194.645 14.746 195.052 14.5588C195.463 14.3664 195.871 14.2704 196.278 14.2704C196.575 14.2704 196.845 14.3172 197.088 14.4109C197.336 14.4996 197.581 14.6179 197.824 14.7658V11.2092H199.207V14.7658C199.434 14.6327 199.702 14.5169 200.009 14.4183C200.316 14.3197 200.626 14.2704 200.939 14.2704C201.92 14.2704 202.69 14.64 203.25 15.3794C203.81 16.1139 204.09 17.1097 204.09 18.3666ZM202.655 18.5219C202.655 17.5804 202.487 16.8361 202.15 16.2889C201.813 15.7418 201.307 15.4682 200.633 15.4682C200.361 15.4682 200.133 15.4904 199.95 15.5347C199.766 15.5791 199.519 15.6629 199.207 15.7861V21.2946C199.439 21.4031 199.633 21.4893 199.786 21.5534C199.945 21.6126 200.167 21.6422 200.455 21.6422C201.153 21.6422 201.694 21.376 202.075 20.8436C202.462 20.3063 202.655 19.5324 202.655 18.5219ZM197.824 21.2946V15.7861C197.63 15.6974 197.435 15.6235 197.237 15.5643C197.038 15.5002 196.818 15.4682 196.575 15.4682C195.906 15.4682 195.371 15.7221 194.97 16.2298C194.573 16.7375 194.375 17.5089 194.375 18.5441C194.375 19.5053 194.551 20.262 194.903 20.814C195.26 21.3661 195.772 21.6422 196.441 21.6422C196.704 21.6422 196.947 21.6077 197.17 21.5386C197.398 21.4647 197.616 21.3834 197.824 21.2946ZM213.284 22.7143H211.901V16.5108L207.554 22.7143H206.29V14.4552H207.672V20.5701L211.976 14.4552H213.284V22.7143ZM222.627 22.7143H216.042V14.4552H217.439V21.5165H221.527V14.4552H222.925V21.5165H223.928V24.6959H222.627V22.7143ZM232.848 22.7143H231.465V16.5108L227.117 22.7143H225.854V14.4552H227.235V20.5701L231.539 14.4552H232.848V22.7143ZM242.057 22.7143H240.667V21.8344C240.543 21.9182 240.374 22.0365 240.161 22.1893C239.953 22.3372 239.75 22.4555 239.552 22.5443C239.319 22.6576 239.052 22.7512 238.75 22.8252C238.447 22.9041 238.093 22.9435 237.687 22.9435C236.938 22.9435 236.304 22.697 235.784 22.2041C235.263 21.7112 235.003 21.0826 235.003 20.3186C235.003 19.6926 235.137 19.1873 235.404 18.8029C235.677 18.4135 236.064 18.1078 236.564 17.886C237.069 17.6642 237.676 17.5139 238.385 17.435C239.094 17.3562 239.854 17.2969 240.667 17.2576V17.0431C240.667 16.7276 240.61 16.4663 240.496 16.2593C240.387 16.0524 240.229 15.8897 240.02 15.7714C239.822 15.658 239.584 15.5816 239.307 15.5421C239.03 15.5027 238.74 15.483 238.437 15.483C238.071 15.483 237.661 15.5323 237.21 15.6309C236.76 15.7245 236.294 15.8626 235.813 16.0449H235.739V14.6327C236.011 14.5588 236.405 14.4774 236.92 14.3887C237.436 14.2999 237.944 14.2556 238.444 14.2556C239.03 14.2556 239.537 14.3049 239.968 14.4035C240.405 14.4971 240.781 14.6598 241.098 14.8915C241.41 15.1182 241.648 15.4115 241.812 15.7714C241.975 16.1312 242.057 16.5773 242.057 17.1097V22.7143ZM240.667 20.6809V18.3814C240.241 18.4061 239.737 18.4431 239.158 18.4923C238.583 18.5416 238.127 18.6131 237.791 18.7067C237.389 18.8201 237.064 18.9976 236.816 19.2391C236.569 19.4757 236.445 19.8035 236.445 20.2225C236.445 20.6957 236.589 21.0531 236.876 21.2946C237.164 21.5313 237.602 21.6496 238.191 21.6496C238.682 21.6496 239.131 21.5559 239.537 21.3686C239.944 21.1764 240.32 20.9471 240.667 20.6809ZM251.444 22.7143H250.047V15.6235H246.948C246.933 16.0326 246.918 16.427 246.903 16.8065C246.889 17.186 246.873 17.5286 246.858 17.8342C246.824 18.6574 246.767 19.3156 246.687 19.8085C246.609 20.2965 246.504 20.7031 246.375 21.0285C246.257 21.3341 246.122 21.583 245.974 21.7753C245.831 21.9625 245.674 22.1326 245.506 22.2854C245.338 22.4333 245.149 22.5443 244.941 22.6181C244.738 22.6921 244.515 22.7291 244.272 22.7291C244.187 22.7291 244.064 22.7266 243.9 22.7217C243.742 22.7167 243.638 22.7143 243.588 22.7143V21.5017H243.662C243.702 21.5017 243.759 21.5041 243.833 21.5091C243.908 21.514 243.969 21.5165 244.019 21.5165C244.138 21.5165 244.259 21.4992 244.384 21.4647C244.512 21.4302 244.621 21.3661 244.71 21.2724C244.963 21.026 245.166 20.6094 245.32 20.0229C245.474 19.4363 245.575 18.5884 245.624 17.4793C245.645 17.0752 245.662 16.597 245.677 16.0449C245.696 15.4879 245.714 14.958 245.728 14.4552H251.444V22.7143ZM261.152 22.7143H259.754V18.9951H255.599V22.7143H254.202V14.4552H255.599V17.7973H259.754V14.4552H261.152V22.7143ZM269.023 20.1782C269.023 19.9267 268.979 19.7074 268.889 19.5201C268.806 19.3278 268.665 19.1725 268.466 19.0543C268.258 18.931 268.02 18.8571 267.752 18.8324C267.49 18.8078 267.111 18.7955 266.615 18.7955H265.307V21.6052H266.586C267.081 21.6052 267.465 21.5855 267.738 21.546C268.01 21.5017 268.245 21.4203 268.444 21.302C268.647 21.1738 268.793 21.0235 268.882 20.851C268.977 20.6735 269.023 20.4492 269.023 20.1782ZM270.465 20.156C270.465 20.5552 270.384 20.9176 270.22 21.2429C270.062 21.5682 269.843 21.832 269.566 22.034C269.239 22.2805 268.889 22.4555 268.518 22.559C268.146 22.6625 267.668 22.7143 267.083 22.7143H263.91V14.4552H265.307V17.6716H267.12C267.745 17.6716 268.228 17.7036 268.57 17.7677C268.917 17.8318 269.262 17.9895 269.603 18.2409C269.891 18.4529 270.106 18.724 270.25 19.0543C270.394 19.3845 270.465 19.7518 270.465 20.156ZM271.855 14.4552H273.252V22.7143H271.855V14.4552ZM283.005 22.7143H281.622V16.5108L277.274 22.7143H276.01V14.4552H277.393V20.5701L281.697 14.4552H283.005V22.7143ZM282.209 11.2018C282.185 11.9314 281.952 12.5008 281.511 12.9099C281.074 13.319 280.437 13.5236 279.6 13.5236C278.763 13.5236 278.124 13.319 277.683 12.9099C277.247 12.5008 277.017 11.9314 276.991 11.2018H278.262C278.267 11.7195 278.382 12.0941 278.605 12.3258C278.832 12.5575 279.165 12.6733 279.6 12.6733C280.042 12.6733 280.373 12.5599 280.596 12.3332C280.82 12.1064 280.933 11.7293 280.938 11.2018H282.209ZM188.459 41.2222H187.061V34.1609H182.906V41.2222H181.509V32.9631H188.459V41.2222ZM197.667 41.2222H196.278V40.3423C196.154 40.4261 195.985 40.5444 195.772 40.6973C195.564 40.8452 195.361 40.9634 195.162 41.0522C194.93 41.1655 194.663 41.2592 194.36 41.3331C194.058 41.412 193.704 41.4515 193.297 41.4515C192.549 41.4515 191.915 41.205 191.394 40.7121C190.874 40.2191 190.614 39.5906 190.614 38.8265C190.614 38.2005 190.748 37.6953 191.015 37.3108C191.287 36.9214 191.674 36.6158 192.175 36.3939C192.68 36.1722 193.287 36.0218 193.996 35.9429C194.704 35.8641 195.465 35.8049 196.278 35.7655V35.5511C196.278 35.2356 196.22 34.9743 196.107 34.7672C195.998 34.5603 195.839 34.3976 195.631 34.2793C195.433 34.1659 195.195 34.0895 194.917 34.0501C194.64 34.0106 194.351 33.9909 194.048 33.9909C193.682 33.9909 193.272 34.0402 192.822 34.1388C192.371 34.2324 191.905 34.3705 191.424 34.5529H191.35V33.1406C191.622 33.0667 192.016 32.9853 192.531 32.8966C193.047 32.8078 193.555 32.7635 194.055 32.7635C194.64 32.7635 195.148 32.8128 195.579 32.9114C196.015 33.005 196.392 33.1677 196.709 33.3994C197.021 33.6261 197.259 33.9194 197.422 34.2793C197.586 34.6391 197.667 35.0852 197.667 35.6176V41.2222ZM196.278 39.1889V36.8893C195.852 36.914 195.348 36.951 194.769 37.0002C194.194 37.0495 193.738 37.121 193.401 37.2147C193 37.3281 192.675 37.5055 192.427 37.747C192.18 37.9837 192.056 38.3114 192.056 38.7305C192.056 39.2037 192.2 39.561 192.487 39.8026C192.774 40.0392 193.213 40.1575 193.803 40.1575C194.293 40.1575 194.741 40.0638 195.148 39.8765C195.554 39.6843 195.931 39.455 196.278 39.1889ZM207.665 36.9929C207.665 37.6632 207.568 38.2769 207.375 38.8339C207.181 39.3861 206.909 39.8543 206.557 40.2389C206.23 40.6035 205.844 40.8871 205.398 41.0891C204.957 41.2863 204.489 41.3849 203.993 41.3849C203.562 41.3849 203.17 41.3381 202.819 41.2444C202.472 41.1507 202.117 41.0053 201.755 40.8081V44.2685H200.358V32.9631H201.755V33.8282C202.128 33.5177 202.544 33.2589 203.005 33.0519C203.471 32.8399 203.966 32.734 204.491 32.734C205.492 32.734 206.27 33.111 206.825 33.8652C207.385 34.6145 207.665 35.6571 207.665 36.9929ZM206.223 37.0298C206.223 36.0341 206.052 35.2898 205.71 34.7969C205.368 34.304 204.843 34.0575 204.134 34.0575C203.733 34.0575 203.329 34.1437 202.923 34.3162C202.517 34.4888 202.128 34.7155 201.755 34.9965V39.6769C202.152 39.8543 202.492 39.9751 202.774 40.0392C203.061 40.1032 203.386 40.1353 203.748 40.1353C204.526 40.1353 205.133 39.8741 205.569 39.3516C206.005 38.8291 206.223 38.0552 206.223 37.0298ZM215.945 34.1831H212.942V41.2222H211.545V34.1831H208.542V32.9631H215.945V34.1831ZM224.344 41.2222H222.947V37.5031H218.792V41.2222H217.395V32.9631H218.792V36.3053H222.947V32.9631H224.344V41.2222ZM234.052 37.2369H227.934C227.934 37.7446 228.011 38.1883 228.165 38.5678C228.319 38.9424 228.529 39.2505 228.797 39.4921C229.055 39.7286 229.359 39.9061 229.711 40.0244C230.068 40.1427 230.459 40.2018 230.886 40.2018C231.45 40.2018 232.018 40.091 232.587 39.8691C233.162 39.6424 233.571 39.4206 233.814 39.2037H233.888V40.7194C233.418 40.9166 232.937 41.0817 232.446 41.2148C231.955 41.3479 231.44 41.4144 230.9 41.4144C229.522 41.4144 228.447 41.0448 227.674 40.3054C226.901 39.561 226.515 38.5062 226.515 37.1407C226.515 35.7901 226.884 34.718 227.622 33.9244C228.365 33.1307 229.342 32.734 230.551 32.734C231.67 32.734 232.533 33.0593 233.138 33.7099C233.747 34.3607 234.052 35.2849 234.052 36.4827V37.2369ZM232.691 36.1722C232.687 35.4426 232.501 34.8782 232.134 34.4789C231.773 34.0797 231.22 33.88 230.476 33.88C229.729 33.88 229.132 34.0994 228.685 34.5381C228.244 34.9768 227.994 35.5214 227.934 36.1722H232.691ZM243.476 36.9929C243.476 37.6632 243.38 38.2769 243.187 38.8339C242.993 39.3861 242.721 39.8543 242.369 40.2389C242.042 40.6035 241.655 40.8871 241.21 41.0891C240.768 41.2863 240.301 41.3849 239.805 41.3849C239.374 41.3849 238.982 41.3381 238.63 41.2444C238.284 41.1507 237.929 41.0053 237.567 40.8081V44.2685H236.17V32.9631H237.567V33.8282C237.939 33.5177 238.356 33.2589 238.816 33.0519C239.282 32.8399 239.777 32.734 240.302 32.734C241.304 32.734 242.082 33.111 242.636 33.8652C243.196 34.6145 243.476 35.6571 243.476 36.9929ZM242.034 37.0298C242.034 36.0341 241.864 35.2898 241.522 34.7969C241.18 34.304 240.654 34.0575 239.946 34.0575C239.545 34.0575 239.14 34.1437 238.734 34.3162C238.328 34.4888 237.939 34.7155 237.567 34.9965V39.6769C237.964 39.8543 238.303 39.9751 238.586 40.0392C238.873 40.1032 239.198 40.1353 239.56 40.1353C240.337 40.1353 240.944 39.8741 241.381 39.3516C241.817 38.8291 242.034 38.0552 242.034 37.0298Z" fill="#E21E26"/>
</svg>
