<svg width="204" height="42" viewBox="0 0 204 42" fill="none" xmlns="http://www.w3.org/2000/svg">
<path fill-rule="evenodd" clip-rule="evenodd" d="M204 40.7907C203.927 40.7924 203.854 40.7942 203.781 40.796C202.944 40.8165 202.106 40.8371 201.273 40.7066C200.067 40.5182 199.49 40.9408 198.979 41.3146C198.606 41.588 198.268 41.8353 197.746 41.7982C196.449 41.7073 193.242 41.6622 189.393 41.6082C181.029 41.4907 169.632 41.3306 168.211 40.5647C166.87 39.8411 164.127 40.0782 161.396 40.3143C159.79 40.4531 158.188 40.5915 156.878 40.5339C156.294 40.5085 154.698 40.8424 153.869 41.0159L153.869 41.016C153.601 41.0719 153.414 41.1112 153.365 41.1164C152.335 41.2257 151.835 41.1841 151.5 41.1562C151.144 41.1266 150.975 41.1125 150.553 41.3117C149.688 41.7194 148.822 41.6248 147.937 41.4713C147.488 41.3937 147.631 41.0748 147.754 40.8022C147.853 40.5842 147.938 40.3957 147.695 40.3838C147.419 40.3695 147.152 40.3022 146.885 40.2347C146.538 40.1471 146.19 40.0592 145.819 40.0871C145.38 40.1203 145.11 39.976 144.785 39.8022C144.317 39.552 143.736 39.2409 142.369 39.31C140.788 39.3902 141.615 40.2776 142.291 40.4421C142.374 40.4625 142.444 40.5585 142.505 40.6411L142.524 40.6668C142.738 40.9533 141.902 41.0836 141.311 41.1757C141.111 41.207 140.938 41.2339 140.845 41.261C140.137 41.4661 139.859 41.432 139.553 41.3945C139.318 41.3657 139.066 41.3348 138.591 41.4083C137.937 41.5095 137.7 41.3617 137.412 41.1815C137.119 40.9982 136.773 40.7815 135.878 40.7594C134.409 40.7238 133.986 40.582 133.602 40.4538C132.943 40.2333 132.404 40.053 126.876 40.5222C126.596 40.5461 126.436 40.6075 126.302 40.6585C126.08 40.7437 125.932 40.7999 125.431 40.6045C122.726 39.5536 123.207 39.5402 124.194 39.5127C124.662 39.4997 125.243 39.4836 125.652 39.3525C125.928 39.2648 126.287 39.3285 126.577 39.4204C127.38 39.6753 128.18 39.6958 129.002 39.5553C129.435 39.4817 129.682 39.5848 129.907 39.679C129.961 39.7018 130.014 39.724 130.069 39.7432C130.77 39.9905 130.947 38.8519 130.205 38.7961C122.771 38.2471 117.134 38.3504 113.007 38.426C109.767 38.4854 107.458 38.5277 105.942 38.2239C105.717 38.1787 103.925 37.9717 103.18 38.5521C102.713 38.9154 102.575 38.9054 101.506 38.8276C100.725 38.7709 99.4497 38.6781 97.1891 38.6679C96.2804 38.6638 95.4984 38.8391 94.7237 39.0128L94.7236 39.0128C93.6852 39.2456 92.66 39.4754 91.3609 39.2662C91.1971 39.2402 87.6337 39.333 86.5366 39.3616C86.3624 39.3662 86.2504 39.3691 86.2241 39.3696C85.8141 39.3795 85.6786 39.1647 85.5451 38.953C85.437 38.7817 85.3302 38.6124 85.0803 38.5658C84.2206 38.4039 83.6286 38.5085 82.8536 38.6455C82.7264 38.668 82.5942 38.6913 82.4552 38.7145C82.2167 38.754 82.1872 38.8144 82.1613 38.8675C82.1113 38.9701 82.0745 39.0455 80.5704 38.8907C79.3301 38.7633 78.8474 38.8474 78.5336 38.9021C78.2716 38.9477 78.1274 38.9728 77.7583 38.8372C76.992 38.5565 76.5634 38.5708 75.7886 38.5966C75.2241 38.6154 74.4758 38.6403 73.2793 38.5617C72.6119 38.5179 72.0865 38.4851 71.6684 38.4598C70.4167 38.3841 70.3551 37.7509 71.5829 37.4961C72.2106 37.3663 72.3606 37.439 72.5896 37.5498C72.7704 37.6374 73.0005 37.7487 73.5536 37.8031C73.7376 37.8211 73.8978 37.8374 74.0383 37.8517C74.7039 37.9192 74.9269 37.9418 75.1324 37.8923C75.236 37.8674 75.3351 37.8241 75.4842 37.7591C75.6282 37.6962 75.8188 37.6131 76.1051 37.5064C76.3684 37.4086 77.7986 37.3962 79.3859 37.3823H79.386C81.9927 37.3596 85.023 37.3331 84.0045 36.9192C83.5728 36.7444 80.2665 36.4813 78.7096 36.8561C78.4684 36.9137 78.1817 36.9356 77.9521 36.8629C77.1595 36.6087 74.9194 36.6634 71.2507 36.7531H71.2506C67.6429 36.8412 62.6537 36.9631 56.301 36.8582C55.9404 36.8519 55.9052 36.5861 55.866 36.2905C55.8112 35.8768 55.7487 35.4047 54.7758 35.5034C54.0702 35.5753 53.946 35.3029 53.8432 35.0773C53.8167 35.0191 53.7917 34.9641 53.7584 34.9189C53.1048 34.0283 52.5673 34.1506 51.8102 34.323C51.1931 34.4635 50.4301 34.6372 49.3393 34.3227C48.6913 34.1368 48.4127 34.2901 48.1059 34.4589C47.7863 34.6348 47.4361 34.8275 46.6056 34.6708C44.8104 34.3331 43.0731 34.6038 41.781 34.8052C41.209 34.8943 40.7242 34.9698 40.3602 34.973C39.9303 34.9767 39.5689 35.0616 39.2464 35.1729C37.8301 35.6619 36.3006 35.971 34.8042 35.8933C34.3136 35.8682 33.8299 35.9447 33.3439 36.0215C32.8889 36.0934 32.4319 36.1657 31.9656 36.1551C30.2222 36.1169 29.117 36.3371 28.1814 36.5235C27.1828 36.7225 26.3773 36.883 25.1951 36.6498C24.9629 36.6039 24.6511 36.6231 24.4664 36.7451C22.9383 37.765 20.9972 37.7324 19.0831 37.7002C18.3747 37.6883 17.6699 37.6765 16.9912 37.7181C16.5576 37.7447 16.1704 37.7277 15.8747 37.6339C15.7449 37.5927 15.6184 37.5563 15.4948 37.5239C13.2921 36.9474 10.909 36.9258 8.58084 36.9047C7.90054 36.8986 7.22494 36.8925 6.55991 36.8726C4.24104 36.8025 3.12018 36.8978 2.34485 36.9636H2.34482C1.60249 37.0267 1.17689 37.0629 0.319809 36.9013C0.0284289 36.8451 -0.21669 36.188 0.304756 36.0955C1.08378 35.957 1.45642 35.9703 1.88251 35.9855C2.39249 36.0036 2.97904 36.0246 4.43062 35.7912C5.60562 35.6028 6.80936 35.4321 8.01681 35.674C8.4175 35.754 8.80157 35.6881 9.17525 35.6239C9.7266 35.5293 10.2553 35.4385 10.7814 35.8262C10.8573 35.881 11.0265 35.8714 11.1245 35.8289C11.7071 35.5786 12.059 35.5295 12.8672 35.4168C13.2621 35.3616 13.7661 35.2913 14.4591 35.1749C14.8346 35.1118 15.0849 34.8616 15.3386 34.6079C15.5668 34.3797 15.7979 34.1487 16.1255 34.0486C16.1971 34.0272 16.2672 33.9871 16.3364 33.9477C16.4376 33.8899 16.5367 33.8333 16.6351 33.8382C17.1154 33.8627 17.5857 33.7944 18.0571 33.7259C18.4563 33.6679 18.8562 33.6098 19.2635 33.608C21.3672 33.5917 23.5347 33.4852 25.6032 33.1018C26.0761 33.0142 26.6186 32.8639 27.2621 32.5979C27.4995 32.5001 27.6159 32.3782 27.7232 32.2657C27.8647 32.1174 27.9906 31.9855 28.3579 31.9469C28.6327 31.9177 28.9621 31.8798 29.3244 31.838C30.5458 31.6972 32.1411 31.5132 33.277 31.4789C33.5441 31.4706 33.8077 31.5277 34.0711 31.5849C34.4826 31.6741 34.8938 31.7633 35.3182 31.6029C35.8915 31.3853 36.8893 31.3447 37.8176 31.3068C39.0325 31.2573 40.1284 31.2126 39.9983 30.7826C39.9035 30.4674 39.4712 30.0049 39.1922 30.131C38.7645 30.3234 38.3506 30.2428 37.9341 30.1617L37.9341 30.1617C37.618 30.1001 37.3003 30.0383 36.9741 30.0953C36.3873 30.1988 35.6372 30.1628 34.9322 30.129C34.1517 30.0916 33.4264 30.0568 33.0388 30.2166C32.7072 30.3544 32.2725 30.3578 31.9103 30.2893C31.2468 30.1624 30.0292 30.2892 28.7515 30.4224C27.6759 30.5344 26.5576 30.651 25.6911 30.6243C24.82 30.5974 24.5974 30.5455 24.4544 30.5121C24.2952 30.475 24.2347 30.4608 23.4888 30.5298C23.2619 30.5507 23.0238 30.5761 22.779 30.6021C21.3257 30.7569 19.6374 30.9366 18.672 30.366C17.8551 29.8837 17.4309 30.2029 17.0957 30.4551C16.9293 30.5802 16.7849 30.6889 16.6252 30.6751C16.3207 30.6483 16.1986 30.3201 16.347 30.183C17.1735 29.4272 17.723 29.5109 18.2266 29.5876C18.5864 29.6424 18.9227 29.6937 19.3199 29.4327C20.7097 28.5176 22.493 27.767 24.0934 28.2224C24.1404 28.2358 24.1858 28.2503 24.2303 28.2646L24.2304 28.2646C24.4826 28.3452 24.7058 28.4166 25.0161 28.2164C25.2707 28.0521 25.5481 28.0984 25.8322 28.1458C26.0519 28.1824 26.2755 28.2197 26.4958 28.1608C26.7737 28.0868 29.3296 27.9292 29.8965 27.9655C30.1781 27.9823 30.4461 27.9114 30.7127 27.8409C31.0548 27.7504 31.3945 27.6606 31.758 27.7572C31.8743 27.7881 32.019 27.7839 32.1337 27.7456C33.0389 27.4442 33.9743 27.408 34.909 27.3718C35.3003 27.3567 35.6914 27.3416 36.0802 27.307C37.1654 27.2112 38.2264 26.9995 39.2892 26.7874L39.2893 26.7874L39.4534 26.7547C40.2112 26.6046 40.1097 25.8789 39.8605 25.8604C38.756 25.7772 37.6253 25.9067 36.518 26.0336L36.515 26.0339C36.3789 26.0495 36.2432 26.0651 36.1079 26.0802C34.9229 26.2125 34.8941 26.1911 34.8067 26.1262C34.7472 26.082 34.6606 26.0177 34.1638 25.968C33.8735 25.9388 33.6529 25.9148 33.4826 25.8962C33.059 25.8501 32.9463 25.8378 32.8441 25.8649C32.807 25.8747 32.7713 25.8897 32.7227 25.9101C32.607 25.9587 32.4181 26.038 31.9634 26.1516C31.7767 26.1985 31.5601 26.074 31.3453 25.9505C31.1745 25.8523 31.0048 25.7547 30.852 25.7445C29.3148 25.6413 25.4598 25.5661 25.3479 25.5945C24.2564 25.8734 23.2802 25.1649 24.126 25.1388C25.2232 25.1051 25.9226 25.1546 26.4308 25.1906H26.4309C27.1503 25.2415 27.4868 25.2653 28.0269 24.9874C28.1804 24.9086 28.4183 24.8894 28.58 24.9483C29.1235 25.1448 29.6287 25.0263 30.1568 24.9023L30.2414 24.8825C30.5694 24.8066 31.0038 24.7836 31.5209 24.7563H31.521C32.0363 24.7291 32.6337 24.6975 33.2895 24.6048C33.6652 24.5517 34.0174 24.4128 34.3702 24.2737C34.6705 24.1552 34.9713 24.0365 35.2876 23.9705C35.483 23.93 35.5886 23.2735 34.6826 23.155L34.5735 23.1404C33.9196 23.0532 33.2851 22.9686 32.8164 22.4012C32.5544 22.0832 30.3328 22.7267 29.908 22.9556C29.5374 23.155 29.0482 23.1584 28.6828 22.7623C28.4972 22.5616 28.2599 22.4704 26.6486 22.6452C25.7138 22.7466 25.4002 22.5417 25.1515 22.3792C24.9132 22.2235 24.7346 22.1067 24.126 22.3361C23.3679 22.6224 22.8336 22.2044 22.2465 21.64C21.9167 21.3229 21.5579 21.0016 21.1048 20.9384C20.6458 20.8743 20.1868 20.9815 19.728 21.0887L19.6705 21.1021C19.4964 21.1426 19.4107 21.1832 19.2614 21.2813C18.5949 21.7193 18.3106 20.8244 19.0987 20.7024C19.8809 20.5812 20.8701 20.4817 22.0325 20.4348C22.2837 20.4246 22.529 20.3667 22.7585 20.264C22.8747 20.212 22.9916 20.1694 23.1107 20.1618C23.334 20.1486 23.5641 20.187 23.7933 20.2253C24.2053 20.2941 24.6144 20.3625 24.9761 20.1296C25.4114 19.8488 27.3512 19.7478 29.2698 19.6479C31.7572 19.5183 34.2091 19.3906 33.3016 18.8756C32.7888 18.5846 32.5904 17.9053 33.0297 17.5119C33.1832 17.3735 32.9991 16.9623 32.5104 16.9349C32.4389 16.9315 32.3621 16.9424 32.2862 16.9531C32.1614 16.9707 32.039 16.9879 31.947 16.9411C31.3578 16.6404 31.3416 16.5438 32.0007 16.4865C33.3709 16.3672 34.8855 16.1481 35.5802 15.7145C35.7329 15.6196 36.0135 15.65 36.33 15.6843C36.5713 15.7105 36.8335 15.7389 37.0758 15.7158C39.9748 15.4417 40.02 15.2859 40.1275 14.9155C40.1973 14.6747 40.2934 14.3434 41.2162 13.83C42.3498 13.2009 38.3584 12.3457 36.2703 12.6088C35.9571 12.6484 35.6345 12.6152 35.312 12.582C35.0106 12.551 34.7092 12.52 34.4155 12.5484C33.721 12.6155 33.0265 12.6823 32.3316 12.7445C31.9317 12.7804 31.8106 12.7459 31.6683 12.7054C31.455 12.6446 31.194 12.5702 29.8745 12.6993C29.4421 12.742 29.5467 12.1917 29.9749 12.1179C30.0975 12.0967 30.2208 12.0779 30.3442 12.0591L30.3445 12.059C30.7426 11.9983 31.1411 11.9375 31.5204 11.7975C32.0167 11.6152 32.1999 11.6536 32.4963 11.7157C32.8451 11.7888 33.3507 11.8948 34.7081 11.7125C34.7364 11.7087 34.7648 11.7051 34.7932 11.7016C35.3169 11.6371 35.8464 11.5268 36.3779 11.4161C37.3992 11.2034 38.4277 10.9892 39.4363 11.0953C39.5635 11.1087 39.6894 11.1239 39.8127 11.1387L39.8131 11.1388C39.8989 11.1491 39.9834 11.1593 40.0664 11.1686C41.4961 11.3295 40.8465 10.1295 39.4078 10.1426C38.337 10.1524 38.4731 9.52297 39.5394 9.62137C40.0142 9.6652 40.4405 9.71344 40.7418 9.7647C40.9778 9.80482 41.2177 9.82554 41.4553 9.79656C41.9667 9.73417 42.9405 9.63956 43.8341 9.68915C44.0601 9.70169 44.2853 9.72089 44.5101 9.74005L44.5101 9.74005C45.0658 9.78742 45.619 9.83457 46.1759 9.78053C46.8684 9.71332 47.6612 9.63096 47.949 9.60107L47.9491 9.60106L48.0532 9.59028C48.4086 9.5511 48.3792 9.34548 48.3475 9.16392C48.3369 9.10305 48.2759 9.06088 48.2159 9.0756C48.1782 9.08484 48.1386 9.07158 48.1141 9.04153L48.0877 9.00919C48.0574 8.97215 48.0126 8.95034 47.9649 8.94655C47.7855 8.9323 47.6567 8.89308 47.5635 8.83765C47.4131 8.74824 47.2881 8.63216 47.1681 8.52066C46.9418 8.31053 46.7331 8.11669 46.4049 8.14836C45.7784 8.20881 45.303 8.26017 44.9329 8.30015L44.9328 8.30015C43.7968 8.42287 43.6531 8.43839 43.1803 8.28072C42.8055 8.15603 41.6795 8.2048 40.4199 8.25936C39.3052 8.30763 38.086 8.36044 37.19 8.3016C36.9266 8.2843 36.768 8.06401 36.6112 7.84623L36.6111 7.84616C36.5834 7.80755 36.5556 7.76902 36.5274 7.73172C36.3133 7.44915 36.2483 6.98736 36.6006 6.94733C37.2803 6.87007 37.9694 6.92682 38.6587 6.99656C39.3587 7.0671 39.6583 6.8944 39.9271 6.73947C40.2485 6.55424 40.5258 6.39442 41.3905 6.706C43.2017 7.35618 45.1586 7.17526 47.1223 6.9937C48.3264 6.88238 49.5331 6.77082 50.7103 6.85047C50.902 6.86343 51.0872 6.87646 51.2666 6.88908C52.5978 6.9827 53.6108 7.05395 54.5764 6.91228C55.0586 6.84059 55.5397 6.88726 56.018 6.93367C56.4267 6.97333 56.8334 7.01279 57.2373 6.97806C57.5559 6.95124 57.8752 6.89643 58.1946 6.84161C58.7564 6.74516 59.3184 6.6487 59.8768 6.70462C60.2762 6.74505 65.6006 6.84169 66.7176 6.68682C67.0003 6.64768 66.821 6.13758 66.5495 6.04946C66.2986 5.96802 66.0379 5.93935 65.767 6.00635C65.5519 6.05919 65.331 6.06294 65.1134 6.06663C64.8879 6.07046 64.666 6.07423 64.4575 6.13246C64.1569 6.21635 63.8997 6.10288 63.646 5.99098C63.3816 5.87437 63.1211 5.75947 62.8195 5.87137C62.7837 5.88439 62.6318 5.70966 62.7356 5.70966C63.4515 5.7092 64.1475 5.5735 64.8436 5.4378C65.2009 5.36814 65.5582 5.29848 65.9182 5.24711C66.1423 5.21516 66.341 5.18495 66.5174 5.15815C67.2851 5.04147 67.6295 4.98912 67.8027 5.13712C67.9436 5.25754 67.9712 5.51059 68.0212 5.96952C68.0276 6.02806 68.0343 6.08996 68.0417 6.15536C68.0445 6.17961 68.0601 6.20151 68.0824 6.21128C68.0917 6.21532 68.1022 6.21725 68.1123 6.21697C68.3357 6.21076 68.5232 6.20883 68.6845 6.20716C69.6065 6.19764 69.6742 6.19694 70.7154 5.45884C71.0648 5.2108 71.2481 5.20231 72.3543 5.15107C72.6997 5.13506 73.1352 5.11489 73.6938 5.08195C74.0696 5.05891 74.1324 4.85868 74.1953 4.65798C74.2615 4.4468 74.3279 4.23511 74.7593 4.22879C74.7635 4.22872 74.7858 4.22682 74.8257 4.22341C75.2225 4.18947 77.3618 4.00652 80.8075 4.00403C81.3052 4.00347 82.2905 3.55319 82.8345 3.30458L82.8349 3.30442C82.9541 3.24992 83.0522 3.20512 83.1192 3.17691C83.7731 2.90168 84.2942 2.96593 84.9421 3.04581C85.5412 3.11968 86.2488 3.20692 87.2703 3.05153C87.4792 3.01932 87.8504 2.64584 87.7356 2.61227C87.6283 2.58047 87.5192 2.53849 87.4098 2.49642C87.1516 2.39705 86.8921 2.29719 86.6516 2.32993C84.9496 2.56659 83.2003 2.41678 81.4584 2.26763C80.5247 2.18767 79.5932 2.10789 78.6722 2.08794C77.9222 2.07169 77.4035 2.00597 77.3692 1.73786C77.2737 0.980696 81.2052 1.00659 85.4419 1.0345C88.8585 1.05701 92.4737 1.08083 94.3351 0.696281C94.5166 0.659277 94.7215 0.622945 94.8947 0.668172C95.5296 0.831281 96.1766 0.833496 96.8235 0.835711C97.3834 0.837628 97.9432 0.839545 98.4952 0.945723C98.5811 0.96217 98.7179 0.857308 98.7887 0.773707C99.035 0.483717 98.9537 0.223475 98.6884 0H194C199.523 0 204 4.47715 204 10V40.7907ZM43.1539 27.0107C43.3263 26.8375 43.393 26.5865 43.2021 26.349C43.3891 26.5822 43.3284 26.8349 43.1539 27.0107ZM45.1772 28.646C45.6517 28.4207 45.7956 29.1455 45.2994 28.9734C45.0958 28.9028 44.9708 28.7446 45.1772 28.646ZM100.976 0.706469C101.16 0.761014 100.847 1.03837 100.656 1.02252C100.436 1.00422 100.633 0.711703 100.854 0.695282C100.897 0.692017 100.939 0.69532 100.976 0.706469Z" fill="#E21E26"/>
</svg>
