<svg id="Слой_1" preserveAspectRatio="none" data-name="Слой 1" xmlns="http://www.w3.org/2000/svg" viewBox="0 0 1200 481"><title>redbg-2</title><path d="M407.23,0a2.84,2.84,0,0,1,.12.57,1,1,0,0,0,1.13,1.09c6.64,0.51,5.51,1.61,4.35,2.72-0.19.18-.38,0.36-0.53,0.54A0.84,0.84,0,0,0,412.83,6l1,0.07c0.56,0,1,.07,1.31.11a3.06,3.06,0,0,1,.94.23,5.62,5.62,0,0,1,1.24.92c0.42,0.37,1,.86,1.82,1.52a0.53,0.53,0,0,1,0,.7,0.92,0.92,0,0,0-.1.6,4.61,4.61,0,0,1,.2,2,2.89,2.89,0,0,0,.59,2.19,1.64,1.64,0,0,0,1.56.78c1.2-.09,2.4-0.06,3.61,0h0a27.82,27.82,0,0,0,4.86-.17,5.29,5.29,0,0,1,4.45,1.14,3.49,3.49,0,0,0,2.39.91c2.51-.17,8.73-0.26,16.19-0.36,16.21-.22,38.3-0.52,41.05-2,2.6-1.36,7.92-.91,13.21-0.47a74.82,74.82,0,0,0,8.75.41,39,39,0,0,1,5.83.91l1,0.19a17.54,17.54,0,0,0,3.61.07,2.91,2.91,0,0,1,1.84.29,8.35,8.35,0,0,0,5.07.3c0.87-.15.59-0.75,0.35-1.26a1.76,1.76,0,0,1-.19-0.53c0-.15.07-0.24,0.3-0.26a8.37,8.37,0,0,0,1.57-.28,6.6,6.6,0,0,1,2.07-.28,3.39,3.39,0,0,0,2-.54,7.88,7.88,0,0,1,4.68-.92c3.06,0.15,1.46,1.82.15,2.13a0.44,0.44,0,0,0-.18.11,1.83,1.83,0,0,0-.23.27l0,0c-0.42.54,1.21,0.78,2.35,1h0c0.39,0.06.72,0.11,0.9,0.16a5.35,5.35,0,0,0,2.5.25,6,6,0,0,1,1.86,0,2.8,2.8,0,0,0,2.28-.43,5.1,5.1,0,0,1,3-.79,13.16,13.16,0,0,0,4.41-.57c1.28-.41,2.32-0.75,13,0.13a3.74,3.74,0,0,1,1.11.26,1.91,1.91,0,0,0,1.69-.1c5.24-2,4.31-2,2.4-2.05a11.6,11.6,0,0,1-2.83-.3,3.28,3.28,0,0,0-1.79.13,10.06,10.06,0,0,1-4.7.25,2.86,2.86,0,0,0-1.75.23l-0.33.12c-1.34.45-1.67-1.68-.25-1.78,14.41-1,25.34-.84,33.33-0.7h0c6.28,0.11,10.75.19,13.69-.38,0.44-.08,3.91-0.47,5.35.62,0.9,0.68,1.17.66,3.24,0.52,1.51-.11,4-0.28,8.37-0.3a21.24,21.24,0,0,1,4.78.65,16.58,16.58,0,0,0,6.52.48c0.32,0,7.22.13,9.35,0.18h0.6a1.34,1.34,0,0,0,1.32-.78,1.33,1.33,0,0,1,.9-0.73,11.07,11.07,0,0,1,4.32.15l0.77,0.13a0.59,0.59,0,0,1,.57.29c0.1,0.19.17,0.33,3.08,0a13.14,13.14,0,0,1,3.95,0,2.38,2.38,0,0,0,1.5-.12,8.69,8.69,0,0,1,3.82-.45h0a45.73,45.73,0,0,0,4.86-.07l3.13-.19c2.39-.14,2.5-1.34.16-1.81a2.48,2.48,0,0,0-2,.1,4.88,4.88,0,0,1-1.87.48l-0.94.09a7.2,7.2,0,0,1-2.12.08,4.31,4.31,0,0,1-.68-0.25h0c-0.28-.12-0.65-0.27-1.2-0.47a48.76,48.76,0,0,0-6.36-.23c-5.05,0-10.93-.09-9-0.87a32.58,32.58,0,0,1,10.26-.12,3,3,0,0,0,1.47,0c1.54-.48,5.88-0.37,13-0.21h0c2.46,0.06,5.24.12,8.36,0.18A3.46,3.46,0,0,0,691,9.58c2.91,4,4.87,3.42,7.84,2.59a17.8,17.8,0,0,1,8.61-.67l0.74,0.12,0.75,0.1c1.85,0.24,2.84.37,1.45,1.7-1.76,1.67-.71,1.77.84,1.92,0.44,0,.92.09,1.38,0.17a4.57,4.57,0,0,1,1.35.44,3.24,3.24,0,0,1,2,3.19c0,0.65,0,1.14.71,1.31s1.43,0.33,2,.43h0c1.42,0.27,2.23.42,3,1.46C722.95,24,737,24,739.16,24c1.41,0,1.07-.82.66-1.79s-0.84-2,.09-2.62a4,4,0,0,1,2.11-.75,1.23,1.23,0,0,0,1.31-.93c0-.12.1-0.27,0.15-0.44s0.17-.6.25-0.9a5.41,5.41,0,0,1,.32-1c1.27-1.44,1.72-1.52,2.29-1.62a4.56,4.56,0,0,0,2.3-1.15c2.37-1.83,6.73-2.35,8.71-2.21,4.66,0.33,5.46.3,5.8-.08a0.9,0.9,0,0,0,0-.71,1.49,1.49,0,0,1,.65-2,7.64,7.64,0,0,1,.9-0.35l0.53-.19,0.26-.11a13.56,13.56,0,0,0,5.73.23,2.14,2.14,0,0,1,1.41.18c3,1.93,6.72,1.86,10.42,1.8,1.38,0,2.74,0,4.07,0a9.8,9.8,0,0,0,1.14,0,4.4,4.4,0,0,0,1-.17l0.37-.11L790,9c4.28-1.09,8.89-1.13,13.4-1.17,1.32,0,2.64,0,3.93-.06a64.8,64.8,0,0,1,8.17.17,12.44,12.44,0,0,0,3.92-.12,0.86,0.86,0,0,0,.4-1.36,4.65,4.65,0,0,0,.86-0.15,3.13,3.13,0,0,1,1.79,0,9.7,9.7,0,0,0,3.78,0,7.65,7.65,0,0,1,5.54.84c0.41,0.24,2.45,1.17,3.36,0,1.27-1.57,5.42-1.7,7-1.28a2,2,0,0,0,2.12-.44,2.22,2.22,0,0,1,1.15-.59c0.39-.06,63.65.9,53.36,1.83-5.5.5-5.64,0.47-6.54,0.34h0a65.28,65.28,0,0,0-11.52-.27h0c-3.88.12-8.43,0.27-14.28,0l-1.69-.06-3.53-.07-2,0c-1,0-2.09,0-3.12-.09-2.73-.11-3.43.17-3.53,1.41-0.06.71,0.07,0.94,0.62,1,0.31,0,.63,0,0.95.08a3.51,3.51,0,0,0,2.64-.37c1.51-1.08,4.56-1,5.73.34,0.65,0.76,1.68.23,2.18,0l0.17-.08a3.16,3.16,0,0,1,3.36.06,2.71,2.71,0,0,0,1.51.46c1.2,0,2.15-.07,2.9-0.08,2.64-.06,3-0.07,3.42-0.82a0.66,0.66,0,0,1,.61,0,3.19,3.19,0,0,0,2.73.78,23.27,23.27,0,0,1,4.16,0,4.45,4.45,0,0,0,.67,0,2,2,0,0,0,.68-0.18,7.08,7.08,0,0,1,3.5-.47,25.88,25.88,0,0,0,3.79-.08,26.82,26.82,0,0,1,6.33.09h0c1.38,0.16,2.19.26,3.12-.34,2.46-1.6,5.54-1.34,8.62-1.09a31,31,0,0,0,4.41.16c0.24,0,.48,0,0.74-0.08,0.54-.08,1.07-0.21,1.59-0.34a13.42,13.42,0,0,1,2-.38c1.63-.14,4.78,0,8.14.05,5.59,0.17,11.78.35,12.57-.5,0.19-.21-0.22-0.64-0.64-0.62-0.26,0-.51,0-0.77.08l-0.69.08c-0.14,0-.3-0.48-0.1-0.48s1.72-.11,3.3-0.3a10.4,10.4,0,0,0,3.12-1.17,8.83,8.83,0,0,1,3.63-1.22c1.49,0,2.17-.53,1.76-0.92,7-.17,11.31-0.26,12.83.21a3,3,0,0,0,1.47,0,32.58,32.58,0,0,1,10.26.12c2,0.78-3.9.83-9,.87a48.76,48.76,0,0,0-6.36.23c-0.55.2-.93,0.36-1.2,0.47a4.3,4.3,0,0,1-.68.25,12,12,0,0,1-3.06-.17A4.88,4.88,0,0,1,951.69,3a2.48,2.48,0,0,0-2-.1c-2.34.47-2.23,1.67,0.16,1.81l0.72,0L953,4.91a45.73,45.73,0,0,0,4.86.07h0a8.69,8.69,0,0,1,3.82.45,3.28,3.28,0,0,0,.65.17,2.57,2.57,0,0,0,.85-0.05,13.14,13.14,0,0,1,3.95,0c2.92,0.29,3,.15,3.08,0a0.59,0.59,0,0,1,.57-0.29l0.77-.13a11.07,11.07,0,0,1,4.32-.15,1.33,1.33,0,0,1,.9.73,1.34,1.34,0,0,0,1.32.78h0.61c2.13-.05,9-0.23,9.35-0.18a16.57,16.57,0,0,0,6.52-.48,21.26,21.26,0,0,1,4.78-.65c4.38,0,6.86.19,8.37,0.3,2.07,0.15,2.34.17,3.24-.52,1.45-1.09,4.92-.7,5.36-0.62,2.93,0.57,7.41.49,13.69,0.38,8-.14,18.92-0.34,33.33.7,1.42,0.1,1.1,2.24-.25,1.78L1062.79,7a2.88,2.88,0,0,0-1.76-.23,10.07,10.07,0,0,1-4.7-.25,3.27,3.27,0,0,0-1.79-.13,11.61,11.61,0,0,1-2.83.3c-1.91.05-2.84,0.08,2.4,2.05a1.92,1.92,0,0,0,1.69.1l0.27-.1a3.65,3.65,0,0,1,.84-0.16c10.72-.88,11.76-0.54,13-0.13a13.11,13.11,0,0,0,4.41.57,5.08,5.08,0,0,1,3,.79,2.81,2.81,0,0,0,2.29.43,6,6,0,0,1,1.86,0A5.38,5.38,0,0,0,1084,10c0.18-.05.51-0.1,0.9-0.16,1.14-.17,2.76-0.42,2.35-1l0,0a0.88,0.88,0,0,0-.41-0.37c-1.31-.31-2.91-2,0.15-2.13a7.86,7.86,0,0,1,4.68.92,3.39,3.39,0,0,0,2,.54,6.54,6.54,0,0,1,2.06.28c0.29,0.07.57,0.14,0.86,0.19a5.5,5.5,0,0,0,.71.09c0.47,0,.31.38,0.12,0.79s-0.52,1.11.35,1.26a8.35,8.35,0,0,0,5.07-.3,2.92,2.92,0,0,1,1.84-.29,17.49,17.49,0,0,0,3.61-.07l1-.19h0a39,39,0,0,1,5.83-.9,75,75,0,0,0,8.76-.41c5.29-.44,10.61-0.89,13.21.47s22.63,1.71,38.52,1.93c-0.36,4.58-.32,10.38-0.3,11.68s0.83,1.06,1.79.65,2-.85,2.62.08a5,5,0,0,1,.38.65,4.68,4.68,0,0,1,.26.72,5.88,5.88,0,0,1,.11.73h0a1.22,1.22,0,0,0,.94,1.31c0.21,0.08.49,0.16,0.78,0.24l0.56,0.15,0.28,0.07a3.38,3.38,0,0,1,.73.24c1.45,1.26,1.53,1.71,1.64,2.28a4.57,4.57,0,0,0,1.16,2.3c1.85,2.36,2.39,6.72,2.25,8.7-0.31,4.66-.27,5.46.12,5.8a0.89,0.89,0,0,0,.71,0,1.49,1.49,0,0,1,2.05.64l0.07,0.15c0.06,0.13.11,0.26,0.16,0.4l0.12,0.34a4.1,4.1,0,0,0,.69,1.4,3.44,3.44,0,0,1,1,2.29,3.85,3.85,0,0,0,.32,1.25l0.12,0.33a2.58,2.58,0,0,1,.17,1.27,10.49,10.49,0,0,0,.1,3c0.06,0.48.12,1,.14,1.44a6.45,6.45,0,0,0,.82,3,1.72,1.72,0,0,1,.09,1.94,6.28,6.28,0,0,0-.17,4.12c0,0.17.07,0.32,0.1,0.47v0.07l0,0.15,0,0.25c1,9.35,0,16.19-1,22.75a103.12,103.12,0,0,0-1.23,10.91,3.92,3.92,0,0,0,0,.71,4.06,4.06,0,0,0,.14.71,3.1,3.1,0,0,1,0,1.79,9.78,9.78,0,0,0,0,3.78,7.63,7.63,0,0,1-.81,5.55c-0.24.42-1.16,2.45,0,3.36,1.58,1.26,1.73,5.41,1.32,7a1.94,1.94,0,0,0,.45,2.12,2.2,2.2,0,0,1,.6,1.15c0.06,0.39-.58,63.65-1.56,53.37-0.53-5.5-.51-5.64-0.38-6.54v0a64.57,64.57,0,0,0,.2-11.51h0c-0.14-3.88-.31-8.43-0.09-14.29,0-.64,0-1.27.06-1.91,0-1.1,0-2.2,0-3.3h0c0-1.71,0-3.41.09-5.11,0.1-2.73-.18-3.42-1.42-3.53a1,1,0,0,0-.81.14,0.65,0.65,0,0,0-.14.48c0,0.31-.05.63-0.08,0.95a3.49,3.49,0,0,0,.38,2.64c1.08,1.5,1.05,4.55-.31,5.74-0.76.66-.23,1.69,0,2.18l0,0.08,0,0.06v0a3.17,3.17,0,0,1,0,3.36,2.71,2.71,0,0,0-.45,1.51c0,1.2.07,2.15,0.09,2.9,0.08,2.64.09,3,.84,3.41a0.33,0.33,0,0,1,.09.24,0.5,0.5,0,0,1-.05.37,3.17,3.17,0,0,0-.76,2.73,23.44,23.44,0,0,1,0,4.16,5.43,5.43,0,0,0,0,.66,1.88,1.88,0,0,0,.18.69,7.15,7.15,0,0,1,.49,3.5,26,26,0,0,0,.1,3.79,26.44,26.44,0,0,1-.06,6.34c-0.15,1.38-.25,2.19.36,3.12,1.61,2.45,1.37,5.53,1.13,8.61a29.88,29.88,0,0,0-.13,4.41v0.13c0,0.06,0,.13,0,0.19s0,0.27.06,0.42c0.08,0.54.21,1.06,0.34,1.59,0.05,0.22.11,0.44,0.16,0.66s0.11,0.5.15,0.76c0,0.09,0,.18,0,0.27l0,0.32c0.15,1.63.08,4.78,0,8.14h0c-0.13,5.59-.28,11.78.57,12.57,0.21,0.19.64-.23,0.62-0.64,0-.12,0-0.24,0-0.36s0-.27-0.05-0.4-0.06-.46-0.08-0.69a0.37,0.37,0,0,1,.37-0.19,0.1,0.1,0,0,1,.11.1c0,0.16.12,1.72,0.32,3.3a10.49,10.49,0,0,0,1.19,3.12,8.68,8.68,0,0,1,1.24,3.63c0,2.2,1.17,2.62,1.32.42,0.07-1,.17-2.27.31-3.87a33.23,33.23,0,0,0-.19-7.65,34.35,34.35,0,0,1-.26-7.14,16.37,16.37,0,0,1,1-4.4v42.26a3.41,3.41,0,0,0-1.48-.08,23.27,23.27,0,0,1-6.8.32,3.84,3.84,0,0,0-3.3.73c-4,2.93-3.4,4.89-2.55,7.86a17.79,17.79,0,0,1,.72,8.61c-0.09.54-.16,1-0.21,1.49-0.24,1.85-.36,2.85-1.7,1.46-1.68-1.75-1.77-.7-1.91.85a7.43,7.43,0,0,1-.6,2.74,3.23,3.23,0,0,1-3.18,2c-0.65,0-1.14,0-1.31.71-0.09.35-.16,0.68-0.23,1s-0.14.7-.19,1c-0.26,1.42-.41,2.24-1.45,3-1.68,1.24-1.59,15.32-1.56,17.45,0,1.41.83,1.06,1.79,0.65s2-.85,2.62.08a3.92,3.92,0,0,1,.75,2.11,1.22,1.22,0,0,0,.94,1.31c0.34,0.13.87,0.27,1.34,0.39h0l0.69,0.19a1.07,1.07,0,0,1,.32.13c1.45,1.26,1.53,1.71,1.64,2.28a4.57,4.57,0,0,0,1.16,2.3c1.85,2.36,2.39,6.72,2.25,8.7-0.31,4.66-.27,5.46.12,5.8a0.89,0.89,0,0,0,.71,0,1.49,1.49,0,0,1,2.05.64c0.08,0.16.14,0.32,0.21,0.49s0.09,0.27.14,0.4h0a4.08,4.08,0,0,0,.69,1.4,3.45,3.45,0,0,1,1,2.3,3.85,3.85,0,0,0,.32,1.25,3.1,3.1,0,0,1,.29,1.6,10.5,10.5,0,0,0,.1,3c0.06,0.48.12,1,.14,1.44a6.45,6.45,0,0,0,.82,3,1.72,1.72,0,0,1,.09,1.94,6.28,6.28,0,0,0-.17,4.12,8.15,8.15,0,0,1,.17.94c1,9.35,0,16.19-1,22.75a103.13,103.13,0,0,0-1.23,10.91,4.62,4.62,0,0,0,.17,1.42,3.1,3.1,0,0,1,0,1.79,9.78,9.78,0,0,0,0,3.78,7.63,7.63,0,0,1-.81,5.55c-0.24.42-1.16,2.45,0,3.36,1.58,1.26,1.73,5.41,1.32,7a1.94,1.94,0,0,0,.45,2.12,3.88,3.88,0,0,1,.38.52,1.85,1.85,0,0,1,.22.63c0,0.28-.29,34.07-0.85,48.3l-0.66,0h-0.49a6.67,6.67,0,0,1,0-1.16c0-.09,0-0.17,0-0.27h0v0a64.58,64.58,0,0,0,.2-11.51h0c-0.14-3.88-.31-8.43-0.09-14.29,0.07-1.73.08-3.48,0.1-5.22,0-1,0-2.08,0-3.12,0-.22,0-0.43,0-0.65,0-.45,0-0.89,0-1.33,0.1-2.73-.18-3.42-1.42-3.53-0.71-.05-0.94.07-0.95,0.62,0,0.31-.05.63-0.08,0.95a3.49,3.49,0,0,0,.38,2.64c1.08,1.5,1.05,4.55-.31,5.73-0.76.66-.23,1.69,0,2.18v0l0,0.09v0l0,0a3.17,3.17,0,0,1,0,3.36,2.71,2.71,0,0,0-.45,1.51c0,1.2.07,2.15,0.09,2.91,0.08,2.64.09,3,.84,3.41a0.65,0.65,0,0,1,0,.61,3.17,3.17,0,0,0-.76,2.73c0.09,1.24.11,2.13,0.1,2.8s0,1-.08,1.36a2.26,2.26,0,0,0,.15,1.34,7.15,7.15,0,0,1,.49,3.5,26,26,0,0,0,.1,3.79c0,0.17,0,.33.05,0.49v0.18l0,0.2c0,0.21,0,.42,0,0.62-1.8,0-3.22,0-3.79,0-1.41,0-1.07.82-.65,1.79s0.84,2-.09,2.61a4,4,0,0,1-2.11.75,1.23,1.23,0,0,0-1.32.93c-0.13.34-.27,0.86-0.39,1.32h0a6.7,6.7,0,0,1-.32,1c-1.27,1.44-1.72,1.52-2.29,1.62a4.57,4.57,0,0,0-2.3,1.15c-2.37,1.83-6.73,2.35-8.71,2.21-4.67-.33-5.46-0.3-5.81.08a0.15,0.15,0,0,0,0,.09,0.36,0.36,0,0,0,0,.18,3.16,3.16,0,0,0,.09.44h0a1.48,1.48,0,0,1-.64,2c-0.15.07-.31,0.14-0.47,0.2l-0.43.15a4.07,4.07,0,0,0-1.41.68,3.44,3.44,0,0,1-2.3.94,3.9,3.9,0,0,0-1.25.31,3.09,3.09,0,0,1-1.6.29,10.67,10.67,0,0,0-3,.08c-0.48.06-1,.11-1.44,0.14a6.45,6.45,0,0,0-3,.8,1.71,1.71,0,0,1-1.93.08,6.2,6.2,0,0,0-4.13-.19c-0.34.07-.66,0.13-0.93,0.16-9.36,1-16.19-.06-22.75-1.07a102,102,0,0,0-10.9-1.28,4.37,4.37,0,0,0-1.43.16,3.11,3.11,0,0,1-1.79,0,9.71,9.71,0,0,0-3.78,0,7.64,7.64,0,0,1-5.54-.84c-0.42-.24-2.45-1.17-3.36,0-1.27,1.57-5.42,1.7-7,1.28a2,2,0,0,0-2.13.44,2.19,2.19,0,0,1-1.15.59c-0.39.06-63.64-.9-53.36-1.83,5.49-.5,5.64-0.47,6.54-0.34h0a65.28,65.28,0,0,0,11.51.27h0c3.88-.12,8.44-0.27,14.29,0,1.32,0.06,2.65.08,4,.11l1.21,0h0.05c1.7,0,3.4,0,5.08.12,2.73,0.11,3.43-.17,3.54-1.41,0-.71-0.07-0.94-0.62-1-0.31,0-.63,0-1-0.08a3.51,3.51,0,0,0-2.64.37c-1.51,1.08-4.56,1-5.74-.34-0.65-.76-1.68-0.23-2.17,0h0l-0.17.08a3.16,3.16,0,0,1-3.36-.06,2.71,2.71,0,0,0-1.51-.46c-1.19,0-2.14.07-2.9,0.08-2.64.06-3,.07-3.42,0.82a0.67,0.67,0,0,1-.61,0,3.18,3.18,0,0,0-2.73-.78c-1,.07-1.83.09-2.45,0.09-0.82,0-1.33-.05-1.7-0.08a2.27,2.27,0,0,0-1.35.14,7.06,7.06,0,0,1-3.5.47,25.77,25.77,0,0,0-3.78.08,26.84,26.84,0,0,1-6.34-.09c-1.38-.16-2.18-0.26-3.12.34-2.46,1.6-5.54,1.34-8.61,1.09a31,31,0,0,0-4.42-.16l-0.74.08c-0.26,0-.52.09-0.78,0.15l-0.81.19-0.74.17a9.89,9.89,0,0,1-1.27.21c-1.63.14-4.78,0-8.14-.05h0c-5.59-.16-11.78-0.35-12.57.5-0.19.21,0.22,0.64,0.64,0.62l0.54-.05,0.23,0,0.34,0,0.35,0c0.14,0,.3.48,0.1,0.48s-1.72.11-3.3,0.3a10.41,10.41,0,0,0-3.12,1.17,8.83,8.83,0,0,1-3.63,1.22c-2.2,0-2.62,1.15-.43,1.32,1,0.08,2.27.18,3.87,0.33a33.36,33.36,0,0,0,7.65-.16,34.75,34.75,0,0,1,7.14-.22c2.31,0.17,7.26,1.33,5.73,3.08a0.81,0.81,0,0,1-.57.32,17.92,17.92,0,0,0-3.23-.21h0a15.55,15.55,0,0,1-3.74-.31,2.58,2.58,0,0,0-1.08.05c-3.61.72-10.61,0.68-17.24,0.64h0c-7.51,0-14.53-.09-15.52,1H872.27l-0.38-.14a1.91,1.91,0,0,0-1.69-.1,3.72,3.72,0,0,1-1,.24H855.6a15.34,15.34,0,0,0-4-.43,5.09,5.09,0,0,1-3-.79,2.8,2.8,0,0,0-2.28-.43,6.06,6.06,0,0,1-1.86,0,5.37,5.37,0,0,0-2.5.25c-0.18.05-.52,0.1-0.91,0.16-1.14.17-2.77,0.42-2.35,1l0,0a2.43,2.43,0,0,0,.17.21H828.43a1.87,1.87,0,0,1,.19-0.51h0c0.24-.51.52-1.11-0.35-1.26a8.34,8.34,0,0,0-5.07.3,2.91,2.91,0,0,1-1.84.29,17.51,17.51,0,0,0-3.61.07l-1,.19a38.88,38.88,0,0,1-5.83.91c-0.92,0-1.91,0-3,0H789.11L789,481l-0.06,0c-2.75-1.44-24.84-1.74-41.05-2-7.46-.1-13.68-0.19-16.19-0.36a3.49,3.49,0,0,0-2.39.91,5.28,5.28,0,0,1-4.45,1.14,27.73,27.73,0,0,0-4.86-.17h0c-0.71,0-1.41,0-2.12,0-0.49,0-1,0-1.48-.06A1.63,1.63,0,0,0,715,481H450a10.4,10.4,0,0,1-.94-1,0.78,0.78,0,0,1-.09-0.21c-0.05-.15-0.11-0.36-0.17-0.6l-0.05-.2h0c-0.12-.47-0.27-1-0.39-1.32a1.22,1.22,0,0,0-1.31-.93,4,4,0,0,1-2.11-.75c-0.93-.65-0.48-1.7-0.09-2.61s0.76-1.77-.66-1.79c-2.12,0-16.21,0-17.44,1.65-0.76,1-1.57,1.19-3,1.46-0.56.11-1.21,0.23-2,.43s-0.69.67-.71,1.31a3.24,3.24,0,0,1-2,3.19,7.4,7.4,0,0,1-2.73.61c-1,.1-1.86.18-1.74,0.73H365l-0.24-.07-0.19-.05-0.16,0a6.41,6.41,0,0,0-2.17-.16c-1.31.08-2.67,0.05-4,0h0a33.21,33.21,0,0,0-6.44.3H256.82c1.93-.52,1.7-1.59-0.54-1.72l-3.13-.19a45.73,45.73,0,0,0-4.86-.07c-0.59,0-1.08,0-1.55,0a7.36,7.36,0,0,1-2.27-.47,2.53,2.53,0,0,0-1-.19,3.93,3.93,0,0,0-.54.07,9.16,9.16,0,0,1-1.07.13,18.4,18.4,0,0,1-2.88-.11c-2.92-.29-3-0.15-3.08,0a0.59,0.59,0,0,1-.57.29l-0.77.13a11.07,11.07,0,0,1-4.32.15,1.32,1.32,0,0,1-.9-0.73,1.34,1.34,0,0,0-1.32-.78h-0.6c-2.12.05-9,.23-9.36,0.18a16.59,16.59,0,0,0-6.52.48,21.17,21.17,0,0,1-4.78.65c-4.37,0-6.84-.19-8.35-0.3h0c-2.07-.15-2.34-0.17-3.24.52-1.45,1.09-4.92.7-5.35,0.62-2.94-.57-7.41-0.49-13.69-0.38h0c-8,.14-18.92.34-33.32-0.7-1.42-.1-1.09-2.24.25-1.78l0.17,0.06,0.14,0.06h0a2.86,2.86,0,0,0,1.75.23,10.07,10.07,0,0,1,4.7.25,3.28,3.28,0,0,0,1.79.13,11.65,11.65,0,0,1,2.82-.3c1.91-.05,2.85-0.08-2.4-2.05a1.91,1.91,0,0,0-1.69-.1,3.74,3.74,0,0,1-1.11.26c-10.71.88-11.76,0.54-13,.13a13.17,13.17,0,0,0-4.41-.57,5.11,5.11,0,0,1-3-.79,2.79,2.79,0,0,0-2.28-.43,6.05,6.05,0,0,1-1.86,0,5.37,5.37,0,0,0-2.5.25c-0.18.05-.51,0.1-0.9,0.16-1.15.17-2.77,0.42-2.35,1l0,0h0a1.56,1.56,0,0,0,.27.3,0.41,0.41,0,0,0,.15.08c1.31,0.31,2.91,2-.15,2.13a7.88,7.88,0,0,1-4.68-.93,3.39,3.39,0,0,0-2-.54,6.62,6.62,0,0,1-2.07-.28h0a8.32,8.32,0,0,0-1.57-.28c-0.47,0-.31-0.38-0.11-0.79s0.52-1.11-.35-1.26a8.36,8.36,0,0,0-5.07.3,2.9,2.9,0,0,1-1.83.29,17.58,17.58,0,0,0-3.61.07l-1,.19h0a39,39,0,0,1-5.83.9,74.84,74.84,0,0,0-8.75.41c-5.29.44-10.61,0.89-13.21-.47-2.75-1.44-24.84-1.74-41.05-2l-4.75-.07-3.07,0c-0.17-2.62-.15-5.17,1.23-7.27,0.61-.93.51-1.74,0.36-3.12a26.85,26.85,0,0,1-.06-6.34,25.89,25.89,0,0,0,.1-3.79,7.07,7.07,0,0,1,.49-3.5,2.25,2.25,0,0,0,.15-1.34,23.27,23.27,0,0,1,0-4.16A3.19,3.19,0,0,0,21.8,441a0.67,0.67,0,0,1,0-.47,0.23,0.23,0,0,1,.07-0.14c0.76-.46.77-0.77,0.84-3.41,0-.47,0-1,0-1.65,0-.39,0-0.8,0-1.26a2.71,2.71,0,0,0-.45-1.51,3.16,3.16,0,0,1,0-3.36l0.06-.11,0-.06c0.25-.49.78-1.52,0-2.18-1.37-1.18-1.4-4.23-.31-5.74a3.51,3.51,0,0,0,.38-2.64c0-.32-0.07-0.63-0.08-0.95,0-.55-0.25-0.68-1-0.62-1.24.1-1.52,0.8-1.42,3.53,0.06,1.69.08,3.38,0.09,5.08v0c0,1.74,0,3.48.1,5.22,0.22,5.85.05,10.4-.09,14.28h0a65.31,65.31,0,0,0,.21,11.52v0c0.13,0.9.15,1-.38,6.54-1,10.28-1.62-53-1.56-53.37a2.22,2.22,0,0,1,.6-1.15,2,2,0,0,0,.45-2.12c-0.42-1.55-.27-5.71,1.31-7,1.15-.91.23-2.95,0-3.36a7.64,7.64,0,0,1-.81-5.55,9.7,9.7,0,0,0,0-3.78,3.12,3.12,0,0,1,0-1.79,4.32,4.32,0,0,0,.16-1.42,102.27,102.27,0,0,0-1.22-10.91c-1-6.56-2-13.39-1-22.75,0-.28.1-0.59,0.17-0.94a6.19,6.19,0,0,0-.17-4.12A1.72,1.72,0,0,1,18,343a6.42,6.42,0,0,0,.81-3c0-.48.09-1,0.15-1.44h0a10.68,10.68,0,0,0,.09-3,3.09,3.09,0,0,1,.3-1.6h0a3.85,3.85,0,0,0,.32-1.25,3.45,3.45,0,0,1,1-2.29,4.05,4.05,0,0,0,.69-1.4,7.73,7.73,0,0,1,.35-0.9,1.49,1.49,0,0,1,2.05-.64,0.89,0.89,0,0,0,.71,0c0.39-.34.42-1.14,0.11-5.8-0.13-2,.41-6.35,2.25-8.7A4.56,4.56,0,0,0,28,310.8c0.1-.57.19-1,1.63-2.28a5.42,5.42,0,0,1,1-.32c0.47-.12,1-0.26,1.33-0.39a1.23,1.23,0,0,0,.94-1.31,4,4,0,0,1,.76-2.11c0.65-.93,1.7-0.47,2.62-0.08s1.77,0.77,1.79-.65c0-2.12.12-16.21-1.56-17.45-1-.76-1.19-1.57-1.45-3-0.1-.56-0.22-1.21-0.42-2s-0.66-.69-1.31-0.71a3.24,3.24,0,0,1-3.18-2,7.39,7.39,0,0,1-.6-2.74c-0.14-1.55-.23-2.6-1.91-0.85-1.33,1.39-1.46.39-1.69-1.46-0.06-.45-0.12-1-0.21-1.49a17.79,17.79,0,0,1,.72-8.61c0.85-3,1.41-4.93-2.55-7.86a3.85,3.85,0,0,0-3.3-.73,23.18,23.18,0,0,1-6.79-.32c-0.88-.15-2.22,0-3.89,1.49A5.39,5.39,0,0,1,7,257.33c-1,.21-1.88.39-3,2.38a5.6,5.6,0,0,0-.83,4.62l0.06,0.33c0.47,2.7-1.39,3.1-3.29,3.37v-0.9a5.91,5.91,0,0,1,.44-0.8c0.18-.29.41-0.62,0.7-1a2.39,2.39,0,0,0,.46-1.23c0.06-.43.09-1,0.13-1.95v0c0-.67.07-1.5,0.14-2.57a0.92,0.92,0,0,1,.37-0.78l0.18-.1,0.25-.09a1,1,0,0,0,.81-1.09v-0.13c0.07-.77.43-4.91,0.47-11.59a13.87,13.87,0,0,1,1.33-3.92h0l0.24-.55a6.42,6.42,0,0,0,.26-3.53,15.47,15.47,0,0,1,0-4.51c0.06-.4.77-1.12,0.83-0.9s0.14,0.42.21,0.63a3.23,3.23,0,0,1,.31,1.47,46.75,46.75,0,0,0,.07,10.07c0.14,1.81.28,3.62,0.31,5.4,0,1.45.14,2.46,0.65,2.53,1.42,0.19,1.41-7.43,1.4-15.64h0c0-6.62,0-13.62.72-17.23,0-.13.05-0.26,0.07-0.4a1.86,1.86,0,0,0,0-.68,15.53,15.53,0,0,1-.3-3.74,17.92,17.92,0,0,0-.19-3.24,0.83,0.83,0,0,1,.33-0.57c1.75-1.52,2.89,3.43,3,5.75A34.81,34.81,0,0,1,13,223.8a33.37,33.37,0,0,0-.2,7.65c0.14,1.6.24,2.87,0.31,3.87,0.16,2.2,1.31,1.78,1.32-.42a8.83,8.83,0,0,1,1.24-3.63h0a10.4,10.4,0,0,0,1.19-3.12c0.2-1.58.32-3.14,0.32-3.3s0.49,0,.48.1,0,0.46-.08.69h0c0,0.25-.07.51-0.08,0.76,0,0.42.41,0.84,0.62,0.65,0.85-.79.7-7,0.56-12.57h0c-0.08-3.36-.16-6.51,0-8.14a13.46,13.46,0,0,1,.39-2l0.11-.46c0-.17.08-0.35,0.12-0.52s0.08-.41.11-0.61,0.06-.5.08-0.74a30.92,30.92,0,0,0-.14-4.41c-0.24-3.08-.48-6.16,1.13-8.61,0.61-.93.51-1.74,0.36-3.12a26.85,26.85,0,0,1-.06-6.34,25.88,25.88,0,0,0,.1-3.79,7.07,7.07,0,0,1,.49-3.5,2.25,2.25,0,0,0,.15-1.34,23.27,23.27,0,0,1,0-4.16A3.19,3.19,0,0,0,20.8,164a0.67,0.67,0,0,1,0-.61c0.76-.46.77-0.77,0.84-3.41,0-.76,0-1.71.1-2.9a2.71,2.71,0,0,0-.45-1.51,3.16,3.16,0,0,1,0-3.36l0.09-.17c0.25-.49.78-1.52,0-2.18-1.37-1.18-1.4-4.23-.31-5.74a3.51,3.51,0,0,0,.38-2.64v0c0-.2,0-0.4-0.06-0.6s0-.22,0-0.33c0-.55-0.25-0.68-1-0.62-1.24.1-1.52,0.8-1.42,3.53,0.06,1.69.08,3.38,0.09,5.08v0c0,1.74,0,3.49.1,5.22,0.22,5.85.05,10.4-.09,14.28h0a65.31,65.31,0,0,0,.21,11.52v0c0.13,0.9.15,1-.38,6.54-1,10.28-1.62-53-1.56-53.37a1.87,1.87,0,0,1,.35-0.84l0.24-.31h0a2,2,0,0,0,.45-2.12c-0.42-1.55-.27-5.71,1.31-7,1.15-.91.23-2.95,0-3.36a7.64,7.64,0,0,1-.81-5.55,9.7,9.7,0,0,0,0-3.78,3.12,3.12,0,0,1,0-1.79,4.32,4.32,0,0,0,.16-1.42,102.26,102.26,0,0,0-1.22-10.91c-1-6.56-2-13.39-1-22.75,0-.28.1-0.59,0.17-0.94a6.19,6.19,0,0,0-.17-4.12A1.73,1.73,0,0,1,17,66a6.42,6.42,0,0,0,.81-3c0-.48.09-1,0.15-1.44h0a10.68,10.68,0,0,0,.09-3,3.09,3.09,0,0,1,.3-1.6,3.86,3.86,0,0,0,.32-1.25,3.45,3.45,0,0,1,1-2.29,3.27,3.27,0,0,0,.58-1.09l0.11-.31a7.66,7.66,0,0,1,.35-0.9,1.49,1.49,0,0,1,2.05-.64,0.89,0.89,0,0,0,.71,0c0.39-.34.42-1.14,0.11-5.8-0.13-2,.41-6.35,2.25-8.7A4.56,4.56,0,0,0,27,33.8c0.1-.57.19-1,1.63-2.28a5.43,5.43,0,0,1,1-.32c0.47-.12,1-0.26,1.33-0.39a1.23,1.23,0,0,0,.94-1.31,4,4,0,0,1,.76-2.1c0.65-.93,1.7-0.47,2.62-0.08s1.77,0.77,1.79-.65c0-2.12.12-16.21-1.56-17.45a3,3,0,0,1-1.24-1.95,2.39,2.39,0,0,1,1.12-.12,10.68,10.68,0,0,0,3-.08L38.92,7l0.86-.07a6.42,6.42,0,0,0,3-.8,1.73,1.73,0,0,1,1.94-.08,6.19,6.19,0,0,0,4.12.19l0.63-.12,0.12,0,0.19,0c9.36-1,16.19.06,22.74,1.07A102.16,102.16,0,0,0,83.38,8.44a4.31,4.31,0,0,0,1.42-.16,3.12,3.12,0,0,1,1.79,0,9.7,9.7,0,0,0,3.78,0,7.65,7.65,0,0,1,5.54.84c0.41,0.24,2.45,1.17,3.36,0,1.27-1.57,5.42-1.7,7-1.28a2,2,0,0,0,2.12-.44,2.22,2.22,0,0,1,1.15-.59c0.39-.06,63.65.9,53.36,1.83-5.5.5-5.65,0.47-6.54,0.34h0a65.31,65.31,0,0,0-11.52-.27h0c-3.88.12-8.43,0.27-14.28,0-1.73-.07-3.48-0.1-5.22-0.12l-2.44,0c-0.89,0-1.78,0-2.66-.08-2.73-.11-3.43.17-3.53,1.41-0.06.71,0.07,0.94,0.62,1,0.31,0,.63,0,0.95.08a3.51,3.51,0,0,0,2.64-.37c1.51-1.08,4.56-1,5.73.34,0.65,0.76,1.68.23,2.18,0l0.17-.09a3.16,3.16,0,0,1,3.36.06,2.72,2.72,0,0,0,1.51.46c1.2,0,2.15-.07,2.9-0.08,2.64-.06,3-0.07,3.42-0.82a0.66,0.66,0,0,1,.61,0,3.19,3.19,0,0,0,2.73.78c1.24-.08,2.13-0.1,2.8-0.09s1,0.05,1.36.08a5.21,5.21,0,0,0,.6,0,1.92,1.92,0,0,0,.74-0.18,7.08,7.08,0,0,1,3.5-.47,25.87,25.87,0,0,0,3.79-.08,26.85,26.85,0,0,1,6.34.09c1.38,0.16,2.19.26,3.12-.34,2.46-1.6,5.54-1.34,8.62-1.09a31,31,0,0,0,4.41.16c0.24,0,.48,0,0.74-0.08s0.64-.11,1-0.18l0.63-.15h0L182,8.71a9.26,9.26,0,0,1,1.13-.18c1.63-.14,4.78,0,8.14.05,5.59,0.17,11.78.35,12.57-.5,0.19-.21-0.22-0.64-0.64-0.62-0.26,0-.51,0-0.77.08h0l-0.68.07c-0.14,0-.3-0.48-0.1-0.48L202.82,7,203.58,7l1.33-.15A10.42,10.42,0,0,0,208,5.65a8.83,8.83,0,0,1,3.64-1.22c2.2,0,2.62-1.15.42-1.32-1-.08-2.27-0.18-3.87-0.33a33.38,33.38,0,0,0-7.65.16,34.79,34.79,0,0,1-7.14.22C191.12,3,186.17,1.83,187.7.09L187.79,0h5.31a11,11,0,0,1,2.15.29,1.47,1.47,0,0,0,.39,0,4.07,4.07,0,0,0,.7-0.09c0.45-.09.94-0.17,1.48-0.23H407.23ZM814.9,6.08c-2.22-.25-4.39-0.58-6.59-0.92a88.36,88.36,0,0,0-17.79-1.42,2.69,2.69,0,0,0,1.42.81c1.37,0.22,2.36.36,3.13,0.46a11.44,11.44,0,0,1,3.38.77,0.84,0.84,0,0,0,.67,0,3.79,3.79,0,0,1,3.11-.38,6.22,6.22,0,0,0,2.24.09,20,20,0,0,1,7,.22c0.87,0.14,1.58.22,2.17,0.28S814.53,6.07,814.9,6.08ZM183.39,0h0.76l0,0,0,0a0.68,0.68,0,0,1-.38.16,0.68,0.68,0,0,1-.23,0C183.34,0.18,183.33.1,183.39,0ZM254.5,481h-6.64c0.45-.17.76-0.3,1-0.4a4.35,4.35,0,0,1,.68-0.25,7.18,7.18,0,0,1,2.12.08h0l0.93,0.09a4.91,4.91,0,0,1,1.87.48h0ZM9.77,207.29c0-.36.5-1,0.6-0.61a0.68,0.68,0,0,1,0,.23C10.36,207.33,9.8,207.71,9.77,207.29Zm996.94,272.11c0.35,0.1-.25.62-0.61,0.59s0-.59.38-0.61h0.11Z" style="fill:#e21e26"/></svg>