<svg width="1200" height="481" viewBox="0 0 1200 481" fill="none" xmlns="http://www.w3.org/2000/svg" preserveAspectRatio="none">
<path fill-rule="evenodd" clip-rule="evenodd" d="M407.229 0C407.297 0.185303 407.325 0.378906 407.353 0.565918C407.431 1.10278 407.501 1.58472 408.48 1.65967C415.123 2.1731 413.986 3.26685 412.833 4.37598C412.645 4.55713 412.457 4.73877 412.301 4.91846C412.035 5.22754 412.421 6.00903 412.831 6.04248C413.208 6.07104 413.538 6.09399 413.83 6.11426C414.388 6.15308 414.805 6.18213 415.137 6.22168C415.543 6.27002 415.823 6.33398 416.079 6.45093C416.441 6.61694 416.756 6.88965 417.315 7.37524C417.738 7.74292 418.302 8.23267 419.135 8.89062C419.379 9.0835 419.279 9.32886 419.172 9.58887C419.091 9.7876 419.006 9.99463 419.068 10.1936C419.356 11.1238 419.311 11.6819 419.272 12.1721C419.222 12.8008 419.181 13.3179 419.861 14.3652C420.22 14.9175 420.776 15.188 421.418 15.1404C422.618 15.0527 423.821 15.0813 425.024 15.1099H425.032C426.654 15.1487 428.277 15.1873 429.893 14.9421C432.23 14.5881 433.349 15.3821 434.338 16.0845C435.062 16.5981 435.717 17.0627 436.729 16.9932C439.242 16.8223 445.458 16.7375 452.919 16.636C469.13 16.4153 491.219 16.1145 493.973 14.6755C496.572 13.3159 501.889 13.7615 507.183 14.2048C510.295 14.4658 513.4 14.7258 515.938 14.6177C517.071 14.5698 520.164 15.1973 521.771 15.5232C522.289 15.6284 522.653 15.7021 522.747 15.7119C524.744 15.9172 525.713 15.8391 526.362 15.7869C527.052 15.7312 527.381 15.7046 528.198 16.0789C529.875 16.845 531.552 16.6672 533.268 16.3789C534.139 16.2329 533.861 15.6338 533.623 15.1216C533.529 14.9204 533.442 14.7327 533.433 14.5911C533.423 14.4441 533.498 14.3469 533.737 14.3357C534.273 14.3088 534.79 14.1821 535.307 14.0554C535.98 13.8909 536.654 13.7258 537.373 13.7781C538.225 13.8403 538.748 13.5693 539.377 13.2427C540.284 12.7727 541.411 12.188 544.06 12.3179C547.124 12.4685 545.522 14.136 544.212 14.4451C544.146 14.4607 544.085 14.4995 544.027 14.5505C543.943 14.6252 543.866 14.7266 543.797 14.8188L543.76 14.8674C543.345 15.4058 544.965 15.6504 546.111 15.8235L546.114 15.8242C546.501 15.8828 546.834 15.9331 547.015 15.9836C548.386 16.3691 548.925 16.3052 549.518 16.2346C549.974 16.1804 550.461 16.1223 551.382 16.2605C552.651 16.4507 553.109 16.1729 553.667 15.8342C554.235 15.49 554.906 15.0828 556.64 15.0413C559.488 14.9744 560.309 14.708 561.052 14.467C562.329 14.0527 563.374 13.7139 574.088 14.5957C574.631 14.6404 574.942 14.7559 575.201 14.8516C575.632 15.0117 575.917 15.1174 576.89 14.7502C582.133 12.7756 581.199 12.7505 579.286 12.6987C578.38 12.6743 577.254 12.644 576.461 12.3977C575.927 12.2329 575.231 12.3528 574.669 12.5254C573.113 13.0044 571.561 13.043 569.969 12.7788C569.128 12.6404 568.651 12.8342 568.215 13.0112C568.105 13.0557 567.998 13.0991 567.889 13.136C566.544 13.5886 566.221 11.4553 567.636 11.3523C582.045 10.3208 592.971 10.5149 600.97 10.657H600.972C607.251 10.7686 611.725 10.8481 614.664 10.2773C615.1 10.1924 618.572 9.80347 620.017 10.894C620.921 11.5767 621.189 11.5576 623.262 11.4116C624.774 11.3049 627.247 11.1306 631.628 11.1116C633.389 11.104 634.905 11.4333 636.406 11.7595C638.419 12.1968 640.406 12.6287 642.924 12.2356C643.241 12.1868 650.147 12.3611 652.275 12.415L652.88 12.4299C653.675 12.4485 653.938 12.0449 654.196 11.6472C654.406 11.3254 654.613 11.0073 655.097 10.9197C656.764 10.6155 657.911 10.812 659.413 11.0693C659.66 11.1116 659.916 11.1555 660.185 11.1992C660.647 11.2734 660.705 11.3867 660.755 11.4866C660.852 11.6794 660.923 11.821 663.838 11.53C666.242 11.2908 667.178 11.4487 667.786 11.5515C668.294 11.6372 668.573 11.6843 669.289 11.4297C670.774 10.9021 671.605 10.929 673.106 10.9775H673.111C674.205 11.0127 675.654 11.0593 677.97 10.9119C679.268 10.8293 680.289 10.7676 681.101 10.72C683.487 10.5803 683.601 9.3811 681.258 8.90991C680.042 8.66602 679.75 8.80249 679.307 9.01074C678.956 9.17529 678.51 9.38452 677.438 9.48657C677.082 9.52051 676.771 9.55103 676.499 9.57788C675.206 9.70508 674.775 9.74756 674.375 9.65356C674.176 9.60669 673.984 9.52563 673.697 9.40381L673.689 9.40088C673.411 9.28345 673.043 9.12793 672.493 8.9292C671.983 8.74536 669.211 8.72192 666.134 8.69604C661.082 8.65332 655.208 8.60352 657.182 7.82568C658.019 7.49756 664.427 7.00293 667.445 7.70728C667.913 7.81543 668.468 7.85669 668.913 7.72021C670.449 7.24243 674.791 7.34521 681.902 7.51367H681.906C684.362 7.57202 687.148 7.63794 690.263 7.69043C690.307 8.29492 690.504 8.84424 691.046 9.58374C693.954 13.5591 695.92 13.0068 698.89 12.1729C701.012 11.5769 703.646 10.8372 707.501 11.5007C707.757 11.5449 708.005 11.5833 708.245 11.6177C708.507 11.6553 708.757 11.6882 708.994 11.7192C710.848 11.9629 711.839 12.0933 710.447 13.4207C708.692 15.0935 709.74 15.1926 711.288 15.3389C711.726 15.3804 712.204 15.4255 712.67 15.5112C713.153 15.6001 713.623 15.7324 714.021 15.9492C715.957 17.0024 715.998 18.2251 716.03 19.1411C716.052 19.7861 716.068 20.2793 716.738 20.4543C717.516 20.656 718.166 20.7795 718.723 20.8853L718.726 20.886C720.149 21.1562 720.959 21.3101 721.718 22.3499C722.949 24.0378 737.032 24.0132 739.157 23.9966C740.57 23.9858 740.225 23.1763 739.813 22.2109C739.423 21.2961 738.973 20.2417 739.905 19.5957C740.811 18.9678 741.489 18.9016 742.013 18.8501C742.613 18.7915 743.013 18.7524 743.327 17.9167C743.375 17.792 743.424 17.6423 743.473 17.4797C743.558 17.1997 743.643 16.8811 743.723 16.5845C743.858 16.0818 743.975 15.6436 744.043 15.5669C745.312 14.1255 745.76 14.0461 746.33 13.9451C746.815 13.8594 747.389 13.7578 748.631 12.7935C750.997 10.9602 755.359 10.4426 757.344 10.5854C762.007 10.9202 762.803 10.8879 763.148 10.5017C763.262 10.3738 763.191 10.1118 763.105 9.79077C762.931 9.14673 762.693 8.26392 763.754 7.74243C764.036 7.60376 764.345 7.49805 764.653 7.39282C764.831 7.33179 765.009 7.271 765.181 7.2041C765.269 7.16943 765.356 7.1333 765.441 7.09448C767.348 7.46265 768.9 7.75317 771.167 7.31982C771.617 7.2334 772.221 7.26953 772.579 7.49878C775.561 9.42773 779.303 9.36157 782.997 9.29614C784.373 9.27173 785.741 9.24756 787.062 9.32642C787.467 9.35059 787.85 9.35596 788.203 9.33545C788.586 9.31323 788.933 9.2605 789.231 9.1687C789.355 9.13062 789.477 9.09473 789.598 9.06104C789.718 9.02734 789.836 8.99561 789.954 8.96582C794.232 7.87573 798.845 7.83643 803.356 7.7981C804.678 7.78687 805.992 7.77563 807.286 7.73828C811.78 7.60669 813.952 7.78564 815.455 7.90942C816.894 8.02783 817.719 8.0957 819.38 7.79224C819.856 7.70337 820.268 6.81323 819.782 6.43091C820.133 6.40527 820.393 6.34009 820.638 6.27856C821.111 6.16016 821.529 6.05566 822.431 6.27588C823.833 6.61694 825.029 6.46045 826.208 6.30591C827.903 6.08398 829.564 5.86646 831.752 7.14258C832.167 7.38452 834.198 8.31152 835.115 7.16577C836.381 5.59229 840.532 5.46362 842.084 5.88965C843.267 6.21606 843.728 5.83765 844.206 5.4458C844.516 5.19116 844.833 4.93115 845.359 4.85449C845.746 4.79785 909.004 5.75195 898.723 6.68286C893.225 7.17871 893.079 7.15723 892.181 7.02661L892.146 7.02148C888.562 6.50293 885.028 6.61548 880.63 6.75537H880.627H880.623C876.744 6.87866 872.192 7.02344 866.342 6.77563C865.779 6.75195 865.216 6.73315 864.651 6.71777C863.477 6.68604 862.3 6.66846 861.122 6.65088C860.461 6.64111 859.801 6.63135 859.14 6.61914C858.097 6.59961 857.055 6.57373 856.017 6.53101C853.29 6.41968 852.592 6.69897 852.484 7.93701C852.427 8.6438 852.552 8.87695 853.102 8.89355C853.415 8.90186 853.732 8.93994 854.049 8.97827C854.959 9.0874 855.873 9.19727 856.691 8.61035C858.199 7.53271 861.25 7.57764 862.425 8.94897C863.077 9.70776 864.109 9.18213 864.602 8.93091C864.671 8.89575 864.73 8.86597 864.775 8.84595C866.596 8.05347 867.383 8.48828 868.137 8.90503C868.582 9.15112 869.016 9.39087 869.645 9.36743C870.844 9.32275 871.792 9.30103 872.55 9.28394C875.193 9.22388 875.509 9.2168 875.968 8.46216C876.029 8.36304 876.482 8.33081 876.575 8.42627C877.336 9.21289 878.299 9.27466 879.305 9.20654C881.72 9.04175 882.808 9.14185 883.463 9.20215C883.74 9.22778 883.94 9.24609 884.13 9.23438C884.338 9.22144 884.534 9.17285 884.806 9.05835C886.131 8.50293 887.008 8.53687 888.307 8.58716C889.242 8.62329 890.396 8.66797 892.093 8.50732C895.185 8.2124 897.079 8.43628 898.426 8.59619H898.428C899.809 8.75977 900.615 8.85522 901.548 8.25366C904.005 6.65698 907.086 6.91187 910.163 7.1665C911.659 7.29028 913.154 7.41406 914.576 7.32495C914.812 7.31006 915.058 7.28516 915.315 7.24805C915.851 7.17017 916.38 7.04102 916.909 6.91235C917.576 6.74951 918.241 6.58716 918.918 6.52832C920.55 6.38721 923.698 6.47998 927.061 6.5791C932.654 6.74414 938.84 6.92651 939.632 6.0791C939.825 5.87183 939.408 5.43652 938.99 5.45703C938.733 5.4707 938.478 5.50415 938.223 5.53735C937.994 5.56714 937.765 5.59717 937.535 5.61279C937.395 5.62451 937.235 5.13403 937.438 5.13013C937.596 5.12695 939.156 5.02197 940.738 4.82715C941.746 4.70312 942.801 4.1792 943.861 3.65259C945.088 3.04346 946.322 2.43066 947.496 2.43066C948.989 2.43042 949.662 1.9021 949.256 1.51001C956.273 1.34375 960.562 1.24585 962.087 1.72021C962.532 1.85669 963.087 1.81543 963.555 1.70728C966.573 1.00293 972.981 1.49756 973.818 1.82568C975.792 2.60352 969.918 2.65332 964.866 2.69604C961.789 2.72192 959.017 2.74536 958.507 2.9292C957.952 3.12964 957.582 3.28589 957.303 3.40405C957.016 3.52563 956.824 3.60669 956.624 3.65356C956.141 3.76733 955.611 3.68115 953.562 3.48657C952.49 3.38452 952.044 3.17529 951.693 3.01074C951.249 2.80249 950.958 2.66602 949.742 2.90991C947.399 3.3811 947.513 4.58032 949.899 4.71997L950.623 4.76294C951.297 4.80347 952.091 4.85229 953.03 4.91187C955.346 5.05933 956.795 5.0127 957.889 4.97754H957.894C959.395 4.92896 960.226 4.9021 961.711 5.42969C961.977 5.52441 962.183 5.57739 962.363 5.60205C962.666 5.64404 962.895 5.60547 963.214 5.55151C963.822 5.44873 964.758 5.29077 967.162 5.53003C970.077 5.82104 970.148 5.67944 970.245 5.48657C970.295 5.38672 970.353 5.27344 970.815 5.19922C971.084 5.15552 971.34 5.11157 971.587 5.06934C973.089 4.81201 974.236 4.61548 975.903 4.91968C976.387 5.00732 976.594 5.32544 976.804 5.64722C977.062 6.04492 977.325 6.44849 978.12 6.42993L978.725 6.41504H978.728C980.856 6.36133 987.759 6.18677 988.076 6.2356C990.594 6.62866 992.581 6.19678 994.593 5.75952C996.095 5.43335 997.611 5.104 999.372 5.11157C1003.75 5.13062 1006.23 5.30493 1007.74 5.41162C1009.81 5.55762 1010.08 5.57666 1010.98 4.89404C1012.43 3.80347 1015.9 4.19238 1016.34 4.27734C1019.27 4.84814 1023.75 4.76855 1030.03 4.65698C1038.03 4.51489 1048.95 4.3208 1063.36 5.35229C1064.78 5.45532 1064.46 7.58862 1063.11 7.13599C1063 7.09912 1062.89 7.05566 1062.79 7.01123C1062.35 6.83423 1061.87 6.64038 1061.03 6.77881C1059.44 7.04297 1057.89 7.00439 1056.33 6.52539C1055.77 6.35278 1055.07 6.23291 1054.54 6.39771C1053.75 6.64404 1052.62 6.67432 1051.71 6.69873C1049.8 6.75049 1048.87 6.77563 1054.11 8.75024C1055.08 9.11743 1055.37 9.01172 1055.8 8.85156C1055.88 8.82056 1055.97 8.7876 1056.07 8.75562C1056.28 8.68872 1056.54 8.62598 1056.91 8.5957C1067.63 7.71387 1068.67 8.05273 1069.95 8.46704C1070.69 8.70801 1071.51 8.97437 1074.36 9.04126C1076.09 9.08276 1076.77 9.48999 1077.33 9.83423C1077.89 10.1729 1078.35 10.4507 1079.62 10.2605C1080.54 10.1223 1081.03 10.1804 1081.48 10.2346C1082.08 10.3052 1082.61 10.3691 1083.99 9.98364C1084.17 9.93286 1084.5 9.88232 1084.89 9.82349C1086.03 9.65039 1087.65 9.40576 1087.24 8.86743L1087.2 8.81885C1087.09 8.66382 1086.95 8.4834 1086.79 8.44507C1085.48 8.13599 1083.88 6.46851 1086.94 6.31787C1089.59 6.18799 1090.72 6.77271 1091.62 7.24268C1092.25 7.56934 1092.77 7.84033 1093.63 7.77808C1094.35 7.72583 1095.02 7.89087 1095.69 8.05542C1095.98 8.12524 1096.26 8.19507 1096.55 8.24829C1096.79 8.2915 1097.02 8.32373 1097.26 8.33569C1097.73 8.35791 1097.57 8.71191 1097.38 9.12158C1097.14 9.63379 1096.86 10.2329 1097.73 10.3789C1099.45 10.6672 1101.12 10.845 1102.8 10.0789C1103.62 9.70459 1103.95 9.7312 1104.64 9.78687C1105.29 9.83911 1106.26 9.91724 1108.25 9.71191C1108.35 9.70215 1108.71 9.62842 1109.23 9.52319V9.52246C1110.84 9.1958 1113.93 8.56982 1115.06 8.61768C1117.6 8.72583 1120.7 8.46582 1123.82 8.20483C1129.11 7.76147 1134.43 7.31592 1137.03 8.67554C1139.64 10.0408 1159.66 10.3816 1175.55 10.6013C1175.19 15.179 1175.23 20.9797 1175.25 22.2827C1175.27 23.6958 1176.08 23.3462 1177.04 22.9297C1177.95 22.5349 1179 22.0796 1179.66 23.0081C1179.82 23.2373 1179.94 23.4521 1180.04 23.6536C1180.16 23.9163 1180.24 24.1562 1180.3 24.376C1180.36 24.6497 1180.39 24.8916 1180.41 25.1082V25.1125C1180.47 25.7119 1180.51 26.1116 1181.35 26.4221C1181.56 26.5002 1181.84 26.5825 1182.13 26.6628C1182.31 26.7136 1182.5 26.7634 1182.69 26.811L1182.97 26.8848C1183.34 26.9854 1183.64 27.0715 1183.7 27.1257C1185.15 28.3882 1185.23 28.8347 1185.34 29.405C1185.43 29.8894 1185.53 30.4626 1186.5 31.7002C1188.35 34.0571 1188.89 38.4163 1188.75 40.4021C1188.44 45.0667 1188.48 45.8618 1188.87 46.2051C1188.99 46.3186 1189.26 46.2468 1189.58 46.1587C1190.22 45.9817 1191.1 45.7393 1191.63 46.7974C1191.65 46.8474 1191.68 46.8982 1191.7 46.9497C1191.76 47.0798 1191.81 47.2144 1191.86 47.3508C1191.9 47.4646 1191.94 47.5796 1191.98 47.6943C1192.16 48.2124 1192.34 48.7256 1192.67 49.0955C1193.3 49.7932 1193.6 50.5217 1193.63 51.3904C1193.64 51.8323 1193.8 52.2366 1193.95 52.6401C1193.99 52.7495 1194.03 52.8589 1194.07 52.969C1194.21 53.3706 1194.31 53.782 1194.24 54.2383C1194.09 55.2354 1194.21 56.2178 1194.34 57.2002C1194.4 57.6802 1194.46 58.1599 1194.48 58.6416C1194.58 60.2192 1194.99 61.0059 1195.3 61.5918C1195.63 62.2239 1195.84 62.6228 1195.39 63.5293C1194.68 64.9858 1194.99 66.4871 1195.22 67.6523C1195.26 67.8176 1195.29 67.9763 1195.32 68.1272L1195.33 68.1924L1195.36 68.3384C1195.37 68.4248 1195.38 68.5081 1195.39 68.5881C1196.44 77.9429 1195.42 84.7795 1194.44 91.3369C1193.9 94.9355 1193.38 98.45 1193.21 102.25C1193.2 102.531 1193.21 102.763 1193.24 102.965C1193.27 103.244 1193.32 103.464 1193.38 103.674C1193.5 104.146 1193.61 104.563 1193.39 105.467C1193.06 106.87 1193.22 108.065 1193.38 109.243C1193.61 110.938 1193.84 112.597 1192.57 114.792C1192.33 115.207 1191.41 117.244 1192.56 118.154C1194.14 119.412 1194.29 123.563 1193.88 125.117C1193.55 126.302 1193.94 126.761 1194.33 127.237C1194.59 127.545 1194.85 127.861 1194.93 128.386C1194.99 128.774 1194.35 192.036 1193.37 181.76C1192.84 176.264 1192.86 176.117 1192.99 175.219L1193 175.184C1193.5 171.599 1193.37 168.066 1193.2 163.671V163.665C1193.06 159.784 1192.89 155.233 1193.11 149.379C1193.14 148.743 1193.15 148.106 1193.17 147.468C1193.19 146.369 1193.2 145.267 1193.21 144.166V144.159C1193.23 142.454 1193.24 140.75 1193.3 139.053C1193.4 136.325 1193.12 135.629 1191.88 135.527C1191.46 135.495 1191.21 135.526 1191.07 135.671C1190.97 135.771 1190.93 135.925 1190.93 136.15C1190.92 136.462 1190.88 136.78 1190.85 137.098C1190.74 138.008 1190.64 138.922 1191.23 139.738C1192.31 141.24 1192.28 144.292 1190.92 145.473C1190.16 146.129 1190.69 147.159 1190.95 147.651L1190.99 147.728L1191.02 147.792L1191.03 147.823C1191.83 149.64 1191.4 150.429 1190.99 151.185C1190.75 151.631 1190.51 152.066 1190.54 152.695C1190.59 153.894 1190.61 154.843 1190.63 155.6C1190.71 158.242 1190.72 158.559 1191.47 159.013C1191.52 159.04 1191.55 159.142 1191.56 159.256C1191.58 159.402 1191.57 159.568 1191.51 159.621C1190.73 160.385 1190.67 161.349 1190.75 162.354C1190.92 164.769 1190.83 165.857 1190.77 166.512C1190.75 166.783 1190.73 166.98 1190.74 167.167C1190.75 167.379 1190.8 167.577 1190.92 167.855C1191.48 169.177 1191.45 170.054 1191.41 171.353C1191.38 172.288 1191.34 173.442 1191.51 175.138C1191.82 178.231 1191.61 180.127 1191.45 181.474C1191.3 182.856 1191.2 183.662 1191.81 184.592C1193.42 187.042 1193.18 190.124 1192.94 193.202C1192.82 194.698 1192.71 196.194 1192.81 197.616L1192.82 197.75C1192.82 197.812 1192.83 197.875 1192.83 197.938C1192.85 198.074 1192.86 198.212 1192.89 198.354C1192.97 198.89 1193.1 199.418 1193.23 199.946C1193.28 200.166 1193.34 200.385 1193.39 200.605C1193.45 200.856 1193.5 201.108 1193.54 201.361C1193.56 201.45 1193.57 201.54 1193.59 201.629C1193.6 201.737 1193.61 201.845 1193.62 201.953C1193.77 203.584 1193.7 206.733 1193.61 210.096V210.098C1193.48 215.692 1193.33 221.877 1194.18 222.665C1194.39 222.857 1194.82 222.438 1194.8 222.02C1194.79 221.898 1194.78 221.777 1194.76 221.656C1194.75 221.522 1194.73 221.388 1194.71 221.254C1194.68 221.025 1194.65 220.796 1194.63 220.566C1194.62 220.47 1194.85 220.364 1195 220.371C1195.06 220.374 1195.11 220.402 1195.11 220.466C1195.12 220.624 1195.23 222.183 1195.43 223.765C1195.56 224.771 1196.09 225.823 1196.62 226.881C1197.24 228.105 1197.86 229.336 1197.86 230.51C1197.88 232.712 1199.03 233.125 1199.18 230.929C1199.25 229.926 1199.35 228.66 1199.49 227.056C1199.79 223.665 1199.55 221.544 1199.3 219.405C1199.06 217.397 1198.83 215.374 1199.04 212.269C1199.12 211.086 1199.46 209.212 1200 207.866V250.126C1199.42 249.97 1198.92 249.978 1198.52 250.047C1194.94 250.66 1193.03 250.485 1191.72 250.366C1190.37 250.242 1189.67 250.177 1188.42 251.1C1184.46 254.028 1185.02 255.991 1185.87 258.957C1186.48 261.075 1187.23 263.706 1186.59 267.564C1186.5 268.099 1186.43 268.604 1186.38 269.058C1186.14 270.913 1186.02 271.905 1184.68 270.519C1183 268.773 1182.91 269.822 1182.77 271.37C1182.69 272.263 1182.59 273.321 1182.17 274.106C1181.13 276.047 1179.91 276.095 1178.99 276.131C1178.34 276.156 1177.85 276.175 1177.68 276.846C1177.59 277.2 1177.52 277.528 1177.45 277.833C1177.38 278.199 1177.31 278.531 1177.26 278.836C1177 280.26 1176.85 281.071 1175.81 281.835C1174.13 283.075 1174.22 297.158 1174.25 299.283C1174.27 300.696 1175.08 300.346 1176.04 299.93C1176.95 299.535 1178 299.08 1178.66 300.008C1179.29 300.911 1179.36 301.588 1179.41 302.113C1179.47 302.712 1179.51 303.112 1180.35 303.422C1180.69 303.55 1181.22 303.688 1181.69 303.811V303.812C1181.95 303.881 1182.2 303.945 1182.38 304C1182.55 304.051 1182.67 304.094 1182.7 304.126C1184.15 305.388 1184.23 305.835 1184.34 306.405C1184.43 306.889 1184.53 307.463 1185.5 308.7C1187.35 311.057 1187.89 315.416 1187.75 317.402C1187.44 322.067 1187.48 322.862 1187.87 323.205C1187.99 323.319 1188.26 323.247 1188.58 323.159C1189.22 322.982 1190.1 322.739 1190.63 323.797C1190.71 323.954 1190.77 324.119 1190.84 324.288C1190.89 324.421 1190.93 324.557 1190.98 324.692V324.694C1191.16 325.213 1191.34 325.726 1191.67 326.095C1192.3 326.793 1192.6 327.522 1192.63 328.39C1192.64 328.832 1192.8 329.237 1192.95 329.64C1193.14 330.149 1193.33 330.657 1193.24 331.238C1193.09 332.235 1193.21 333.218 1193.34 334.2C1193.4 334.68 1193.46 335.16 1193.48 335.642C1193.58 337.219 1193.99 338.006 1194.3 338.592C1194.63 339.224 1194.84 339.623 1194.39 340.529C1193.68 341.986 1193.99 343.487 1194.22 344.652C1194.3 344.997 1194.36 345.312 1194.39 345.588C1195.44 354.943 1194.42 361.78 1193.44 368.337C1192.9 371.936 1192.38 375.45 1192.21 379.25C1192.19 379.919 1192.29 380.313 1192.38 380.674C1192.5 381.146 1192.61 381.563 1192.39 382.467C1192.06 383.87 1192.22 385.065 1192.38 386.243C1192.61 387.938 1192.84 389.597 1191.57 391.792C1191.33 392.207 1190.41 394.244 1191.56 395.155C1193.14 396.412 1193.29 400.563 1192.88 402.117C1192.55 403.302 1192.94 403.761 1193.33 404.237C1193.46 404.398 1193.6 404.562 1193.71 404.756C1193.81 404.933 1193.89 405.136 1193.93 405.386C1193.97 405.669 1193.64 439.454 1193.08 453.683C1192.86 453.677 1192.64 453.671 1192.42 453.665L1191.93 453.653C1191.9 453.078 1191.92 452.793 1191.95 452.497C1191.96 452.412 1191.98 452.326 1191.99 452.232V452.219L1192 452.184C1192.5 448.598 1192.37 445.066 1192.2 440.67V440.664C1192.06 436.784 1191.89 432.233 1192.11 426.379C1192.18 424.645 1192.19 422.902 1192.21 421.159C1192.22 420.119 1192.23 419.078 1192.25 418.04C1192.25 417.822 1192.26 417.605 1192.26 417.388C1192.28 416.942 1192.29 416.497 1192.3 416.053C1192.4 413.325 1192.12 412.629 1190.88 412.527C1190.17 412.473 1189.94 412.6 1189.93 413.15C1189.92 413.463 1189.88 413.78 1189.85 414.098C1189.74 415.008 1189.64 415.922 1190.23 416.738C1191.31 418.24 1191.28 421.292 1189.92 422.473C1189.16 423.129 1189.69 424.159 1189.95 424.651L1189.96 424.667L1190 424.756L1190.01 424.779L1190.03 424.823C1190.83 426.64 1190.4 427.429 1189.99 428.185C1189.75 428.631 1189.51 429.066 1189.54 429.695C1189.59 430.894 1189.61 431.843 1189.63 432.601C1189.71 435.242 1189.72 435.559 1190.47 436.013C1190.57 436.074 1190.61 436.527 1190.51 436.621C1189.73 437.385 1189.67 438.349 1189.75 439.354C1189.84 440.597 1189.86 441.488 1189.85 442.15C1189.84 442.774 1189.8 443.194 1189.77 443.512C1189.72 444.092 1189.7 444.334 1189.92 444.855C1190.48 446.177 1190.45 447.054 1190.41 448.353C1190.38 449.288 1190.34 450.442 1190.51 452.138C1190.53 452.306 1190.54 452.47 1190.56 452.63L1190.57 452.806L1190.59 453.011C1190.6 453.223 1190.61 453.429 1190.63 453.629C1188.83 453.602 1187.41 453.607 1186.84 453.611C1185.43 453.622 1185.77 454.432 1186.19 455.397C1186.58 456.312 1187.03 457.366 1186.1 458.012C1185.19 458.64 1184.51 458.706 1183.99 458.758C1183.39 458.816 1182.99 458.855 1182.67 459.691C1182.54 460.029 1182.4 460.549 1182.28 461.015V461.023V461.026C1182.14 461.527 1182.02 461.964 1181.96 462.041C1180.69 463.482 1180.24 463.562 1179.67 463.663C1179.19 463.749 1178.61 463.85 1177.37 464.814C1175 466.648 1170.64 467.165 1168.66 467.022C1163.99 466.688 1163.2 466.72 1162.85 467.106C1162.83 467.131 1162.81 467.161 1162.81 467.195C1162.79 467.246 1162.79 467.307 1162.8 467.376C1162.81 467.499 1162.85 467.649 1162.89 467.814V467.817C1163.07 468.461 1163.31 469.344 1162.25 469.865C1162.1 469.939 1161.94 470.003 1161.78 470.063C1161.64 470.116 1161.49 470.166 1161.35 470.215C1160.83 470.393 1160.31 470.568 1159.94 470.899C1159.24 471.522 1158.51 471.819 1157.64 471.843C1157.2 471.854 1156.8 472.005 1156.39 472.156C1155.88 472.346 1155.37 472.536 1154.79 472.444C1153.8 472.287 1152.81 472.404 1151.83 472.522C1151.35 472.579 1150.87 472.636 1150.39 472.662C1148.81 472.747 1148.02 473.155 1147.43 473.459C1146.8 473.787 1146.4 473.994 1145.5 473.544C1144.04 472.822 1142.54 473.123 1141.37 473.357C1141.03 473.426 1140.71 473.489 1140.44 473.518C1131.08 474.517 1124.25 473.462 1117.69 472.451C1114.1 471.896 1110.59 471.355 1106.79 471.172C1106.12 471.14 1105.72 471.239 1105.36 471.329C1104.89 471.448 1104.47 471.552 1103.57 471.332C1102.17 470.991 1100.97 471.147 1099.79 471.302C1098.1 471.524 1096.44 471.741 1094.25 470.465C1093.83 470.223 1091.8 469.296 1090.89 470.442C1089.62 472.015 1085.47 472.144 1083.92 471.718C1082.73 471.392 1082.27 471.77 1081.79 472.162C1081.48 472.417 1081.17 472.677 1080.64 472.753C1080.25 472.81 1017 471.856 1027.28 470.925C1032.77 470.429 1032.92 470.45 1033.82 470.581L1033.85 470.586C1037.44 471.105 1040.97 470.992 1045.36 470.853H1045.37C1049.25 470.729 1053.81 470.584 1059.66 470.832C1060.98 470.888 1062.31 470.916 1063.64 470.938C1064.04 470.944 1064.45 470.95 1064.85 470.956L1064.88 470.957L1064.9 470.958C1066.6 470.983 1068.3 471.008 1069.98 471.077C1072.71 471.188 1073.41 470.909 1073.52 469.671C1073.57 468.964 1073.45 468.731 1072.9 468.714C1072.59 468.706 1072.27 468.668 1071.95 468.63C1071.04 468.521 1070.13 468.411 1069.31 468.998C1067.8 470.075 1064.75 470.03 1063.57 468.659C1062.92 467.9 1061.89 468.426 1061.4 468.677L1061.39 468.68C1061.32 468.714 1061.27 468.742 1061.22 468.762C1059.4 469.554 1058.62 469.119 1057.86 468.703C1057.42 468.457 1056.98 468.217 1056.35 468.24C1055.16 468.285 1054.21 468.307 1053.45 468.324C1050.81 468.384 1050.49 468.391 1050.03 469.146C1049.97 469.245 1049.52 469.277 1049.42 469.182C1048.66 468.395 1047.7 468.333 1046.69 468.401C1045.66 468.472 1044.86 468.494 1044.24 468.491C1043.42 468.487 1042.91 468.44 1042.54 468.406C1041.96 468.352 1041.72 468.33 1041.19 468.549C1039.87 469.105 1038.99 469.071 1037.69 469.021C1036.76 468.985 1035.6 468.94 1033.91 469.101C1030.81 469.396 1028.92 469.171 1027.57 469.011C1026.19 468.848 1025.39 468.753 1024.45 469.354C1021.99 470.951 1018.91 470.696 1015.84 470.441C1014.34 470.317 1012.85 470.194 1011.42 470.283C1011.19 470.298 1010.94 470.323 1010.68 470.36C1010.42 470.398 1010.16 470.448 1009.9 470.505C1009.63 470.564 1009.36 470.63 1009.09 470.696C1008.84 470.756 1008.6 470.816 1008.35 470.871C1007.93 470.964 1007.51 471.042 1007.08 471.08C1005.45 471.221 1002.3 471.128 998.941 471.029H998.938H998.935C993.342 470.864 987.159 470.682 986.368 471.529C986.175 471.736 986.592 472.171 987.01 472.151C987.19 472.141 987.37 472.122 987.55 472.1L987.777 472.07C987.891 472.055 988.005 472.041 988.119 472.028C988.234 472.014 988.349 472.003 988.465 471.995C988.604 471.983 988.764 472.474 988.562 472.478C988.404 472.481 986.844 472.586 985.262 472.781C984.254 472.905 983.199 473.429 982.139 473.955C980.912 474.564 979.678 475.177 978.504 475.177C976.302 475.177 975.884 476.326 978.079 476.494C979.081 476.57 980.347 476.675 981.95 476.824C985.34 477.139 987.462 476.903 989.603 476.665C991.611 476.441 993.636 476.216 996.739 476.442C999.053 476.611 1004 477.774 1002.47 479.52C1002.34 479.676 1002.07 479.874 1001.9 479.842C1000.84 479.644 999.754 479.64 998.672 479.636H998.664C997.409 479.632 996.156 479.627 994.925 479.321C994.589 479.236 994.192 479.304 993.841 479.374C990.233 480.096 983.226 480.052 976.604 480.009H976.598C969.084 479.961 962.068 479.917 961.074 481H872.267L871.89 480.857C870.917 480.49 870.632 480.596 870.201 480.756C869.963 480.844 869.681 480.949 869.215 481H855.599C854.917 480.805 853.938 480.621 851.64 480.566C849.906 480.525 849.235 480.118 848.667 479.773C848.109 479.435 847.651 479.157 846.382 479.347C845.461 479.485 844.974 479.427 844.518 479.373C843.925 479.303 843.386 479.239 842.015 479.624C841.833 479.675 841.499 479.726 841.11 479.784C839.965 479.958 838.345 480.202 838.76 480.74L838.797 480.789C838.85 480.859 838.907 480.935 838.969 481H828.434C828.448 480.862 828.531 480.684 828.62 480.492L828.623 480.486C828.861 479.974 829.139 479.375 828.268 479.229C826.552 478.94 824.875 478.763 823.198 479.529C822.381 479.903 822.052 479.876 821.362 479.821C820.713 479.769 819.744 479.69 817.747 479.896C817.653 479.906 817.289 479.979 816.771 480.084C815.164 480.411 812.071 481.038 810.938 480.99C810.02 480.951 809.028 480.96 807.988 481H789.108L789.034 480.964L788.973 480.932C786.219 479.493 764.131 479.192 747.919 478.972C740.458 478.87 734.242 478.786 731.729 478.615C730.717 478.545 730.062 479.01 729.338 479.523C728.349 480.226 727.23 481.02 724.893 480.666C723.277 480.42 721.654 480.459 720.032 480.498H720.017C719.31 480.515 718.604 480.531 717.897 480.524C717.404 480.52 716.911 480.503 716.418 480.467C715.878 480.427 715.4 480.612 715.047 481H449.98C449.723 480.776 449.419 480.468 449.043 480.041C449.018 480.013 448.987 479.937 448.95 479.826C448.9 479.676 448.842 479.463 448.777 479.226L448.723 479.023L448.721 479.016C448.596 478.55 448.456 478.029 448.327 477.691C448.013 476.855 447.613 476.816 447.013 476.758C446.489 476.706 445.811 476.64 444.905 476.012C443.973 475.366 444.423 474.312 444.813 473.397C445.225 472.432 445.57 471.622 444.157 471.611C442.032 471.594 427.949 471.57 426.718 473.258C425.959 474.298 425.149 474.452 423.726 474.722C423.168 474.828 422.517 474.951 421.738 475.153C421.068 475.328 421.052 475.822 421.03 476.467C420.998 477.383 420.957 478.605 419.021 479.659C418.238 480.084 417.18 480.185 416.288 480.269C415.242 480.368 414.425 480.445 414.545 481H364.991C364.911 480.979 364.829 480.957 364.747 480.933C364.685 480.916 364.623 480.898 364.561 480.879L364.402 480.832C363.828 480.655 363.075 480.623 362.233 480.673C360.92 480.752 359.559 480.728 358.192 480.704H358.167C355.983 480.666 353.781 480.626 351.73 481H256.816C258.75 480.481 258.518 479.412 256.272 479.28C255.46 479.232 254.439 479.17 253.141 479.088C250.822 478.94 249.372 478.987 248.278 479.022C247.685 479.042 247.196 479.057 246.73 479.037C246.017 479.005 245.358 478.889 244.459 478.57C244.029 478.417 243.756 478.373 243.496 478.381C243.324 478.386 243.159 478.415 242.957 478.449C242.693 478.493 242.367 478.548 241.887 478.576C241.261 478.613 240.37 478.605 239.009 478.47C236.094 478.179 236.023 478.321 235.926 478.513C235.875 478.613 235.818 478.727 235.356 478.801C235.088 478.844 234.833 478.888 234.587 478.93C233.082 479.188 231.934 479.384 230.268 479.08C229.784 478.993 229.577 478.675 229.367 478.353C229.108 477.955 228.846 477.551 228.051 477.57L227.451 477.585C225.332 477.639 218.413 477.813 218.095 477.764C215.577 477.371 213.59 477.803 211.577 478.24C210.076 478.567 208.56 478.896 206.799 478.888C202.428 478.87 199.957 478.696 198.444 478.59L198.432 478.588C196.36 478.442 196.092 478.423 195.188 479.106C193.742 480.197 190.27 479.808 189.835 479.723C186.897 479.152 182.425 479.231 176.149 479.343H176.141H176.136H176.132C168.134 479.485 157.211 479.679 142.807 478.647C141.392 478.544 141.715 476.412 143.06 476.864C143.117 476.883 143.175 476.905 143.232 476.927C143.28 476.946 143.327 476.965 143.375 476.985L143.385 476.989C143.822 477.166 144.299 477.359 145.139 477.221C146.731 476.957 148.283 476.996 149.84 477.475C150.402 477.647 151.097 477.767 151.632 477.602C152.425 477.356 153.551 477.326 154.457 477.301C156.37 477.25 157.303 477.225 152.061 475.25C151.088 474.883 150.803 474.988 150.372 475.148C150.113 475.244 149.802 475.359 149.259 475.404C138.545 476.286 137.5 475.947 136.223 475.533C135.48 475.292 134.658 475.026 131.811 474.959C130.077 474.917 129.406 474.51 128.838 474.166C128.28 473.827 127.822 473.549 126.553 473.74C125.632 473.877 125.145 473.82 124.689 473.765C124.096 473.695 123.557 473.631 122.186 474.016C122.004 474.067 121.671 474.118 121.283 474.176C120.136 474.35 118.516 474.594 118.931 475.133L118.963 475.175L118.968 475.181C119.047 475.286 119.135 475.403 119.234 475.479C119.281 475.515 119.33 475.542 119.382 475.555C120.693 475.864 122.295 477.531 119.23 477.682C116.582 477.812 115.455 477.227 114.548 476.757C113.919 476.431 113.396 476.16 112.544 476.222C111.825 476.274 111.151 476.109 110.478 475.945L110.474 475.944C109.958 475.817 109.442 475.691 108.908 475.664C108.438 475.642 108.603 475.288 108.793 474.878C109.031 474.366 109.31 473.767 108.439 473.621C106.723 473.333 105.046 473.155 103.368 473.921C102.552 474.295 102.223 474.269 101.533 474.213C100.884 474.161 99.9148 474.083 97.918 474.288C97.8245 474.298 97.4622 474.371 96.946 474.476L96.9412 474.477L96.9377 474.478C95.3291 474.804 92.241 475.43 91.1086 475.382C88.571 475.274 85.467 475.534 82.3542 475.795C77.0601 476.239 71.7424 476.684 69.1433 475.324C66.3899 473.885 44.302 473.585 28.0908 473.364C26.4355 473.342 24.8428 473.32 23.3381 473.298C22.2671 473.282 21.2405 473.266 20.2683 473.25C20.0974 470.631 20.123 468.077 21.4976 465.984C22.1038 465.054 22.0125 464.248 21.8557 462.867C21.7029 461.519 21.488 459.623 21.7988 456.53C21.9678 454.834 21.929 453.68 21.8975 452.745C21.8538 451.446 21.8242 450.569 22.3865 449.247C22.6084 448.726 22.5874 448.484 22.5371 447.905C22.48 447.249 22.3855 446.161 22.5623 443.747C22.6355 442.741 22.5786 441.778 21.7957 441.013C21.729 440.947 21.7263 440.703 21.7654 440.543C21.7817 440.476 21.8054 440.424 21.8347 440.406C22.5916 439.951 22.6003 439.635 22.6736 436.992C22.6865 436.522 22.7017 435.978 22.7234 435.347C22.7366 434.961 22.7524 434.542 22.7717 434.087C22.7983 433.458 22.5608 433.023 22.3169 432.577C21.9041 431.821 21.4734 431.032 22.2749 429.215C22.2891 429.184 22.3081 429.146 22.3303 429.102L22.3608 429.043C22.6143 428.551 23.1453 427.521 22.3896 426.866C21.0244 425.684 20.9946 422.633 22.0798 421.13C22.6709 420.314 22.5657 419.4 22.4609 418.49C22.4246 418.172 22.3879 417.855 22.3811 417.542C22.3672 416.992 22.1348 416.865 21.4277 416.919C20.1892 417.021 19.9062 417.717 20.0042 420.445C20.0647 422.133 20.0815 423.828 20.0984 425.524V425.552C20.1152 427.294 20.1323 429.037 20.1965 430.771C20.415 436.623 20.2473 441.173 20.1045 445.052V445.056C19.9424 449.454 19.8123 452.989 20.3127 456.576L20.3176 456.611C20.4438 457.51 20.4644 457.656 19.9409 463.152C18.9583 473.428 18.3225 410.166 18.3811 409.779C18.4604 409.253 18.7222 408.938 18.978 408.629C19.3723 408.153 19.7532 407.694 19.4329 406.509C19.0144 404.955 19.1641 400.804 20.7439 399.547C21.8943 398.636 20.9775 396.599 20.7375 396.184C19.4724 393.989 19.6982 392.33 19.929 390.635C20.0894 389.457 20.252 388.262 19.918 386.859C19.7021 385.955 19.8088 385.538 19.9297 385.066C20.0222 384.705 20.1228 384.311 20.0938 383.642C19.9304 379.842 19.4062 376.328 18.8696 372.729C17.8916 366.172 16.8718 359.335 17.9172 349.98C17.9478 349.704 18.0125 349.389 18.0833 349.044C18.3228 347.879 18.6311 346.378 17.917 344.921C17.4712 344.015 17.6802 343.616 18.0115 342.984C18.3186 342.398 18.7307 341.612 18.8235 340.034C18.8513 339.552 18.9111 339.072 18.9709 338.592V338.589C19.0933 337.608 19.2156 336.626 19.0635 335.631C18.9744 335.049 19.167 334.541 19.3599 334.032L19.3606 334.03C19.5132 333.627 19.666 333.223 19.679 332.782C19.7078 331.914 20.0076 331.185 20.6343 330.488C20.967 330.118 21.1455 329.605 21.3257 329.086C21.4321 328.78 21.5396 328.471 21.6797 328.189C22.2065 327.132 23.0881 327.374 23.7312 327.551C24.052 327.639 24.3135 327.711 24.4421 327.597C24.8301 327.254 24.8662 326.459 24.5549 321.794C24.4221 319.808 24.9614 315.449 26.8069 313.092C27.7773 311.855 27.8818 311.281 27.97 310.797C28.074 310.227 28.1553 309.781 29.6033 308.518C29.6802 308.451 30.1191 308.335 30.6226 308.203C31.0913 308.08 31.6162 307.942 31.9565 307.814C32.7939 307.504 32.8352 307.104 32.8967 306.505C32.9507 305.98 33.0203 305.303 33.6528 304.4C34.3035 303.472 35.3557 303.927 36.2686 304.322C37.2317 304.739 38.0396 305.088 38.0574 303.675C38.0847 301.55 38.1802 287.467 36.4983 286.227C35.4624 285.463 35.3127 284.652 35.0496 283.228C34.9465 282.67 34.8262 282.018 34.6282 281.238C34.4565 280.568 33.9634 280.548 33.3184 280.523C32.4026 280.487 31.1802 280.439 30.1367 278.499C29.7146 277.713 29.6199 276.655 29.54 275.762C29.4016 274.214 29.3076 273.165 27.626 274.912C26.2917 276.298 26.1665 275.305 25.9321 273.45C25.8748 272.996 25.8108 272.491 25.7212 271.956C25.0769 268.098 25.8298 265.468 26.4363 263.349C27.2854 260.383 27.8477 258.42 23.8867 255.492C22.6414 254.57 21.9341 254.635 20.5854 254.758C19.2795 254.878 17.3723 255.052 13.7925 254.439C12.9165 254.288 11.574 254.432 9.89917 255.928C8.7207 256.979 7.83301 257.167 7.04517 257.333C6.02319 257.548 5.16992 257.728 4.06934 259.714C2.81299 261.977 2.98438 262.931 3.23608 264.33L3.29395 264.656C3.76343 267.354 1.9043 267.754 0 268.025V267.121C0.102539 266.885 0.244873 266.632 0.443115 266.32C0.625732 266.033 0.855469 265.697 1.14526 265.279C1.41138 264.896 1.53223 264.616 1.60669 264.054C1.66333 263.626 1.69312 263.033 1.7395 262.106L1.74097 262.082C1.77393 261.416 1.81567 260.58 1.88232 259.51C1.9104 259.075 2.0564 258.857 2.24976 258.727C2.30737 258.688 2.36914 258.657 2.43335 258.63C2.5144 258.596 2.59912 258.569 2.68384 258.542C3.0813 258.416 3.47974 258.289 3.49585 257.453C3.49585 257.445 3.49976 257.402 3.50659 257.325C3.57422 256.556 3.93872 252.411 3.97705 245.733C3.98291 244.769 4.83716 242.866 5.3103 241.813L5.31104 241.811C5.41479 241.58 5.5 241.39 5.55371 241.26C6.07715 239.995 5.96143 238.985 5.81787 237.728C5.68481 236.566 5.52783 235.194 5.82983 233.216C5.89233 232.811 6.59766 232.095 6.65967 232.318C6.71826 232.526 6.79614 232.738 6.87402 232.95C7.05835 233.452 7.24341 233.956 7.17944 234.422C6.71777 237.722 6.98218 241.112 7.24561 244.488C7.38696 246.298 7.52783 248.104 7.5564 249.89C7.57959 251.344 7.698 252.349 8.20142 252.418C9.62305 252.61 9.61279 244.99 9.60156 236.779V236.773C9.59277 230.152 9.5835 223.148 10.324 219.545C10.3501 219.417 10.376 219.282 10.3943 219.146C10.426 218.911 10.4348 218.674 10.3821 218.461C10.0818 217.229 10.084 215.975 10.0862 214.721C10.0881 213.636 10.0898 212.551 9.89575 211.48C9.86572 211.313 10.064 211.049 10.2219 210.913C11.9744 209.392 13.1128 214.347 13.2698 216.662C13.4802 219.766 13.2449 221.789 13.0115 223.797C12.7627 225.936 12.5161 228.057 12.8135 231.448C12.9548 233.052 13.0535 234.318 13.1248 235.321C13.281 237.517 14.4319 237.104 14.4434 234.903C14.4495 233.729 15.0674 232.499 15.6821 231.276L15.6836 231.273C16.2153 230.216 16.7446 229.164 16.8738 228.157C17.0767 226.576 17.1895 225.017 17.1934 224.858C17.1982 224.656 17.688 224.818 17.6758 224.958C17.6587 225.188 17.6277 225.417 17.5967 225.645V225.647V225.649C17.562 225.903 17.5273 226.157 17.5127 226.412C17.49 226.83 17.9229 227.249 18.1313 227.057C18.9824 226.27 18.8313 220.084 18.6946 214.491V214.488C18.6123 211.125 18.5354 207.977 18.6848 206.345C18.7471 205.669 18.9128 205.004 19.0789 204.338C19.1172 204.184 19.1555 204.031 19.1926 203.876C19.2341 203.704 19.2742 203.531 19.3105 203.358C19.3535 203.155 19.3918 202.951 19.4226 202.747C19.4609 202.49 19.4871 202.244 19.5032 202.008C19.5996 200.586 19.4834 199.091 19.3669 197.594C19.1279 194.516 18.8884 191.434 20.4976 188.984C21.1038 188.054 21.0125 187.248 20.8557 185.867C20.7029 184.519 20.488 182.623 20.7988 179.53C20.9678 177.834 20.929 176.681 20.8975 175.745C20.8538 174.446 20.8242 173.569 21.3865 172.247C21.6084 171.726 21.5874 171.484 21.5371 170.905C21.48 170.249 21.3855 169.161 21.5623 166.747C21.6355 165.741 21.5786 164.778 20.7957 164.013C20.7009 163.919 20.7354 163.467 20.8347 163.406C21.5916 162.951 21.6003 162.635 21.6736 159.992C21.6946 159.235 21.7209 158.286 21.7717 157.087C21.7983 156.458 21.5608 156.023 21.3169 155.577C20.9041 154.821 20.4734 154.032 21.2749 152.215C21.2952 152.17 21.3252 152.112 21.3608 152.043C21.6143 151.551 22.1453 150.521 21.3896 149.866C20.0244 148.684 19.9946 145.633 21.0798 144.13C21.6709 143.314 21.5657 142.4 21.4609 141.49L21.4587 141.468C21.4358 141.268 21.4128 141.068 21.3977 140.869C21.3894 140.76 21.3835 140.651 21.3811 140.542C21.3672 139.992 21.1348 139.865 20.4277 139.919C19.1892 140.021 18.9062 140.717 19.0042 143.445C19.0647 145.133 19.0815 146.828 19.0984 148.524V148.552C19.1152 150.294 19.1323 152.037 19.1965 153.771C19.415 159.622 19.2473 164.173 19.1045 168.052V168.056C18.9424 172.454 18.8123 175.989 19.3127 179.576L19.3176 179.611C19.4438 180.51 19.4644 180.656 18.9409 186.152C17.9583 196.428 17.3225 133.166 17.3811 132.779C17.4346 132.425 17.5703 132.167 17.7314 131.941C17.8091 131.833 17.8928 131.732 17.9758 131.632L17.978 131.629C18.3723 131.153 18.7532 130.694 18.4329 129.509C18.0144 127.955 18.1641 123.804 19.7439 122.547C20.8943 121.636 19.9775 119.599 19.7375 119.184C18.4724 116.989 18.6982 115.33 18.929 113.635C19.0894 112.457 19.252 111.262 18.918 109.859C18.7021 108.955 18.8088 108.538 18.9297 108.066C19.0222 107.705 19.1228 107.311 19.0938 106.642C18.9304 102.842 18.4062 99.3279 17.8696 95.7292C16.8916 89.1719 15.8718 82.335 16.9172 72.9802C16.9478 72.7043 17.0125 72.3892 17.0833 72.0447C17.3228 70.8794 17.6311 69.3779 16.917 67.9214C16.4712 67.0149 16.6802 66.6162 17.0115 65.9841C17.3186 65.3979 17.7307 64.6116 17.8235 63.0339C17.8513 62.5522 17.9111 62.0723 17.9709 61.5923V61.5894C18.0933 60.6079 18.2156 59.6265 18.0635 58.6306C17.9744 58.0491 18.167 57.5413 18.3599 57.0325C18.5127 56.6287 18.666 56.2244 18.679 55.7825C18.7078 54.9141 19.0076 54.1853 19.6343 53.4878C19.8997 53.1929 20.0669 52.8069 20.2151 52.3997C20.2527 52.2961 20.2891 52.1914 20.3257 52.0864C20.4321 51.7798 20.5396 51.4712 20.6797 51.1895C21.2065 50.1316 22.0881 50.374 22.7312 50.5508C23.052 50.6389 23.3135 50.7109 23.4421 50.5972C23.8301 50.2542 23.8662 49.459 23.5549 44.7942C23.4221 42.8086 23.9614 38.4492 25.8069 36.0923C26.7773 34.855 26.8818 34.2815 26.97 33.7974C27.074 33.2271 27.1553 32.7805 28.6033 31.5181C28.6802 31.4509 29.1189 31.3354 29.6221 31.2031C30.0923 31.0796 30.6167 30.9417 30.9565 30.8145C31.7939 30.5039 31.8352 30.104 31.8967 29.5049C31.9507 28.9805 32.0203 28.3035 32.6528 27.4001C33.3035 26.4719 34.3557 26.927 35.2686 27.322C36.2317 27.7385 37.0396 28.0881 37.0574 26.675C37.0847 24.55 37.1802 10.4668 35.4983 9.22729C34.749 8.67432 34.4634 8.09717 34.2629 7.28101C34.6167 7.16992 34.981 7.10059 35.3789 7.16357C36.375 7.32104 37.3579 7.20361 38.3411 7.08594C38.5337 7.06299 38.7263 7.04004 38.9192 7.01904C39.2068 6.98779 39.4949 6.96118 39.7832 6.94604C41.3613 6.86108 42.1499 6.45288 42.7375 6.14868C43.3713 5.8208 43.7712 5.61377 44.6755 6.06396C46.1282 6.7854 47.6311 6.48462 48.7976 6.25098C49.0193 6.20654 49.2285 6.16479 49.4231 6.13257C49.4641 6.12573 49.5044 6.11938 49.5442 6.11377C49.6094 6.10425 49.6726 6.09619 49.7341 6.0896C59.094 5.09131 65.9255 6.14551 72.4778 7.15649C76.0737 7.71143 79.5854 8.25317 83.3848 8.43555C84.0535 8.46802 84.4478 8.36938 84.8093 8.27856C85.2822 8.16016 85.6995 8.05566 86.6023 8.27588C88.0042 8.61694 89.1997 8.46045 90.3784 8.30591C92.0742 8.08398 93.7346 7.86646 95.9229 9.14258C96.3374 9.38452 98.3691 10.3115 99.2856 9.16577C100.551 7.59229 104.703 7.46362 106.255 7.88965C107.438 8.21606 107.899 7.83765 108.376 7.4458C108.687 7.19116 109.003 6.93115 109.53 6.85449C109.917 6.79785 173.175 7.75195 162.894 8.68286C157.396 9.17871 157.249 9.15723 156.352 9.02661L156.317 9.02148C152.732 8.50293 149.197 8.61548 144.798 8.75537H144.794H144.791C140.912 8.87866 136.361 9.02344 130.513 8.77563C128.779 8.70264 127.036 8.67676 125.293 8.65088C124.48 8.63892 123.666 8.62695 122.853 8.61011C121.963 8.59155 121.074 8.56738 120.188 8.53101C117.46 8.41968 116.762 8.69897 116.655 9.93701C116.597 10.6438 116.723 10.8767 117.273 10.8936C117.585 10.9019 117.902 10.9399 118.22 10.9783C119.13 11.0874 120.043 11.1973 120.862 10.6104C122.37 9.53271 125.421 9.57764 126.596 10.949C127.248 11.7078 128.28 11.1821 128.773 10.9309C128.842 10.8958 128.901 10.866 128.946 10.8459C130.767 10.0535 131.553 10.4883 132.307 10.9048C132.753 11.1511 133.187 11.3909 133.816 11.3674C135.014 11.3228 135.963 11.301 136.721 11.2839C139.364 11.2239 139.68 11.2168 140.139 10.4622C140.2 10.363 140.653 10.3308 140.746 10.4263C141.507 11.2129 142.47 11.2747 143.476 11.2065C144.719 11.1218 145.61 11.1072 146.272 11.1211C146.896 11.1343 147.316 11.1729 147.634 11.2021C147.881 11.2249 148.066 11.2419 148.238 11.2371C148.47 11.2307 148.677 11.1843 148.977 11.0583C150.302 10.5029 151.179 10.5369 152.478 10.5872C153.413 10.6233 154.567 10.668 156.263 10.5073C159.358 10.2122 161.252 10.4368 162.599 10.5962C163.98 10.7598 164.785 10.8552 165.719 10.2537C168.176 8.65698 171.257 8.91187 174.334 9.1665C175.83 9.29028 177.325 9.41406 178.747 9.32495C178.983 9.31006 179.229 9.28516 179.486 9.24805C179.806 9.20166 180.122 9.13696 180.438 9.06519C180.649 9.01709 180.86 8.96582 181.07 8.91455L181.08 8.91235C181.374 8.84058 181.668 8.7688 181.963 8.70581C182.336 8.62622 182.711 8.56128 183.089 8.52832C184.721 8.38721 187.869 8.47998 191.231 8.5791C196.824 8.74414 203.011 8.92651 203.803 8.0791C203.996 7.87183 203.579 7.43652 203.161 7.45703C202.904 7.4707 202.649 7.50391 202.394 7.53735L202.384 7.53882C202.159 7.56812 201.933 7.59741 201.706 7.61279C201.566 7.62451 201.406 7.13403 201.609 7.13013C201.692 7.12842 202.16 7.09888 202.815 7.04297C203.048 7.02295 203.306 6.99976 203.578 6.97314C203.998 6.93237 204.452 6.88354 204.909 6.82715C205.916 6.70312 206.971 6.1792 208.032 5.65259C209.259 5.04346 210.493 4.43066 211.667 4.43066C213.869 4.43018 214.287 3.28149 212.092 3.11426C211.09 3.03784 209.824 2.93286 208.221 2.78345C204.831 2.46899 202.709 2.70483 200.568 2.94287C198.56 3.16626 196.535 3.39136 193.432 3.16528C191.118 2.99683 186.169 1.83325 187.698 0.0883789C187.724 0.0598145 187.753 0.0297852 187.785 0H193.095C193.817 0.0336914 194.535 0.109863 195.246 0.286865C195.369 0.318115 195.501 0.328613 195.635 0.325928C195.867 0.321289 196.108 0.277832 196.33 0.233887C196.776 0.144775 197.273 0.0671387 197.814 0H407.229ZM814.897 6.08081C812.675 5.83032 810.507 5.49585 808.307 5.15649C802.967 4.33252 797.442 3.47998 790.514 3.73315C790.917 4.1123 791.345 4.44556 791.93 4.54102C793.297 4.76416 794.287 4.89819 795.061 5.00293C796.627 5.21484 797.309 5.30713 798.438 5.77734C798.628 5.85718 798.956 5.875 799.104 5.77222C800.123 5.0437 801.148 5.21436 802.217 5.39209C802.941 5.5127 803.685 5.63647 804.462 5.48633C806.802 5.03174 809.135 5.35229 811.413 5.70654C812.28 5.8418 812.989 5.9314 813.582 5.98999C814.097 6.04077 814.525 6.06787 814.897 6.08081ZM183.389 0H184.145C184.132 0.0141602 184.119 0.0280762 184.104 0.0415039C184.093 0.0522461 184.081 0.0629883 184.069 0.0734863C183.965 0.1604 183.828 0.227539 183.688 0.236328C183.606 0.241455 183.529 0.235107 183.459 0.215088C183.338 0.18042 183.331 0.095459 183.389 0ZM254.5 481H247.857C248.307 480.833 248.622 480.7 248.867 480.596C249.155 480.474 249.347 480.393 249.546 480.346C249.945 480.252 250.376 480.295 251.666 480.422H251.669L251.682 480.423C251.951 480.45 252.258 480.48 252.609 480.513C253.681 480.616 254.127 480.825 254.478 480.989L254.5 481ZM9.77222 207.285C9.74902 206.922 10.2715 206.324 10.3699 206.674C10.3894 206.744 10.3955 206.821 10.3899 206.903C10.3613 207.327 9.79956 207.71 9.77222 207.285ZM1006.71 479.393C1007.06 479.493 1006.46 480.012 1006.1 479.987C1005.67 479.958 1006.06 479.398 1006.48 479.372C1006.51 479.37 1006.53 479.37 1006.55 479.37L1006.59 479.372C1006.64 479.375 1006.67 479.382 1006.71 479.393Z" fill="#E21E26"/>
</svg>
