<svg width="14" height="18" viewBox="0 0 14 18" fill="none" xmlns="http://www.w3.org/2000/svg">
<path d="M4.34796 10.418V12.7969H9.32843V14.4727H4.34796V18H2.09796V14.4727H0.398743V12.7969H2.09796V10.418H0.398743V8.74219H2.09796V0.550781H7.00812C9.07843 0.550781 10.6331 0.964844 11.6722 1.79297C12.7112 2.61328 13.2308 3.80078 13.2308 5.35547C13.2308 6.27734 13.0589 7.0625 12.7151 7.71094C12.3714 8.35156 11.9066 8.875 11.3206 9.28125C10.7347 9.67969 10.0472 9.96875 9.25812 10.1484C8.47687 10.3281 7.64874 10.418 6.77374 10.418H4.34796ZM4.34796 8.74219H6.37531C7.02374 8.74219 7.63312 8.69922 8.20343 8.61328C8.78156 8.52734 9.28156 8.36328 9.70343 8.12109C10.1331 7.87109 10.473 7.52734 10.723 7.08984C10.973 6.64453 11.098 6.07031 11.098 5.36719C11.098 4.90625 11.0316 4.48438 10.8987 4.10156C10.7659 3.71875 10.5433 3.39062 10.2308 3.11719C9.91827 2.84375 9.50031 2.63281 8.97687 2.48438C8.46124 2.32812 7.82062 2.25 7.05499 2.25H4.34796V8.74219Z" fill="black"/>
</svg>
